<?xml version="1.0" encoding="utf-8"?>
<!-- Generator: Adobe Illustrator 25.4.0, SVG Export Plug-In . SVG Version: 6.00 Build 0)  -->
<svg version="1.1" id="Layer_1" xmlns="http://www.w3.org/2000/svg" xmlns:xlink="http://www.w3.org/1999/xlink" x="0px"
	y="0px" viewBox="0 0 1331.3 502.9" style="enable-background:new 0 0 1331.3 502.9;" xml:space="preserve">
	<style type="text/css">
		.st0 {
			fill-rule: evenodd;
			clip-rule: evenodd;
			fill: #E1E1E1;
		}

		.st1 {
			fill: #E1E1E1;
		}
	</style>
	<symbol id="New_Symbol" viewBox="-14.7 -15.6 29.5 31.2">
		<path class="st0" d="M9.5,10l-5.5,3.2c-2.4,1.4-5.4,1.4-7.9,0L-9.5,10c-2.4-1.4-3.9-4-3.9-6.8v-6.4c0-2.8,1.5-5.4,3.9-6.8
						l5.5-3.2c2.4-1.4,5.4-1.4,7.9,0l5.5,3.2c2.4,1.4,3.9,4,3.9,6.8v6.4C13.4,6,11.9,8.6,9.5,10z M-0.7-15.6
						c-1.4,0.1-2.7,0.5-3.9,1.2l-5.5,3.2c-2.8,1.7-4.6,4.7-4.6,8v6.4c0,1.4,0.3,2.8,0.9,4l0.7,1.1c0.8,1.2,1.8,2.1,3,2.8l5.5,3.2
						c2.8,1.6,6.3,1.6,9.2,0l5.5-3.2c1.2-0.7,2.2-1.7,3-2.8l0.6-1.1c0.6-1.2,0.9-2.6,0.9-4v-6.4c0-3.3-1.7-6.3-4.6-8l-5.5-3.2
						c-1.2-0.7-2.6-1.1-3.9-1.1H-0.7z" />
	</symbol>
	<symbol id="New_Symbol_1" viewBox="-0.6 -9.6 1.3 19.1">
		<rect x="-0.6" y="-9.6" class="st1" width="1.3" height="19.1" />
	</symbol>
	<symbol id="New_Symbol_2" viewBox="-58.2 -53.3 116.3 106.5">
		<g>
			<defs>
				<rect id="SVGID_1_" x="-14.7" y="-3" width="29.4" height="31.1" />
			</defs>
			<clipPath id="SVGID_00000151505311446749987910000006626312257823885495_">
				<use xlink:href="#SVGID_1_" style="overflow:visible;" />
			</clipPath>
			<g style="clip-path:url(#SVGID_00000151505311446749987910000006626312257823885495_);">

				<use xlink:href="#New_Symbol" width="29.5" height="31.2" x="-14.7" y="-15.6"
					transform="matrix(1 0 0 1 0 12.555)" style="overflow:visible;" />
			</g>
		</g>
		<g>
			<defs>
				<rect id="SVGID_00000080195554171439744540000008046373538351622831_" x="-14.7" y="-53.3" width="29.4"
					height="31.1" />
			</defs>
			<clipPath id="SVGID_00000088839386454160662470000017148122603246701217_">
				<use xlink:href="#SVGID_00000080195554171439744540000008046373538351622831_"
					style="overflow:visible;" />
			</clipPath>
			<g style="clip-path:url(#SVGID_00000088839386454160662470000017148122603246701217_);">

				<use xlink:href="#New_Symbol" width="29.5" height="31.2"
					id="XMLID_00000039818287374849393580000012872718364768590263_" x="-14.7" y="-15.6"
					transform="matrix(1 0 0 1 0 -37.685)" style="overflow:visible;" />
			</g>
		</g>
		<g>
			<defs>
				<rect id="SVGID_00000151545158897573999050000017810210344193986233_" x="28.7" y="22.1" width="29.4"
					height="31.1" />
			</defs>
			<clipPath id="SVGID_00000089562075570714622050000016146047501069143188_">
				<use xlink:href="#SVGID_00000151545158897573999050000017810210344193986233_"
					style="overflow:visible;" />
			</clipPath>
			<g style="clip-path:url(#SVGID_00000089562075570714622050000016146047501069143188_);">

				<use xlink:href="#New_Symbol" width="29.5" height="31.2" x="-14.7" y="-15.6"
					transform="matrix(1 0 0 1 43.44 37.685)" style="overflow:visible;" />
			</g>
		</g>
		<g>
			<defs>
				<rect id="SVGID_00000122000683926142278090000004058419470781704625_" x="-58.2" y="22.1" width="29.4"
					height="31.1" />
			</defs>
			<clipPath id="SVGID_00000156560036457517995840000003803300898877658006_">
				<use xlink:href="#SVGID_00000122000683926142278090000004058419470781704625_"
					style="overflow:visible;" />
			</clipPath>
			<g style="clip-path:url(#SVGID_00000156560036457517995840000003803300898877658006_);">

				<use xlink:href="#New_Symbol" width="29.5" height="31.2" x="-14.7" y="-15.6"
					transform="matrix(1 0 0 1 -43.44 37.685)" style="overflow:visible;" />
			</g>
		</g>

		<use xlink:href="#New_Symbol_1" width="1.3" height="19.1"
			id="XMLID_00000041268982533054808160000013563381372367892656_" x="-0.6" y="-9.6"
			transform="matrix(1 0 0 1 2.491834e-03 -12.6049)" style="overflow:visible;" />

		<use xlink:href="#New_Symbol_1" width="1.3" height="19.1" x="-0.6" y="-9.6"
			transform="matrix(-0.5 -0.866 0.866 -0.5 -21.7103 25.1196)" style="overflow:visible;" />

		<use xlink:href="#New_Symbol_1" width="1.3" height="19.1" x="-0.6" y="-9.6"
			transform="matrix(-0.5 0.866 -0.866 -0.5 21.7053 25.1155)" style="overflow:visible;" />
	</symbol>
	<use xlink:href="#New_Symbol_2" width="116.3" height="106.5"
		id="XMLID_00000033354208272358827880000004101951988622442625_" x="-58.2" y="-53.3"
		transform="matrix(1.64 0 0 1.64 95.3906 251.44)" style="overflow:visible;" />
	<use xlink:href="#New_Symbol_2" width="116.3" height="106.5"
		id="XMLID_00000145764355340892083200000001539324689944408750_" x="-58.2" y="-53.3"
		transform="matrix(1.64 0 0 1.64 1235.9034 251.44)" style="overflow:visible;" />
	<use xlink:href="#New_Symbol_2" width="116.3" height="106.5"
		id="XMLID_00000135668715913133089230000012049036440153831079_" x="-58.2" y="-53.3"
		transform="matrix(1.64 0 0 1.64 950.7753 251.44)" style="overflow:visible;" />
	<use xlink:href="#New_Symbol_2" width="116.3" height="106.5"
		id="XMLID_00000057111488196997670840000000951786666716773281_" x="-58.2" y="-53.3"
		transform="matrix(1.64 0 0 1.64 665.647 251.44)" style="overflow:visible;" />
	<use xlink:href="#New_Symbol_2" width="116.3" height="106.5"
		id="XMLID_00000176033321935741215900000007813440166289314437_" x="-58.2" y="-53.3"
		transform="matrix(1.64 0 0 1.64 380.5189 251.44)" style="overflow:visible;" />
	<use xlink:href="#New_Symbol_2" width="116.3" height="106.5"
		id="XMLID_00000090988933172001186800000016086338750981310631_" x="-58.2" y="-53.3"
		transform="matrix(1.64 0 0 1.64 950.7753 87.3627)" style="overflow:visible;" />
	<use xlink:href="#New_Symbol_2" width="116.3" height="106.5"
		id="XMLID_00000132793941974381752850000018286223248520040334_" x="-58.2" y="-53.3"
		transform="matrix(1.64 0 0 1.64 665.647 87.3627)" style="overflow:visible;" />
	<use xlink:href="#New_Symbol_2" width="116.3" height="106.5"
		id="XMLID_00000173137711837271937280000005976082856870042006_" x="-58.2" y="-53.3"
		transform="matrix(1.64 0 0 1.64 380.5189 87.3627)" style="overflow:visible;" />
	<use xlink:href="#New_Symbol_2" width="116.3" height="106.5"
		id="XMLID_00000159470564054632771280000011598819647206697101_" x="-58.2" y="-53.3"
		transform="matrix(1.64 0 0 1.64 237.9547 333.4786)" style="overflow:visible;" />
	<use xlink:href="#New_Symbol_2" width="116.3" height="106.5"
		id="XMLID_00000180338718529087275660000017289505491096841919_" x="-58.2" y="-53.3"
		transform="matrix(1.64 0 0 1.64 237.9547 169.4014)" style="overflow:visible;" />
	<use xlink:href="#New_Symbol_2" width="116.3" height="106.5"
		id="XMLID_00000039093188363907438540000012431174556743839416_" x="-58.2" y="-53.3"
		transform="matrix(1.64 0 0 1.64 523.0829 333.4786)" style="overflow:visible;" />
	<use xlink:href="#New_Symbol_2" width="116.3" height="106.5"
		id="XMLID_00000103248818144475415880000004639876659246945683_" x="-58.2" y="-53.3"
		transform="matrix(1.64 0 0 1.64 523.0829 169.4014)" style="overflow:visible;" />
	<use xlink:href="#New_Symbol_2" width="116.3" height="106.5"
		id="XMLID_00000017482436962566334070000005113710128886583711_" x="-58.2" y="-53.3"
		transform="matrix(1.64 0 0 1.64 808.2112 333.4786)" style="overflow:visible;" />
	<use xlink:href="#New_Symbol_2" width="116.3" height="106.5"
		id="XMLID_00000094596297460377424470000015654659103327980940_" x="-58.2" y="-53.3"
		transform="matrix(1.64 0 0 1.64 808.2112 169.4014)" style="overflow:visible;" />
	<use xlink:href="#New_Symbol_2" width="116.3" height="106.5"
		id="XMLID_00000139985370465868619260000015373981284752532367_" x="-58.2" y="-53.3"
		transform="matrix(1.64 0 0 1.64 1093.3394 333.4786)" style="overflow:visible;" />
	<use xlink:href="#New_Symbol_2" width="116.3" height="106.5"
		id="XMLID_00000083052420193791810270000000827215592739678613_" x="-58.2" y="-53.3"
		transform="matrix(1.64 0 0 1.64 1093.3394 169.4014)" style="overflow:visible;" />
	<use xlink:href="#New_Symbol_2" width="116.3" height="106.5"
		id="XMLID_00000036944477840871922150000000307292704056935863_" x="-58.2" y="-53.3"
		transform="matrix(1.64 0 0 1.64 950.7753 415.5173)" style="overflow:visible;" />
	<use xlink:href="#New_Symbol_2" width="116.3" height="106.5"
		id="XMLID_00000012470163045234047290000005657820832818422199_" x="-58.2" y="-53.3"
		transform="matrix(1.64 0 0 1.64 665.647 415.5173)" style="overflow:visible;" />
	<use xlink:href="#New_Symbol_2" width="116.3" height="106.5"
		id="XMLID_00000174593671381035203320000011905699350684312452_" x="-58.2" y="-53.3"
		transform="matrix(1.64 0 0 1.64 380.5189 415.5173)" style="overflow:visible;" />
</svg>