<svg id="Layer_1" data-name="Layer 1" xmlns="http://www.w3.org/2000/svg" xmlns:xlink="http://www.w3.org/1999/xlink"
    viewBox="0 0 463.6 206.83">
    <defs>
        <style>
            .cls-1,
            .cls-2 {
                fill: #E1E1E1;
            }

            .cls-1 {
                fill-rule: evenodd;
            }
        </style>
        <symbol id="New_Symbol" data-name="New Symbol" viewBox="0 0 29.44 31.14">
            <path class="cls-1"
                d="M24.2,25.58l-5.54,3.2a7.92,7.92,0,0,1-7.88,0l-5.54-3.2A7.93,7.93,0,0,1,1.3,18.74v-6.4A7.91,7.91,0,0,1,5.24,5.5l5.54-3.2a7.85,7.85,0,0,1,7.88,0L24.2,5.5a7.91,7.91,0,0,1,3.94,6.84v6.4A7.93,7.93,0,0,1,24.2,25.58ZM14.07,0a9,9,0,0,0-3.94,1.17L4.59,4.37a9.23,9.23,0,0,0-4.59,8v6.41a9.16,9.16,0,0,0,.94,4l.66,1.13a9.11,9.11,0,0,0,3,2.83l5.54,3.2a9.18,9.18,0,0,0,9.18,0l5.54-3.2a9.24,9.24,0,0,0,3-2.83l.65-1.13a9.16,9.16,0,0,0,.94-4V12.33a9.23,9.23,0,0,0-4.59-8l-5.54-3.2A9,9,0,0,0,15.37,0Z" />
        </symbol>
        <symbol id="New_Symbol_1" data-name="New Symbol 1" viewBox="0 0 1.3 19.15">
            <rect class="cls-2" width="1.3" height="19.15" />
        </symbol>
        <symbol id="New_Symbol_2" data-name="New Symbol 2" viewBox="0 0 116.32 106.51">
            <use width="29.44" height="31.14" transform="translate(43.44 50.24)" xlink:href="#New_Symbol" />
            <use width="29.44" height="31.14" transform="translate(43.44)" xlink:href="#New_Symbol" />
            <use width="29.44" height="31.14" transform="translate(86.88 75.37)" xlink:href="#New_Symbol" />
            <use width="29.44" height="31.14" transform="translate(0 75.37)" xlink:href="#New_Symbol" />
            <use width="1.3" height="19.15" transform="translate(57.51 31.09)" xlink:href="#New_Symbol_1" />
            <use width="1.3" height="19.15" transform="translate(28.48 83.74) rotate(-120)"
                xlink:href="#New_Symbol_1" />
            <use width="1.3" height="19.15" transform="translate(88.48 82.61) rotate(120)" xlink:href="#New_Symbol_1" />
        </symbol>
    </defs>
    <use width="116.32" height="106.51" transform="translate(173.64)" xlink:href="#New_Symbol_2" />
    <use width="116.32" height="106.51" transform="translate(173.64 100.32)" xlink:href="#New_Symbol_2" />
    <use width="116.32" height="106.51" transform="translate(260.52 50.16)" xlink:href="#New_Symbol_2" />
    <use width="116.32" height="106.51" xlink:href="#New_Symbol_2" />
    <use width="116.32" height="106.51" transform="translate(86.88 50.16)" xlink:href="#New_Symbol_2" />
    <use width="116.32" height="106.51" transform="translate(347.28)" xlink:href="#New_Symbol_2" />
</svg>