<svg width="1231" height="504" viewBox="0 0 1231 504" fill="none" xmlns="http://www.w3.org/2000/svg">
<path fill-rule="evenodd" clip-rule="evenodd" d="M1014.34 113.19C1014.34 117.802 1011.85 122.098 1007.86 124.404L998.767 129.655C994.774 131.961 989.812 131.961 985.818 129.655L976.724 124.404C972.729 122.1 970.248 117.802 970.248 113.19V102.689C970.248 98.0783 972.729 93.7802 976.724 91.4742L985.818 86.2253C987.777 85.0935 990.015 84.4958 992.293 84.4958C994.568 84.4958 996.808 85.0935 998.767 86.2253L1007.86 91.4742C1011.85 93.7817 1014.34 98.0783 1014.34 102.689V113.19ZM1008.93 89.6204L999.837 84.37C995.268 81.7334 989.316 81.7334 984.748 84.37L975.654 89.6204C971.001 92.3067 968.109 97.3141 968.109 102.687V113.188C968.109 118.562 971.001 123.569 975.654 126.255L984.748 131.506C986.755 132.665 988.975 133.293 991.222 133.451V149.134H993.361V133.451C995.608 133.293 997.828 132.665 999.837 131.506L1008.93 126.255C1013.58 123.568 1016.47 118.562 1016.47 113.188V102.687C1016.47 97.3141 1013.58 92.3082 1008.93 89.6204Z" fill="#E1E1E1"/>
<path fill-rule="evenodd" clip-rule="evenodd" d="M937.575 130.817L928.481 125.566C926.196 124.247 923.588 123.552 920.937 123.552V125.69C923.212 125.69 925.452 126.288 927.411 127.42L936.505 132.67C940.498 134.975 942.981 139.273 942.981 143.885V149.134H945.119V143.885C945.119 138.511 942.228 133.503 937.575 130.817Z" fill="#E1E1E1"/>
<path fill-rule="evenodd" clip-rule="evenodd" d="M1222.81 295.316L1213.71 290.066C1211.43 288.747 1208.82 288.051 1206.17 288.051V290.189C1208.44 290.189 1210.68 290.787 1212.64 291.919L1221.74 297.169C1225.73 299.474 1228.21 303.772 1228.21 308.384V313.633H1230.35V308.384C1230.35 303.01 1227.46 298.002 1222.81 295.316Z" fill="#E1E1E1"/>
<path fill-rule="evenodd" clip-rule="evenodd" d="M1014.34 277.688C1014.34 282.3 1011.85 286.597 1007.86 288.903L998.767 294.153C994.774 296.459 989.812 296.459 985.818 294.153L976.724 288.903C972.729 286.598 970.248 282.3 970.248 277.688V267.187C970.248 262.577 972.729 258.279 976.724 255.973L985.818 250.724C987.777 249.592 990.015 248.994 992.293 248.994C994.568 248.994 996.808 249.592 998.767 250.724L1007.86 255.973C1011.85 258.28 1014.34 262.577 1014.34 267.187V277.688ZM1008.93 254.119L999.837 248.869C995.268 246.232 989.316 246.232 984.748 248.869L975.654 254.119C971.001 256.806 968.109 261.813 968.109 267.186V277.687C968.109 283.061 971.001 288.068 975.654 290.754L984.748 296.005C986.755 297.164 988.975 297.792 991.222 297.95V313.633H993.361V297.95C995.608 297.792 997.828 297.164 999.837 296.005L1008.93 290.754C1013.58 288.067 1016.47 283.061 1016.47 277.687V267.186C1016.47 261.813 1013.58 256.807 1008.93 254.119Z" fill="#E1E1E1"/>
<mask id="mask0_5682_420286" style="mask-type:luminance" maskUnits="userSpaceOnUse" x="920" y="148" width="168" height="109">
<path fill-rule="evenodd" clip-rule="evenodd" d="M920.937 148.846H1087.83V256.822H920.937V148.846Z" fill="white"/>
</mask>
<g mask="url(#mask0_5682_420286)">
<path fill-rule="evenodd" clip-rule="evenodd" d="M970.249 184.793C970.249 180.181 972.73 175.884 976.724 173.578L985.817 168.328C987.776 167.196 990.016 166.599 992.291 166.599C994.57 166.599 996.808 167.196 998.766 168.328L1007.86 173.578C1011.85 175.884 1014.34 180.181 1014.34 184.793V195.294C1014.34 199.904 1011.85 204.201 1007.86 206.508L998.766 211.757C994.772 214.065 989.81 214.065 985.817 211.757L976.724 206.508C972.73 204.202 970.249 199.904 970.249 195.294V184.793ZM1048.08 214.775L1057.17 209.524C1059.17 208.371 1061.41 207.795 1063.65 207.795C1065.89 207.795 1068.13 208.371 1070.12 209.524L1079.22 214.775C1083.21 217.081 1085.69 221.377 1085.69 225.989V236.489C1085.69 241.102 1083.21 245.399 1079.22 247.705L1070.12 252.955C1066.13 255.26 1061.17 255.26 1057.17 252.955L1048.08 247.705C1046.12 246.573 1044.48 244.933 1043.34 242.96C1042.21 240.989 1041.6 238.752 1041.6 236.49V225.989C1041.6 221.377 1044.09 217.081 1048.08 214.775ZM970.731 203.725C971.993 205.592 973.646 207.201 975.654 208.36L984.747 213.61C987.074 214.953 989.682 215.625 992.291 215.625C994.901 215.625 997.51 214.953 999.836 213.61L1008.93 208.36C1010.94 207.201 1012.59 205.592 1013.85 203.725L1041.02 219.41C1040.03 221.435 1039.47 223.672 1039.47 225.99V236.491C1039.47 239.127 1040.17 241.735 1041.49 244.03C1042.82 246.327 1044.73 248.238 1047.01 249.557L1056.1 254.807C1058.43 256.15 1061.04 256.822 1063.65 256.822C1066.26 256.822 1068.87 256.15 1071.19 254.807L1080.29 249.557C1084.94 246.871 1087.83 241.863 1087.83 236.489V225.99C1087.83 220.616 1084.94 215.608 1080.29 212.922L1071.19 207.673C1066.54 204.985 1060.76 204.985 1056.1 207.672L1047.01 212.922C1045 214.082 1043.35 215.69 1042.09 217.557L1014.92 201.873C1015.91 199.848 1016.47 197.611 1016.47 195.293V184.793C1016.47 179.418 1013.58 174.412 1008.93 171.725L999.836 166.474C997.863 165.335 995.63 164.719 993.361 164.565V148.846H991.223V164.565C988.956 164.719 986.721 165.335 984.747 166.474L975.654 171.725C971.002 174.412 968.11 179.418 968.11 184.793V195.293C968.11 197.611 968.676 199.848 969.661 201.872L942.498 217.557C941.236 215.69 939.582 214.081 937.575 212.922L928.481 207.673C926.197 206.354 923.588 205.657 920.937 205.657V207.795C923.212 207.795 925.452 208.394 927.411 209.525L936.505 214.775C940.5 217.081 942.981 221.378 942.981 225.99V236.489C942.981 241.101 940.5 245.399 936.505 247.705L927.412 252.956C925.452 254.086 923.212 254.684 920.937 254.684V256.822C923.588 256.822 926.196 256.126 928.481 254.807L937.575 249.557C942.228 246.871 945.119 241.863 945.119 236.489V225.99C945.119 223.672 944.553 221.435 943.566 219.41L970.731 203.725Z" fill="#E1E1E1"/>
</g>
<mask id="mask1_5682_420286" style="mask-type:luminance" maskUnits="userSpaceOnUse" x="920" y="148" width="26" height="27">
<path fill-rule="evenodd" clip-rule="evenodd" d="M920.937 148.845H945.119V174.428H920.937V148.845Z" fill="white"/>
</mask>
<g mask="url(#mask1_5682_420286)">
<path fill-rule="evenodd" clip-rule="evenodd" d="M937.575 167.164C942.228 164.477 945.119 159.469 945.119 154.097V148.846H942.981V154.097C942.981 158.709 940.498 163.005 936.505 165.311L927.411 170.562C925.452 171.692 923.212 172.291 920.937 172.291V174.43C923.588 174.43 926.196 173.732 928.481 172.415L937.575 167.164Z" fill="#E1E1E1"/>
</g>
<path fill-rule="evenodd" clip-rule="evenodd" d="M937.575 295.316L928.481 290.066C926.196 288.747 923.588 288.051 920.937 288.051V290.189C923.212 290.189 925.452 290.787 927.411 291.919L936.505 297.169C940.498 299.474 942.981 303.772 942.981 308.384V313.633H945.119V308.384C945.119 303.01 942.228 298.002 937.575 295.316Z" fill="#E1E1E1"/>
<mask id="mask2_5682_420286" style="mask-type:luminance" maskUnits="userSpaceOnUse" x="1039" y="164" width="168" height="150">
<path fill-rule="evenodd" clip-rule="evenodd" d="M1039.47 164.497H1206.36V313.634H1039.47V164.497Z" fill="white"/>
</mask>
<g mask="url(#mask2_5682_420286)">
<path fill-rule="evenodd" clip-rule="evenodd" d="M1150.57 288.902L1141.48 294.152C1137.48 296.457 1132.52 296.457 1128.53 294.152L1119.44 288.902C1115.44 286.597 1112.96 282.299 1112.96 277.687V267.186C1112.96 262.576 1115.44 258.278 1119.44 255.972L1128.53 250.723C1130.49 249.591 1132.73 248.993 1135 248.993C1137.28 248.993 1139.52 249.591 1141.48 250.723L1150.57 255.972C1154.57 258.278 1157.05 262.576 1157.05 267.186V277.687C1157.05 282.299 1154.57 286.596 1150.57 288.902ZM1119.44 206.508C1115.44 204.202 1112.96 199.905 1112.96 195.293V184.794C1112.96 180.182 1115.44 175.884 1119.44 173.578L1128.53 168.327C1130.49 167.197 1132.73 166.599 1135 166.599C1137.28 166.599 1139.52 167.197 1141.48 168.327L1150.57 173.578C1154.57 175.884 1157.05 180.18 1157.05 184.794V195.293C1157.05 199.905 1154.57 204.202 1150.57 206.508L1141.48 211.758C1137.49 214.064 1132.52 214.065 1128.53 211.758L1119.44 206.508ZM1189.72 295.317C1187.71 296.476 1186.06 298.083 1184.8 299.95L1157.64 284.267C1158.62 282.242 1159.19 280.005 1159.19 277.687V267.186C1159.19 261.814 1156.3 256.806 1151.64 254.12L1142.55 248.869C1140.58 247.73 1138.34 247.114 1136.07 246.959V215.556C1138.32 215.396 1140.54 214.768 1142.55 213.609L1151.64 208.36C1156.3 205.673 1159.19 200.665 1159.19 195.293V184.793C1159.19 179.419 1156.3 174.412 1151.64 171.725L1142.55 166.475C1137.99 163.839 1132.03 163.837 1127.46 166.475L1118.37 171.725C1113.71 174.412 1110.82 179.419 1110.82 184.793V195.293C1110.82 200.667 1113.71 205.674 1118.37 208.36L1127.46 213.609C1129.47 214.768 1131.69 215.396 1133.93 215.556V246.959C1131.67 247.114 1129.43 247.73 1127.46 248.869L1118.37 254.12C1113.71 256.806 1110.82 261.814 1110.82 267.186V277.687C1110.82 280.005 1111.39 282.242 1112.37 284.269L1085.21 299.95C1083.95 298.083 1082.29 296.476 1080.29 295.317L1071.19 290.067C1066.54 287.379 1060.76 287.38 1056.1 290.067L1047.01 295.317C1042.36 298.003 1039.47 303.011 1039.47 308.383V313.634H1041.61V308.383C1041.61 303.773 1044.09 299.475 1048.08 297.17L1057.17 291.92C1061.17 289.614 1066.13 289.614 1070.12 291.92L1079.22 297.17C1083.21 299.475 1085.69 303.773 1085.69 308.385V313.634H1087.83V308.385C1087.83 306.065 1087.27 303.829 1086.28 301.804L1113.44 286.12C1114.7 287.987 1116.36 289.594 1118.37 290.755L1127.46 296.005C1129.79 297.348 1132.4 298.02 1135 298.02C1137.61 298.02 1140.22 297.348 1142.55 296.005L1151.64 290.755C1153.65 289.594 1155.3 287.987 1156.57 286.12L1183.73 301.804C1182.74 303.829 1182.18 306.065 1182.18 308.385V313.634H1184.32V308.385C1184.32 303.773 1186.8 299.475 1190.79 297.17L1199.89 291.92C1201.84 290.788 1204.08 290.19 1206.36 290.19V288.052C1203.71 288.052 1201.1 288.748 1198.82 290.067L1189.72 295.317Z" fill="#E1E1E1"/>
</g>
<mask id="mask3_5682_420286" style="mask-type:luminance" maskUnits="userSpaceOnUse" x="1039" y="313" width="49" height="26">
<path fill-rule="evenodd" clip-rule="evenodd" d="M1039.47 313.346H1087.83V338.929H1039.47V313.346Z" fill="white"/>
</mask>
<g mask="url(#mask3_5682_420286)">
<path fill-rule="evenodd" clip-rule="evenodd" d="M1047.01 331.663L1056.1 336.914C1058.43 338.257 1061.04 338.929 1063.65 338.929C1066.26 338.927 1068.87 338.257 1071.19 336.914L1080.29 331.663C1084.94 328.977 1087.83 323.97 1087.83 318.596V313.345H1085.69V318.596C1085.69 323.208 1083.21 327.506 1079.22 329.81L1070.12 335.061C1066.13 337.368 1061.17 337.367 1057.17 335.061L1048.08 329.81C1046.12 328.68 1044.48 327.039 1043.35 325.067C1042.21 323.096 1041.6 320.859 1041.6 318.596V313.345H1039.47V318.596C1039.47 321.234 1040.17 323.841 1041.49 326.137C1042.82 328.434 1044.73 330.344 1047.01 331.663Z" fill="#E1E1E1"/>
</g>
<mask id="mask4_5682_420286" style="mask-type:luminance" maskUnits="userSpaceOnUse" x="920" y="313" width="168" height="109">
<path fill-rule="evenodd" clip-rule="evenodd" d="M920.937 313.346H1087.83V421.322H920.937V313.346Z" fill="white"/>
</mask>
<g mask="url(#mask4_5682_420286)">
<path fill-rule="evenodd" clip-rule="evenodd" d="M970.248 349.293C970.248 344.681 972.729 340.384 976.724 338.078L985.817 332.828C987.776 331.696 990.015 331.098 992.291 331.098C994.57 331.098 996.808 331.696 998.765 332.828L1007.86 338.078C1011.85 340.384 1014.34 344.681 1014.34 349.293V359.793C1014.34 364.404 1011.85 368.701 1007.86 371.008L998.765 376.257C994.772 378.565 989.81 378.565 985.817 376.257L976.724 371.008C972.729 368.702 970.248 364.404 970.248 359.793V349.293ZM1048.08 379.274L1057.17 374.023C1059.17 372.87 1061.41 372.294 1063.65 372.294C1065.89 372.294 1068.13 372.87 1070.12 374.023L1079.22 379.274C1083.21 381.58 1085.69 385.876 1085.69 390.488V400.988C1085.69 405.601 1083.21 409.898 1079.22 412.204L1070.12 417.454C1066.13 419.759 1061.17 419.759 1057.17 417.454L1048.08 412.204C1046.12 411.072 1044.48 409.431 1043.34 407.459C1042.21 405.488 1041.6 403.251 1041.6 400.989V390.488C1041.6 385.876 1044.09 381.58 1048.08 379.274ZM970.731 368.225C971.993 370.092 973.646 371.701 975.654 372.86L984.747 378.11C987.074 379.453 989.682 380.125 992.291 380.125C994.901 380.125 997.51 379.453 999.836 378.11L1008.93 372.86C1010.94 371.701 1012.59 370.092 1013.85 368.225L1041.02 383.91C1040.03 385.935 1039.47 388.172 1039.47 390.49V400.991C1039.47 403.627 1040.17 406.235 1041.49 408.53C1042.82 410.827 1044.73 412.738 1047.01 414.057L1056.1 419.307C1058.43 420.65 1061.04 421.322 1063.65 421.322C1066.26 421.322 1068.87 420.65 1071.19 419.307L1080.29 414.057C1084.94 411.371 1087.83 406.363 1087.83 400.989V390.49C1087.83 385.116 1084.94 380.108 1080.29 377.422L1071.19 372.173C1066.54 369.485 1060.76 369.485 1056.1 372.172L1047.01 377.422C1045 378.582 1043.35 380.19 1042.09 382.057L1014.92 366.373C1015.91 364.348 1016.47 362.111 1016.47 359.793V349.293C1016.47 343.918 1013.58 338.912 1008.93 336.225L999.836 330.974C997.863 329.835 995.63 329.219 993.361 329.065V313.346H991.223V329.065C988.956 329.219 986.721 329.835 984.747 330.974L975.654 336.225C971.002 338.912 968.11 343.918 968.11 349.293V359.793C968.11 362.111 968.676 364.348 969.661 366.372L942.498 382.057C941.236 380.19 939.582 378.581 937.575 377.422L928.481 372.173C926.197 370.854 923.588 370.157 920.937 370.157V372.295C923.212 372.295 925.452 372.894 927.411 374.025L936.505 379.275C940.5 381.581 942.981 385.878 942.981 390.49V400.989C942.981 405.601 940.5 409.899 936.505 412.205L927.412 417.456C925.452 418.586 923.212 419.184 920.937 419.184V421.322C923.588 421.322 926.196 420.626 928.481 419.307L937.575 414.057C942.228 411.371 945.119 406.363 945.119 400.989V390.49C945.119 388.172 944.553 385.935 943.566 383.91L970.731 368.225Z" fill="#E1E1E1"/>
</g>
<mask id="mask5_5682_420286" style="mask-type:luminance" maskUnits="userSpaceOnUse" x="920" y="313" width="26" height="26">
<path fill-rule="evenodd" clip-rule="evenodd" d="M920.937 313.346H945.119V338.929H920.937V313.346Z" fill="white"/>
</mask>
<g mask="url(#mask5_5682_420286)">
<path fill-rule="evenodd" clip-rule="evenodd" d="M937.575 331.664C942.228 328.976 945.119 323.969 945.119 318.596V313.346H942.981V318.596C942.981 323.208 940.498 327.505 936.505 329.811L927.411 335.061C925.452 336.191 923.212 336.791 920.937 336.791V338.929C923.588 338.929 926.196 338.232 928.481 336.914L937.575 331.664Z" fill="#E1E1E1"/>
</g>
<path fill-rule="evenodd" clip-rule="evenodd" d="M937.575 459.816L928.481 454.566C926.196 453.247 923.588 452.551 920.937 452.551V454.689C923.212 454.689 925.452 455.287 927.411 456.419L936.505 461.669C940.498 463.974 942.981 468.272 942.981 472.884V478.133H945.119V472.884C945.119 467.51 942.228 462.502 937.575 459.816Z" fill="#E1E1E1"/>
<mask id="mask6_5682_420286" style="mask-type:luminance" maskUnits="userSpaceOnUse" x="1182" y="313" width="25" height="26">
<path fill-rule="evenodd" clip-rule="evenodd" d="M1182.18 313.346H1206.36V338.928H1182.18V313.346Z" fill="white"/>
</mask>
<g mask="url(#mask6_5682_420286)">
<path fill-rule="evenodd" clip-rule="evenodd" d="M1199.88 335.062L1190.79 329.811C1186.8 327.505 1184.32 323.209 1184.32 318.597V313.346H1182.18V318.597C1182.18 323.969 1185.07 328.977 1189.72 331.664L1198.81 336.915C1201.1 338.232 1203.71 338.93 1206.36 338.93V336.791C1204.08 336.791 1201.84 336.193 1199.88 335.062Z" fill="#E1E1E1"/>
</g>
<mask id="mask7_5682_420286" style="mask-type:luminance" maskUnits="userSpaceOnUse" x="1206" y="313" width="25" height="26">
<path fill-rule="evenodd" clip-rule="evenodd" d="M1206.17 313.346H1230.35V338.929H1206.17V313.346Z" fill="white"/>
</mask>
<g mask="url(#mask7_5682_420286)">
<path fill-rule="evenodd" clip-rule="evenodd" d="M1222.81 331.663C1227.46 328.976 1230.35 323.968 1230.35 318.596V313.345H1228.21V318.596C1228.21 323.208 1225.73 327.504 1221.74 329.81L1212.64 335.061C1210.68 336.191 1208.44 336.79 1206.17 336.79V338.929C1208.82 338.929 1211.43 338.231 1213.71 336.914L1222.81 331.663Z" fill="#E1E1E1"/>
</g>
<mask id="mask8_5682_420286" style="mask-type:luminance" maskUnits="userSpaceOnUse" x="920" y="477" width="26" height="27">
<path fill-rule="evenodd" clip-rule="evenodd" d="M920.937 477.848H945.119V503.431H920.937V477.848Z" fill="white"/>
</mask>
<g mask="url(#mask8_5682_420286)">
<path fill-rule="evenodd" clip-rule="evenodd" d="M937.575 496.166C942.228 493.478 945.119 488.471 945.119 483.098V477.848H942.981V483.098C942.981 487.71 940.498 492.007 936.505 494.313L927.411 499.563C925.452 500.693 923.212 501.293 920.937 501.293V503.431C923.588 503.431 926.196 502.734 928.481 501.416L937.575 496.166Z" fill="#E1E1E1"/>
</g>
<path fill-rule="evenodd" clip-rule="evenodd" d="M729.103 113.191C729.103 117.803 726.622 122.1 722.627 124.406L713.535 129.656C709.541 131.962 704.579 131.962 700.586 129.656L691.492 124.406C687.497 122.102 685.016 117.803 685.016 113.191V102.691C685.016 98.0801 687.497 93.782 691.492 91.476L700.586 86.2271C702.545 85.0953 704.783 84.4976 707.06 84.4976C709.336 84.4976 711.576 85.0953 713.535 86.2271L722.627 91.476C726.622 93.7835 729.103 98.0801 729.103 102.691V113.191ZM723.697 89.6218L714.604 84.3714C710.036 81.7349 704.084 81.7349 699.516 84.3714L690.421 89.6218C685.769 92.3081 682.877 97.3156 682.877 102.688V113.189C682.877 118.563 685.769 123.571 690.421 126.257L699.516 131.507C701.523 132.666 703.743 133.294 705.99 133.453V149.136H708.128V133.453C710.375 133.294 712.595 132.666 714.604 131.507L723.697 126.257C728.35 123.569 731.241 118.563 731.241 113.189V102.688C731.241 97.3156 728.351 92.3096 723.697 89.6218Z" fill="#E1E1E1"/>
<mask id="mask9_5682_420286" style="mask-type:luminance" maskUnits="userSpaceOnUse" x="754" y="0" width="168" height="150">
<path fill-rule="evenodd" clip-rule="evenodd" d="M754.233 0H921.126V149.137H754.233V0Z" fill="white"/>
</mask>
<g mask="url(#mask9_5682_420286)">
<path fill-rule="evenodd" clip-rule="evenodd" d="M865.338 124.405L856.245 129.655C852.251 131.96 847.29 131.96 843.297 129.655L834.202 124.405C830.209 122.101 827.728 117.802 827.728 113.19V102.69C827.728 98.0791 830.209 93.781 834.202 91.475L843.297 86.2261C845.254 85.0942 847.494 84.4966 849.771 84.4966C852.048 84.4966 854.288 85.0942 856.245 86.2261L865.338 91.475C869.333 93.781 871.814 98.0791 871.814 102.69V113.19C871.814 117.802 869.333 122.099 865.338 124.405ZM834.202 42.01C830.209 39.704 827.728 35.4074 827.728 30.7953V20.2961C827.728 15.6841 830.209 11.386 834.202 9.07995L843.297 3.82956C845.254 2.69919 847.494 2.10156 849.771 2.10156C852.048 2.10156 854.288 2.69919 856.245 3.82956L865.338 9.07995C869.333 11.386 871.814 15.6826 871.814 20.2961V30.7953C871.814 35.4074 869.333 39.704 865.338 42.01L856.245 47.2604C852.252 49.5664 847.291 49.5679 843.297 47.2604L834.202 42.01ZM904.488 130.82C902.48 131.979 900.828 133.586 899.566 135.453L872.403 119.77C873.388 117.745 873.954 115.508 873.954 113.19V102.689C873.954 97.3165 871.063 92.3091 866.408 89.6228L857.316 84.3724C855.343 83.233 853.108 82.6173 850.841 82.4618V51.0591C853.087 50.8991 855.307 50.2713 857.316 49.1122L866.408 43.8634C871.063 41.1755 873.954 36.1681 873.954 30.7955V20.2962C873.954 14.9221 871.063 9.91466 866.408 7.22834L857.316 1.97795C852.752 -0.658563 846.792 -0.660072 842.227 1.97795L833.133 7.22834C828.48 9.91466 825.588 14.9221 825.588 20.2962V30.7955C825.588 36.1696 828.48 41.177 833.133 43.8634L842.227 49.1122C844.236 50.2713 846.454 50.8991 848.701 51.0591V82.4618C846.434 82.6173 844.199 83.233 842.227 84.3724L833.133 89.6228C828.48 92.3091 825.588 97.3165 825.588 102.689V113.19C825.588 115.508 826.154 117.745 827.14 119.771L799.975 135.453C798.715 133.586 797.061 131.979 795.053 130.82L785.959 125.57C781.303 122.882 775.523 122.883 770.87 125.57L761.776 130.82C757.123 133.506 754.233 138.514 754.233 143.886V149.137H756.372V143.886C756.372 139.276 758.853 134.978 762.846 132.673L771.94 127.423C775.934 125.117 780.896 125.117 784.889 127.423L793.983 132.673C797.977 134.978 800.458 139.276 800.458 143.888V149.137H802.598V143.888C802.598 141.568 802.032 139.332 801.045 137.306L828.21 121.623C829.471 123.49 831.125 125.097 833.133 126.258L842.227 131.508C844.554 132.851 847.162 133.523 849.771 133.523C852.379 133.523 854.988 132.851 857.316 131.508L866.408 126.258C868.417 125.097 870.071 123.49 871.333 121.623L898.496 137.306C897.509 139.332 896.943 141.568 896.943 143.888V149.137H899.083V143.888C899.083 139.276 901.564 134.978 905.558 132.673L914.652 127.423C916.611 126.291 918.85 125.693 921.128 125.693V123.555C918.475 123.555 915.865 124.251 913.582 125.57L904.488 130.82Z" fill="#E1E1E1"/>
</g>
<mask id="mask10_5682_420286" style="mask-type:luminance" maskUnits="userSpaceOnUse" x="754" y="148" width="49" height="27">
<path fill-rule="evenodd" clip-rule="evenodd" d="M754.233 148.846H802.598V174.429H754.233V148.846Z" fill="white"/>
</mask>
<g mask="url(#mask10_5682_420286)">
<path fill-rule="evenodd" clip-rule="evenodd" d="M761.778 167.165L770.872 172.416C773.199 173.759 775.807 174.431 778.416 174.431C781.024 174.429 783.633 173.759 785.961 172.416L795.053 167.165C799.706 164.479 802.598 159.472 802.598 154.098V148.847H800.458V154.098C800.458 158.71 797.978 163.008 793.983 165.312L784.891 170.563C780.896 172.87 775.934 172.869 771.942 170.563L762.848 165.312C760.889 164.182 759.251 162.541 758.113 160.569C756.974 158.598 756.372 156.361 756.372 154.098V148.847H754.233V154.098C754.233 156.736 754.935 159.343 756.26 161.639C757.587 163.936 759.494 165.846 761.778 167.165Z" fill="#E1E1E1"/>
</g>
<path fill-rule="evenodd" clip-rule="evenodd" d="M729.103 277.688C729.103 282.3 726.622 286.597 722.627 288.903L713.535 294.153C709.541 296.459 704.579 296.459 700.586 294.153L691.492 288.903C687.497 286.598 685.016 282.3 685.016 277.688V267.187C685.016 262.577 687.497 258.279 691.492 255.973L700.586 250.724C702.545 249.592 704.783 248.994 707.06 248.994C709.336 248.994 711.576 249.592 713.535 250.724L722.627 255.973C726.622 258.28 729.103 262.577 729.103 267.187V277.688ZM723.697 254.119L714.604 248.869C710.036 246.232 704.084 246.232 699.516 248.869L690.421 254.119C685.769 256.806 682.877 261.813 682.877 267.186V277.687C682.877 283.061 685.769 288.068 690.421 290.754L699.516 296.005C701.523 297.164 703.743 297.792 705.99 297.95V313.633H708.128V297.95C710.375 297.792 712.595 297.164 714.604 296.005L723.697 290.754C728.35 288.067 731.241 283.061 731.241 277.687V267.186C731.241 261.813 728.351 256.807 723.697 254.119Z" fill="#E1E1E1"/>
<mask id="mask11_5682_420286" style="mask-type:luminance" maskUnits="userSpaceOnUse" x="635" y="148" width="168" height="109">
<path fill-rule="evenodd" clip-rule="evenodd" d="M635.704 148.846H802.598V256.822H635.704V148.846Z" fill="white"/>
</mask>
<g mask="url(#mask11_5682_420286)">
<path fill-rule="evenodd" clip-rule="evenodd" d="M685.016 184.793C685.016 180.181 687.497 175.884 691.492 173.578L700.585 168.328C702.543 167.196 704.783 166.598 707.059 166.598C709.338 166.598 711.576 167.196 713.533 168.328L722.627 173.578C726.622 175.884 729.103 180.181 729.103 184.793V195.294C729.103 199.904 726.622 204.201 722.627 206.508L713.533 211.757C709.54 214.065 704.578 214.065 700.585 211.757L691.492 206.508C687.497 204.202 685.016 199.904 685.016 195.294V184.793ZM762.847 214.775L771.941 209.525C773.938 208.372 776.176 207.795 778.415 207.795C780.655 207.795 782.893 208.372 784.89 209.525L793.984 214.775C797.977 217.081 800.458 221.378 800.458 225.99V236.489C800.458 241.103 797.977 245.399 793.984 247.705L784.89 252.956C780.896 255.26 775.934 255.26 771.941 252.956L762.847 247.705C760.888 246.574 759.25 244.933 758.113 242.961C756.975 240.99 756.372 238.753 756.372 236.491V225.99C756.372 221.378 758.854 217.081 762.847 214.775ZM685.499 203.725C686.761 205.592 688.413 207.201 690.422 208.36L699.515 213.61C701.842 214.953 704.45 215.625 707.059 215.625C709.668 215.625 712.278 214.953 714.603 213.61L723.698 208.36C725.706 207.201 727.359 205.592 728.62 203.725L755.785 219.41C754.8 221.435 754.234 223.672 754.234 225.99V236.491C754.234 239.127 754.934 241.735 756.261 244.03C757.586 246.327 759.494 248.238 761.777 249.557L770.871 254.807C773.198 256.15 775.806 256.822 778.415 256.822C781.025 256.822 783.633 256.15 785.96 254.807L795.054 249.557C799.707 246.871 802.598 241.863 802.598 236.489V225.99C802.598 220.616 799.707 215.608 795.054 212.922L785.96 207.673C781.305 204.985 775.524 204.985 770.871 207.672L761.777 212.922C759.77 214.082 758.116 215.69 756.855 217.557L729.69 201.873C730.676 199.848 731.242 197.611 731.242 195.293V184.793C731.242 179.418 728.35 174.412 723.698 171.725L714.603 166.474C712.631 165.335 710.397 164.719 708.129 164.565V148.846H705.991V164.565C703.724 164.719 701.489 165.335 699.515 166.474L690.422 171.725C685.769 174.412 682.878 179.418 682.878 184.793V195.293C682.878 197.611 683.444 199.848 684.429 201.872L657.266 217.557C656.004 215.69 654.35 214.081 652.343 212.922L643.248 207.673C640.965 206.354 638.356 205.657 635.704 205.657V207.795C637.98 207.795 640.22 208.394 642.178 209.525L651.273 214.775C655.267 217.081 657.749 221.378 657.749 225.99V236.489C657.749 241.101 655.267 245.399 651.273 247.705L642.18 252.956C640.22 254.086 637.98 254.684 635.704 254.684V256.822C638.356 256.822 640.964 256.126 643.248 254.807L652.343 249.557C656.995 246.871 659.887 241.863 659.887 236.489V225.99C659.887 223.672 659.321 221.435 658.334 219.41L685.499 203.725Z" fill="#E1E1E1"/>
</g>
<path fill-rule="evenodd" clip-rule="evenodd" d="M652.343 295.317L643.248 290.067C640.964 288.748 638.356 288.052 635.704 288.052V290.191C637.98 290.191 640.22 290.788 642.178 291.92L651.273 297.171C655.266 299.475 657.749 303.773 657.749 308.385V313.634H659.887V308.385C659.887 303.011 656.995 298.004 652.343 295.317Z" fill="#E1E1E1"/>
<mask id="mask12_5682_420286" style="mask-type:luminance" maskUnits="userSpaceOnUse" x="896" y="148" width="26" height="27">
<path fill-rule="evenodd" clip-rule="evenodd" d="M896.945 148.846H921.127V174.428H896.945V148.846Z" fill="white"/>
</mask>
<g mask="url(#mask12_5682_420286)">
<path fill-rule="evenodd" clip-rule="evenodd" d="M914.652 170.563L905.56 165.312C901.565 163.006 899.085 158.71 899.085 154.098V148.847H896.945V154.098C896.945 159.47 899.837 164.478 904.49 167.165L913.582 172.416C915.867 173.733 918.475 174.431 921.128 174.431V172.292C918.851 172.292 916.611 171.694 914.652 170.563Z" fill="#E1E1E1"/>
</g>
<mask id="mask13_5682_420286" style="mask-type:luminance" maskUnits="userSpaceOnUse" x="896" y="205" width="26" height="52">
<path fill-rule="evenodd" clip-rule="evenodd" d="M896.944 205.66H921.127V256.825H896.944V205.66Z" fill="white"/>
</mask>
<g mask="url(#mask13_5682_420286)">
<path fill-rule="evenodd" clip-rule="evenodd" d="M904.489 212.925C899.836 215.613 896.944 220.621 896.944 225.993V236.492C896.944 241.865 899.836 246.872 904.489 249.56L913.583 254.811C915.866 256.128 918.476 256.825 921.127 256.825V254.687C918.851 254.687 916.612 254.089 914.653 252.957L905.559 247.707C901.565 245.401 899.084 241.103 899.084 236.492V225.993C899.084 221.383 901.565 217.085 905.559 214.779L914.651 209.528C916.61 208.398 918.851 207.799 921.127 207.799V205.66C918.476 205.66 915.866 206.357 913.581 207.675L904.489 212.925Z" fill="#E1E1E1"/>
</g>
<mask id="mask14_5682_420286" style="mask-type:luminance" maskUnits="userSpaceOnUse" x="753" y="164" width="168" height="150">
<path fill-rule="evenodd" clip-rule="evenodd" d="M753.991 164.479H920.884V313.615H753.991V164.479Z" fill="white"/>
</mask>
<g mask="url(#mask14_5682_420286)">
<path fill-rule="evenodd" clip-rule="evenodd" d="M865.338 288.903L856.246 294.154C852.251 296.458 847.29 296.458 843.297 294.154L834.203 288.903C830.209 286.599 827.728 282.301 827.728 277.689V267.188C827.728 262.577 830.209 258.279 834.203 255.973L843.297 250.724C845.254 249.592 847.494 248.995 849.771 248.995C852.049 248.995 854.288 249.592 856.246 250.724L865.338 255.973C869.333 258.279 871.814 262.577 871.814 267.188V277.689C871.814 282.301 869.333 286.597 865.338 288.903ZM834.203 206.508C830.209 204.202 827.728 199.906 827.728 195.294V184.794C827.728 180.182 830.209 175.884 834.203 173.578L843.297 168.328C845.254 167.197 847.494 166.6 849.771 166.6C852.049 166.6 854.288 167.197 856.246 168.328L865.338 173.578C869.333 175.884 871.814 180.181 871.814 184.794V195.294C871.814 199.906 869.333 204.202 865.338 206.508L856.246 211.759C852.252 214.065 847.292 214.066 843.297 211.759L834.203 206.508ZM904.488 295.319C902.48 296.478 900.828 298.085 899.566 299.952L872.403 284.268C873.388 282.243 873.954 280.007 873.954 277.688V267.188C873.954 261.815 871.063 256.808 866.408 254.121L857.316 248.871C855.343 247.732 853.108 247.116 850.841 246.96V215.558C853.087 215.398 855.307 214.77 857.316 213.611L866.408 208.362C871.063 205.674 873.954 200.667 873.954 195.294V184.795C873.954 179.421 871.063 174.413 866.408 171.727L857.316 166.476C852.752 163.84 846.792 163.838 842.227 166.476L833.133 171.727C828.48 174.413 825.588 179.421 825.588 184.795V195.294C825.588 200.668 828.48 205.676 833.133 208.362L842.227 213.611C844.236 214.77 846.454 215.398 848.701 215.558V246.96C846.434 247.116 844.199 247.732 842.227 248.871L833.133 254.121C828.48 256.808 825.588 261.815 825.588 267.188V277.688C825.588 280.007 826.154 282.243 827.14 284.27L799.975 299.952C798.715 298.085 797.061 296.478 795.053 295.319L785.959 290.068C781.303 287.38 775.523 287.382 770.87 290.068L761.776 295.319C757.123 298.005 754.233 303.012 754.233 308.385V313.635H756.372V308.385C756.372 303.774 758.853 299.476 762.846 297.172L771.94 291.921C775.934 289.615 780.896 289.615 784.889 291.921L793.983 297.172C797.977 299.476 800.458 303.774 800.458 308.386V313.635H802.598V308.386C802.598 306.067 802.032 303.83 801.045 301.805L828.21 286.122C829.471 287.989 831.125 289.596 833.133 290.756L842.227 296.007C844.554 297.35 847.162 298.021 849.771 298.021C852.379 298.021 854.988 297.35 857.316 296.007L866.408 290.756C868.417 289.596 870.071 287.989 871.333 286.122L898.496 301.805C897.509 303.83 896.943 306.067 896.943 308.386V313.635H899.083V308.386C899.083 303.774 901.564 299.476 905.558 297.172L914.652 291.921C916.611 290.79 918.85 290.192 921.128 290.192V288.053C918.475 288.053 915.865 288.749 913.582 290.068L904.488 295.319Z" fill="#E1E1E1"/>
</g>
<mask id="mask15_5682_420286" style="mask-type:luminance" maskUnits="userSpaceOnUse" x="611" y="205" width="25" height="52">
<path fill-rule="evenodd" clip-rule="evenodd" d="M611.711 205.658H635.894V256.823H611.711V205.658Z" fill="white"/>
</mask>
<g mask="url(#mask15_5682_420286)">
<path fill-rule="evenodd" clip-rule="evenodd" d="M619.255 212.923C614.603 215.611 611.711 220.618 611.711 225.991V236.49C611.711 241.863 614.603 246.87 619.255 249.558L628.35 254.808C630.633 256.126 633.242 256.823 635.894 256.823V254.685C633.618 254.685 631.378 254.087 629.42 252.955L620.325 247.705C616.332 245.399 613.851 241.1 613.851 236.49V225.991C613.851 221.38 616.332 217.082 620.325 214.776L629.418 209.526C631.377 208.395 633.618 207.796 635.894 207.796V205.658C633.242 205.658 630.633 206.355 628.348 207.672L619.255 212.923Z" fill="#E1E1E1"/>
</g>
<mask id="mask16_5682_420286" style="mask-type:luminance" maskUnits="userSpaceOnUse" x="469" y="164" width="167" height="150">
<path fill-rule="evenodd" clip-rule="evenodd" d="M469.001 164.498H635.894V313.634H469.001V164.498Z" fill="white"/>
</mask>
<g mask="url(#mask16_5682_420286)">
<path fill-rule="evenodd" clip-rule="evenodd" d="M580.106 288.902L571.013 294.152C567.018 296.457 562.058 296.457 558.064 294.152L548.97 288.902C544.977 286.598 542.496 282.299 542.496 277.687V267.187C542.496 262.576 544.977 258.278 548.97 255.972L558.064 250.723C560.022 249.591 562.261 248.994 564.539 248.994C566.816 248.994 569.056 249.591 571.013 250.723L580.106 255.972C584.101 258.278 586.582 262.576 586.582 267.187V277.687C586.582 282.299 584.101 286.596 580.106 288.902ZM548.97 206.508C544.977 204.202 542.496 199.905 542.496 195.293V184.794C542.496 180.182 544.977 175.884 548.97 173.578L558.064 168.327C560.022 167.197 562.261 166.599 564.539 166.599C566.816 166.599 569.056 167.197 571.013 168.327L580.106 173.578C584.101 175.884 586.582 180.18 586.582 184.794V195.293C586.582 199.905 584.101 204.202 580.106 206.508L571.013 211.758C567.02 214.064 562.059 214.066 558.064 211.758L548.97 206.508ZM619.255 295.318C617.248 296.477 615.595 298.084 614.334 299.951L587.17 284.267C588.156 282.242 588.722 280.006 588.722 277.688V267.187C588.722 261.814 585.83 256.807 581.176 254.12L572.083 248.87C570.111 247.731 567.876 247.115 565.609 246.959V215.557C567.854 215.397 570.074 214.769 572.083 213.61L581.176 208.361C585.83 205.673 588.722 200.666 588.722 195.293V184.794C588.722 179.42 585.83 174.412 581.176 171.726L572.083 166.476C567.519 163.839 561.56 163.837 556.994 166.476L547.9 171.726C543.247 174.412 540.356 179.42 540.356 184.794V195.293C540.356 200.667 543.247 205.675 547.9 208.361L556.994 213.61C559.003 214.769 561.222 215.397 563.469 215.557V246.959C561.202 247.115 558.967 247.731 556.994 248.87L547.9 254.12C543.247 256.807 540.356 261.814 540.356 267.187V277.688C540.356 280.006 540.922 282.242 541.907 284.269L514.742 299.951C513.482 298.084 511.828 296.477 509.821 295.318L500.727 290.067C496.071 287.379 490.291 287.381 485.638 290.067L476.544 295.318C471.891 298.004 469.001 303.011 469.001 308.384V313.634H471.139V308.384C471.139 303.773 473.621 299.475 477.614 297.171L486.708 291.92C490.701 289.614 495.663 289.614 499.657 291.92L508.751 297.171C512.744 299.475 515.225 303.773 515.225 308.385V313.634H517.365V308.385C517.365 306.066 516.799 303.829 515.812 301.804L542.977 286.121C544.239 287.988 545.893 289.595 547.9 290.755L556.994 296.006C559.322 297.349 561.929 298.021 564.539 298.021C567.147 298.021 569.756 297.349 572.083 296.006L581.176 290.755C583.185 289.595 584.839 287.988 586.1 286.121L613.264 301.804C612.277 303.829 611.711 306.066 611.711 308.385V313.634H613.851V308.385C613.851 303.773 616.332 299.475 620.325 297.171L629.419 291.92C631.378 290.789 633.618 290.191 635.895 290.191V288.052C633.242 288.052 630.633 288.748 628.349 290.067L619.255 295.318Z" fill="#E1E1E1"/>
</g>
<mask id="mask17_5682_420286" style="mask-type:luminance" maskUnits="userSpaceOnUse" x="469" y="313" width="49" height="26">
<path fill-rule="evenodd" clip-rule="evenodd" d="M469 313.347H517.364V338.93H469V313.347Z" fill="white"/>
</mask>
<g mask="url(#mask17_5682_420286)">
<path fill-rule="evenodd" clip-rule="evenodd" d="M476.544 331.665L485.639 336.916C487.966 338.259 490.574 338.931 493.183 338.931C495.791 338.929 498.4 338.259 500.727 336.916L509.82 331.665C514.473 328.979 517.364 323.972 517.364 318.598V313.347H515.224V318.598C515.224 323.21 512.745 327.508 508.75 329.812L499.657 335.063C495.662 337.37 490.7 337.369 486.709 335.063L477.614 329.812C475.655 328.682 474.018 327.041 472.88 325.069C471.741 323.098 471.138 320.861 471.138 318.598V313.347H469V318.598C469 321.236 469.702 323.843 471.027 326.139C472.353 328.436 474.261 330.346 476.544 331.665Z" fill="#E1E1E1"/>
</g>
<mask id="mask18_5682_420286" style="mask-type:luminance" maskUnits="userSpaceOnUse" x="611" y="313" width="25" height="26">
<path fill-rule="evenodd" clip-rule="evenodd" d="M611.712 313.346H635.894V338.929H611.712V313.346Z" fill="white"/>
</mask>
<g mask="url(#mask18_5682_420286)">
<path fill-rule="evenodd" clip-rule="evenodd" d="M629.419 335.062L620.326 329.811C616.331 327.505 613.852 323.209 613.852 318.597V313.346H611.712V318.597C611.712 323.969 614.603 328.977 619.256 331.664L628.349 336.915C630.634 338.232 633.242 338.93 635.895 338.93V336.791C633.617 336.791 631.378 336.193 629.419 335.062Z" fill="#E1E1E1"/>
</g>
<mask id="mask19_5682_420286" style="mask-type:luminance" maskUnits="userSpaceOnUse" x="611" y="370" width="25" height="52">
<path fill-rule="evenodd" clip-rule="evenodd" d="M611.711 370.158H635.894V421.323H611.711V370.158Z" fill="white"/>
</mask>
<g mask="url(#mask19_5682_420286)">
<path fill-rule="evenodd" clip-rule="evenodd" d="M619.255 377.423C614.603 380.111 611.711 385.118 611.711 390.491V400.99C611.711 406.363 614.603 411.37 619.255 414.058L628.35 419.308C630.633 420.626 633.242 421.323 635.894 421.323V419.185C633.618 419.185 631.378 418.587 629.42 417.455L620.325 412.205C616.332 409.899 613.851 405.6 613.851 400.99V390.491C613.851 385.88 616.332 381.582 620.325 379.276L629.418 374.026C631.377 372.895 633.618 372.296 635.894 372.296V370.158C633.242 370.158 630.633 370.855 628.348 372.172L619.255 377.423Z" fill="#E1E1E1"/>
</g>
<mask id="mask20_5682_420286" style="mask-type:luminance" maskUnits="userSpaceOnUse" x="754" y="313" width="49" height="26">
<path fill-rule="evenodd" clip-rule="evenodd" d="M754.232 313.344H802.597V338.927H754.232V313.344Z" fill="white"/>
</mask>
<g mask="url(#mask20_5682_420286)">
<path fill-rule="evenodd" clip-rule="evenodd" d="M761.777 331.662L770.871 336.912C773.198 338.256 775.806 338.927 778.415 338.927C781.023 338.926 783.633 338.256 785.96 336.912L795.052 331.662C799.705 328.976 802.597 323.968 802.597 318.594V313.344H800.457V318.594C800.457 323.206 797.977 327.504 793.982 329.809L784.89 335.059C780.895 337.367 775.933 337.365 771.941 335.059L762.847 329.809C760.888 328.678 759.25 327.038 758.112 325.065C756.973 323.094 756.371 320.858 756.371 318.594V313.344H754.232V318.594C754.232 321.232 754.934 323.84 756.259 326.135C757.586 328.432 759.493 330.343 761.777 331.662Z" fill="#E1E1E1"/>
</g>
<mask id="mask21_5682_420286" style="mask-type:luminance" maskUnits="userSpaceOnUse" x="635" y="313" width="168" height="109">
<path fill-rule="evenodd" clip-rule="evenodd" d="M635.704 313.345H802.598V421.322H635.704V313.345Z" fill="white"/>
</mask>
<g mask="url(#mask21_5682_420286)">
<path fill-rule="evenodd" clip-rule="evenodd" d="M685.016 349.29C685.016 344.678 687.497 340.381 691.492 338.075L700.584 332.825C702.543 331.693 704.783 331.095 707.059 331.095C709.338 331.095 711.576 331.693 713.533 332.825L722.627 338.075C726.622 340.381 729.103 344.678 729.103 349.29V359.791C729.103 364.401 726.622 368.698 722.627 371.005L713.533 376.254C709.54 378.562 704.578 378.562 700.584 376.254L691.492 371.005C687.497 368.699 685.016 364.401 685.016 359.791V349.29ZM762.847 379.27L771.941 374.02C773.938 372.867 776.176 372.29 778.415 372.29C780.655 372.29 782.893 372.867 784.89 374.02L793.984 379.27C797.977 381.576 800.458 385.873 800.458 390.485V400.984C800.458 405.598 797.977 409.894 793.984 412.2L784.89 417.451C780.896 419.755 775.934 419.755 771.941 417.451L762.847 412.2C760.888 411.068 759.25 409.428 758.112 407.455C756.975 405.484 756.372 403.248 756.372 400.986V390.485C756.372 385.873 758.853 381.576 762.847 379.27ZM685.499 368.225C686.761 370.091 688.413 371.7 690.422 372.859L699.515 378.11C701.842 379.453 704.45 380.124 707.059 380.124C709.668 380.124 712.278 379.453 714.603 378.11L723.698 372.859C725.706 371.7 727.359 370.091 728.62 368.225L755.785 383.909C754.8 385.935 754.234 388.171 754.234 390.489V400.99C754.234 403.627 754.934 406.234 756.261 408.53C757.586 410.827 759.494 412.737 761.777 414.056L770.871 419.307C773.198 420.65 775.806 421.322 778.415 421.322C781.025 421.322 783.633 420.65 785.96 419.307L795.054 414.056C799.707 411.37 802.598 406.363 802.598 400.989V390.489C802.598 385.115 799.707 380.108 795.054 377.421L785.96 372.173C781.305 369.485 775.524 369.485 770.871 372.171L761.777 377.421C759.77 378.582 758.116 380.189 756.855 382.056L729.69 366.373C730.676 364.348 731.242 362.111 731.242 359.793V349.292C731.242 343.918 728.35 338.912 723.698 336.224L714.603 330.974C712.631 329.834 710.397 329.219 708.129 329.065V313.345H705.991V329.065C703.724 329.219 701.489 329.834 699.515 330.974L690.422 336.224C685.769 338.912 682.878 343.918 682.878 349.292V359.793C682.878 362.111 683.444 364.348 684.429 366.371L657.266 382.056C656.004 380.189 654.35 378.58 652.343 377.421L643.248 372.173C640.965 370.854 638.356 370.156 635.704 370.156V372.295C637.98 372.295 640.22 372.894 642.178 374.024L651.273 379.275C655.267 381.581 657.749 385.877 657.749 390.489V400.989C657.749 405.601 655.267 409.899 651.273 412.205L642.18 417.455C640.22 418.585 637.98 419.183 635.704 419.183V421.322C638.356 421.322 640.964 420.626 643.248 419.307L652.343 414.056C656.995 411.37 659.887 406.363 659.887 400.989V390.489C659.887 388.171 659.321 385.935 658.334 383.909L685.499 368.225Z" fill="#E1E1E1"/>
</g>
<mask id="mask22_5682_420286" style="mask-type:luminance" maskUnits="userSpaceOnUse" x="635" y="313" width="25" height="26">
<path fill-rule="evenodd" clip-rule="evenodd" d="M635.704 313.346H659.887V338.929H635.704V313.346Z" fill="white"/>
</mask>
<g mask="url(#mask22_5682_420286)">
<path fill-rule="evenodd" clip-rule="evenodd" d="M652.343 331.666C656.995 328.978 659.887 323.971 659.887 318.598V313.348H657.749V318.598C657.749 323.21 655.266 327.507 651.273 329.813L642.178 335.063C640.22 336.193 637.98 336.793 635.704 336.793V338.931C638.356 338.931 640.964 338.234 643.248 336.916L652.343 331.666Z" fill="#E1E1E1"/>
</g>
<mask id="mask23_5682_420286" style="mask-type:luminance" maskUnits="userSpaceOnUse" x="896" y="313" width="26" height="26">
<path fill-rule="evenodd" clip-rule="evenodd" d="M896.944 313.344H921.126V338.927H896.944V313.344Z" fill="white"/>
</mask>
<g mask="url(#mask23_5682_420286)">
<path fill-rule="evenodd" clip-rule="evenodd" d="M914.651 335.059L905.559 329.809C901.564 327.503 899.084 323.206 899.084 318.594V313.344H896.944V318.594C896.944 323.967 899.836 328.974 904.489 331.662L913.581 336.912C915.866 338.23 918.474 338.927 921.127 338.927V336.789C918.85 336.789 916.61 336.191 914.651 335.059Z" fill="#E1E1E1"/>
</g>
<mask id="mask24_5682_420286" style="mask-type:luminance" maskUnits="userSpaceOnUse" x="896" y="370" width="26" height="52">
<path fill-rule="evenodd" clip-rule="evenodd" d="M896.944 370.158H921.127V421.323H896.944V370.158Z" fill="white"/>
</mask>
<g mask="url(#mask24_5682_420286)">
<path fill-rule="evenodd" clip-rule="evenodd" d="M904.489 377.423C899.836 380.111 896.944 385.119 896.944 390.491V400.99C896.944 406.363 899.836 411.371 904.489 414.058L913.583 419.309C915.866 420.626 918.476 421.323 921.127 421.323V419.185C918.851 419.185 916.612 418.587 914.653 417.455L905.559 412.205C901.565 409.899 899.084 405.601 899.084 400.99V390.491C899.084 385.881 901.565 381.583 905.559 379.277L914.651 374.026C916.61 372.896 918.851 372.297 921.127 372.297V370.158C918.476 370.158 915.866 370.855 913.581 372.173L904.489 377.423Z" fill="#E1E1E1"/>
</g>
<mask id="mask25_5682_420286" style="mask-type:luminance" maskUnits="userSpaceOnUse" x="754" y="328" width="168" height="151">
<path fill-rule="evenodd" clip-rule="evenodd" d="M754.233 328.996H921.126V478.133H754.233V328.996Z" fill="white"/>
</mask>
<g mask="url(#mask25_5682_420286)">
<path fill-rule="evenodd" clip-rule="evenodd" d="M865.338 453.399L856.245 458.65C852.251 460.954 847.29 460.954 843.297 458.65L834.203 453.399C830.209 451.095 827.728 446.797 827.728 442.185V431.684C827.728 427.073 830.209 422.775 834.203 420.469L843.297 415.22C845.254 414.089 847.494 413.491 849.771 413.491C852.048 413.491 854.288 414.089 856.245 415.22L865.338 420.469C869.333 422.775 871.814 427.073 871.814 431.684V442.185C871.814 446.797 869.333 451.093 865.338 453.399ZM834.203 371.007C830.209 368.701 827.728 364.404 827.728 359.792V349.293C827.728 344.681 830.209 340.383 834.203 338.077L843.297 332.826C845.254 331.696 847.494 331.098 849.771 331.098C852.048 331.098 854.288 331.696 856.245 332.826L865.338 338.077C869.333 340.383 871.814 344.679 871.814 349.293V359.792C871.814 364.404 869.333 368.701 865.338 371.007L856.245 376.257C852.252 378.563 847.292 378.565 843.297 376.257L834.203 371.007ZM904.488 459.816C902.48 460.975 900.828 462.582 899.566 464.449L872.403 448.766C873.388 446.741 873.954 444.504 873.954 442.186V431.685C873.954 426.313 871.063 421.305 866.408 418.619L857.316 413.369C855.343 412.229 853.108 411.613 850.841 411.458V380.055C853.087 379.895 855.307 379.267 857.316 378.108L866.408 372.859C871.063 370.172 873.954 365.164 873.954 359.792V349.292C873.954 343.918 871.063 338.911 866.408 336.224L857.316 330.974C852.752 328.338 846.792 328.336 842.227 330.974L833.133 336.224C828.48 338.911 825.588 343.918 825.588 349.292V359.792C825.588 365.166 828.48 370.173 833.133 372.859L842.227 378.108C844.236 379.267 846.454 379.895 848.701 380.055V411.458C846.434 411.613 844.199 412.229 842.227 413.369L833.133 418.619C828.48 421.305 825.588 426.313 825.588 431.685V442.186C825.588 444.504 826.154 446.741 827.14 448.768L799.975 464.449C798.715 462.582 797.061 460.975 795.053 459.816L785.959 454.566C781.303 451.878 775.523 451.879 770.87 454.566L761.776 459.816C757.123 462.502 754.233 467.51 754.233 472.882V478.133H756.372V472.882C756.372 468.272 758.853 463.974 762.846 461.669L771.94 456.419C775.934 454.113 780.896 454.113 784.889 456.419L793.983 461.669C797.977 463.974 800.458 468.272 800.458 472.884V478.133H802.598V472.884C802.598 470.564 802.032 468.328 801.045 466.303L828.21 450.619C829.471 452.486 831.125 454.093 833.133 455.254L842.227 460.504C844.554 461.847 847.162 462.519 849.771 462.519C852.379 462.519 854.988 461.847 857.316 460.504L866.408 455.254C868.417 454.093 870.071 452.486 871.333 450.619L898.496 466.303C897.509 468.328 896.943 470.564 896.943 472.884V478.133H899.083V472.884C899.083 468.272 901.564 463.974 905.558 461.669L914.652 456.419C916.611 455.287 918.85 454.689 921.128 454.689V452.551C918.475 452.551 915.865 453.247 913.582 454.566L904.488 459.816Z" fill="#E1E1E1"/>
</g>
<mask id="mask26_5682_420286" style="mask-type:luminance" maskUnits="userSpaceOnUse" x="754" y="477" width="49" height="27">
<path fill-rule="evenodd" clip-rule="evenodd" d="M754.232 477.845H802.597V503.428H754.232V477.845Z" fill="white"/>
</mask>
<g mask="url(#mask26_5682_420286)">
<path fill-rule="evenodd" clip-rule="evenodd" d="M761.777 496.163L770.871 501.413C773.198 502.757 775.806 503.428 778.415 503.428C781.023 503.427 783.633 502.757 785.96 501.413L795.052 496.163C799.705 493.477 802.597 488.469 802.597 483.095V477.845H800.457V483.095C800.457 487.707 797.977 492.005 793.982 494.31L784.89 499.56C780.895 501.868 775.933 501.866 771.941 499.56L762.847 494.31C760.888 493.179 759.25 491.539 758.112 489.566C756.973 487.595 756.371 485.359 756.371 483.095V477.845H754.232V483.095C754.232 485.733 754.934 488.341 756.259 490.636C757.586 492.933 759.493 494.844 761.777 496.163Z" fill="#E1E1E1"/>
</g>
<mask id="mask27_5682_420286" style="mask-type:luminance" maskUnits="userSpaceOnUse" x="896" y="477" width="26" height="27">
<path fill-rule="evenodd" clip-rule="evenodd" d="M896.944 477.845H921.126V503.428H896.944V477.845Z" fill="white"/>
</mask>
<g mask="url(#mask27_5682_420286)">
<path fill-rule="evenodd" clip-rule="evenodd" d="M914.651 499.562L905.559 494.311C901.564 492.005 899.084 487.709 899.084 483.097V477.846H896.944V483.097C896.944 488.469 899.836 493.477 904.489 496.164L913.581 501.415C915.866 502.732 918.474 503.43 921.127 503.43V501.291C918.85 501.291 916.61 500.693 914.651 499.562Z" fill="#E1E1E1"/>
</g>
<path fill-rule="evenodd" clip-rule="evenodd" d="M545.336 113.19C545.336 117.802 542.854 122.098 538.86 124.404L529.767 129.655C525.774 131.961 520.812 131.961 516.818 129.655L507.724 124.404C503.729 122.1 501.248 117.802 501.248 113.19V102.689C501.248 98.0783 503.729 93.7802 507.724 91.4742L516.818 86.2253C518.777 85.0935 521.015 84.4958 523.293 84.4958C525.568 84.4958 527.808 85.0935 529.767 86.2253L538.86 91.4742C542.854 93.7817 545.336 98.0783 545.336 102.689V113.19ZM539.929 89.6204L530.837 84.37C526.268 81.7334 520.316 81.7334 515.748 84.37L506.654 89.6204C502.001 92.3067 499.109 97.3141 499.109 102.687V113.188C499.109 118.562 502.001 123.569 506.654 126.255L515.748 131.506C517.755 132.665 519.975 133.293 522.222 133.451V149.134H524.361V133.451C526.608 133.293 528.828 132.665 530.837 131.506L539.929 126.255C544.582 123.568 547.474 118.562 547.474 113.188V102.687C547.474 97.3141 544.584 92.3082 539.929 89.6204Z" fill="#E1E1E1"/>
<path fill-rule="evenodd" clip-rule="evenodd" d="M468.575 130.817L459.481 125.566C457.196 124.247 454.588 123.552 451.937 123.552V125.69C454.212 125.69 456.452 126.288 458.411 127.42L467.505 132.67C471.498 134.975 473.981 139.273 473.981 143.885V149.134H476.119V143.885C476.119 138.511 473.228 133.503 468.575 130.817Z" fill="#E1E1E1"/>
<path fill-rule="evenodd" clip-rule="evenodd" d="M753.808 295.316L744.713 290.066C742.428 288.747 739.821 288.051 737.169 288.051V290.189C739.445 290.189 741.684 290.787 743.643 291.919L752.738 297.169C756.731 299.474 759.213 303.772 759.213 308.384V313.633H761.352V308.384C761.352 303.01 758.46 298.002 753.808 295.316Z" fill="#E1E1E1"/>
<path fill-rule="evenodd" clip-rule="evenodd" d="M545.336 277.688C545.336 282.3 542.854 286.597 538.86 288.903L529.767 294.153C525.774 296.459 520.812 296.459 516.818 294.153L507.724 288.903C503.729 286.598 501.248 282.3 501.248 277.688V267.187C501.248 262.577 503.729 258.279 507.724 255.973L516.818 250.724C518.777 249.592 521.015 248.994 523.293 248.994C525.568 248.994 527.808 249.592 529.767 250.724L538.86 255.973C542.854 258.28 545.336 262.577 545.336 267.187V277.688ZM539.929 254.119L530.837 248.869C526.268 246.232 520.316 246.232 515.748 248.869L506.654 254.119C502.001 256.806 499.109 261.813 499.109 267.186V277.687C499.109 283.061 502.001 288.068 506.654 290.754L515.748 296.005C517.755 297.164 519.975 297.792 522.222 297.95V313.633H524.361V297.95C526.608 297.792 528.828 297.164 530.837 296.005L539.929 290.754C544.582 288.067 547.474 283.061 547.474 277.687V267.186C547.474 261.813 544.584 256.807 539.929 254.119Z" fill="#E1E1E1"/>
<mask id="mask28_5682_420286" style="mask-type:luminance" maskUnits="userSpaceOnUse" x="451" y="148" width="168" height="109">
<path fill-rule="evenodd" clip-rule="evenodd" d="M451.937 148.846H618.831V256.822H451.937V148.846Z" fill="white"/>
</mask>
<g mask="url(#mask28_5682_420286)">
<path fill-rule="evenodd" clip-rule="evenodd" d="M501.249 184.793C501.249 180.181 503.73 175.884 507.724 173.578L516.817 168.328C518.776 167.196 521.016 166.599 523.291 166.599C525.57 166.599 527.808 167.196 529.766 168.328L538.86 173.578C542.855 175.884 545.336 180.181 545.336 184.793V195.294C545.336 199.904 542.855 204.201 538.86 206.508L529.766 211.757C525.772 214.065 520.81 214.065 516.817 211.757L507.724 206.508C503.73 204.202 501.249 199.904 501.249 195.294V184.793ZM579.079 214.775L588.173 209.524C590.17 208.371 592.408 207.795 594.648 207.795C596.887 207.795 599.125 208.371 601.122 209.524L610.216 214.775C614.21 217.081 616.691 221.377 616.691 225.989V236.489C616.691 241.102 614.21 245.399 610.216 247.705L601.122 252.955C597.129 255.26 592.167 255.26 588.173 252.955L579.079 247.705C577.12 246.573 575.483 244.933 574.345 242.96C573.207 240.989 572.605 238.752 572.605 236.49V225.989C572.605 221.377 575.086 217.081 579.079 214.775ZM501.731 203.725C502.993 205.592 504.646 207.201 506.654 208.36L515.747 213.61C518.074 214.953 520.682 215.625 523.291 215.625C525.901 215.625 528.51 214.953 530.836 213.61L539.93 208.36C541.939 207.201 543.591 205.592 544.853 203.725L572.018 219.41C571.032 221.435 570.466 223.672 570.466 225.99V236.491C570.466 239.127 571.167 241.735 572.493 244.03C573.818 246.327 575.726 248.238 578.009 249.557L587.104 254.807C589.431 256.15 592.039 256.822 594.648 256.822C597.257 256.822 599.865 256.15 602.192 254.807L611.286 249.557C615.939 246.871 618.831 241.863 618.831 236.489V225.99C618.831 220.616 615.939 215.608 611.286 212.922L602.192 207.673C597.538 204.985 591.756 204.985 587.104 207.672L578.009 212.922C576.002 214.082 574.348 215.69 573.088 217.557L545.923 201.873C546.908 199.848 547.474 197.611 547.474 195.293V184.793C547.474 179.418 544.583 174.412 539.93 171.725L530.836 166.474C528.863 165.335 526.63 164.719 524.361 164.565V148.846H522.223V164.565C519.956 164.719 517.721 165.335 515.747 166.474L506.654 171.725C502.002 174.412 499.11 179.418 499.11 184.793V195.293C499.11 197.611 499.676 199.848 500.661 201.872L473.498 217.557C472.236 215.69 470.582 214.081 468.575 212.922L459.481 207.673C457.197 206.354 454.588 205.657 451.937 205.657V207.795C454.212 207.795 456.452 208.394 458.411 209.525L467.505 214.775C471.5 217.081 473.981 221.378 473.981 225.99V236.489C473.981 241.101 471.5 245.399 467.505 247.705L458.412 252.956C456.452 254.086 454.212 254.684 451.937 254.684V256.822C454.588 256.822 457.196 256.126 459.481 254.807L468.575 249.557C473.228 246.871 476.119 241.863 476.119 236.489V225.99C476.119 223.672 475.553 221.435 474.566 219.41L501.731 203.725Z" fill="#E1E1E1"/>
</g>
<mask id="mask29_5682_420286" style="mask-type:luminance" maskUnits="userSpaceOnUse" x="451" y="148" width="26" height="27">
<path fill-rule="evenodd" clip-rule="evenodd" d="M451.937 148.845H476.119V174.428H451.937V148.845Z" fill="white"/>
</mask>
<g mask="url(#mask29_5682_420286)">
<path fill-rule="evenodd" clip-rule="evenodd" d="M468.575 167.164C473.228 164.477 476.119 159.469 476.119 154.097V148.846H473.981V154.097C473.981 158.709 471.498 163.005 467.505 165.311L458.411 170.562C456.452 171.692 454.212 172.291 451.937 172.291V174.43C454.588 174.43 457.196 173.732 459.481 172.415L468.575 167.164Z" fill="#E1E1E1"/>
</g>
<path fill-rule="evenodd" clip-rule="evenodd" d="M468.575 295.316L459.481 290.066C457.196 288.747 454.588 288.051 451.937 288.051V290.189C454.212 290.189 456.452 290.787 458.411 291.919L467.505 297.169C471.498 299.474 473.981 303.772 473.981 308.384V313.633H476.119V308.384C476.119 303.01 473.228 298.002 468.575 295.316Z" fill="#E1E1E1"/>
<mask id="mask30_5682_420286" style="mask-type:luminance" maskUnits="userSpaceOnUse" x="570" y="164" width="168" height="150">
<path fill-rule="evenodd" clip-rule="evenodd" d="M570.467 164.497H737.36V313.634H570.467V164.497Z" fill="white"/>
</mask>
<g mask="url(#mask30_5682_420286)">
<path fill-rule="evenodd" clip-rule="evenodd" d="M681.572 288.902L672.479 294.152C668.484 296.457 663.523 296.457 659.53 294.152L650.436 288.902C646.443 286.597 643.962 282.299 643.962 277.687V267.186C643.962 262.576 646.443 258.278 650.436 255.972L659.53 250.723C661.488 249.591 663.727 248.993 666.005 248.993C668.282 248.993 670.521 249.591 672.479 250.723L681.572 255.972C685.566 258.278 688.047 262.576 688.047 267.186V277.687C688.047 282.299 685.566 286.596 681.572 288.902ZM650.436 206.508C646.443 204.202 643.962 199.905 643.962 195.293V184.794C643.962 180.182 646.443 175.884 650.436 173.578L659.53 168.327C661.488 167.197 663.727 166.599 666.005 166.599C668.282 166.599 670.521 167.197 672.479 168.327L681.572 173.578C685.566 175.884 688.047 180.18 688.047 184.794V195.293C688.047 199.905 685.566 204.202 681.572 206.508L672.479 211.758C668.486 214.064 663.525 214.065 659.53 211.758L650.436 206.508ZM720.721 295.317C718.714 296.476 717.061 298.083 715.8 299.95L688.636 284.267C689.622 282.242 690.187 280.005 690.187 277.687V267.186C690.187 261.814 687.296 256.806 682.642 254.12L673.549 248.869C671.576 247.73 669.341 247.114 667.075 246.959V215.556C669.32 215.396 671.54 214.768 673.549 213.609L682.642 208.36C687.296 205.673 690.187 200.665 690.187 195.293V184.793C690.187 179.419 687.296 174.412 682.642 171.725L673.549 166.475C668.985 163.839 663.025 163.837 658.46 166.475L649.366 171.725C644.713 174.412 641.822 179.419 641.822 184.793V195.293C641.822 200.667 644.713 205.674 649.366 208.36L658.46 213.609C660.469 214.768 662.687 215.396 664.935 215.556V246.959C662.668 247.114 660.433 247.73 658.46 248.869L649.366 254.12C644.713 256.806 641.822 261.814 641.822 267.186V277.687C641.822 280.005 642.388 282.242 643.373 284.269L616.208 299.95C614.948 298.083 613.294 296.476 611.287 295.317L602.192 290.067C597.537 287.379 591.757 287.38 587.104 290.067L578.01 295.317C573.357 298.003 570.467 303.011 570.467 308.383V313.634H572.605V308.383C572.605 303.773 575.086 299.475 579.08 297.17L588.174 291.92C592.167 289.614 597.129 289.614 601.122 291.92L610.217 297.17C614.21 299.475 616.691 303.773 616.691 308.385V313.634H618.831V308.385C618.831 306.065 618.265 303.829 617.278 301.804L644.443 286.12C645.705 287.987 647.359 289.594 649.366 290.755L658.46 296.005C660.787 297.348 663.395 298.02 666.005 298.02C668.612 298.02 671.222 297.348 673.549 296.005L682.642 290.755C684.65 289.594 686.304 287.987 687.566 286.12L714.73 301.804C713.743 303.829 713.177 306.065 713.177 308.385V313.634H715.317V308.385C715.317 303.773 717.798 299.475 721.791 297.17L730.885 291.92C732.844 290.788 735.084 290.19 737.361 290.19V288.052C734.708 288.052 732.099 288.748 729.815 290.067L720.721 295.317Z" fill="#E1E1E1"/>
</g>
<mask id="mask31_5682_420286" style="mask-type:luminance" maskUnits="userSpaceOnUse" x="570" y="313" width="49" height="26">
<path fill-rule="evenodd" clip-rule="evenodd" d="M570.466 313.346H618.83V338.929H570.466V313.346Z" fill="white"/>
</mask>
<g mask="url(#mask31_5682_420286)">
<path fill-rule="evenodd" clip-rule="evenodd" d="M578.01 331.663L587.104 336.914C589.432 338.257 592.039 338.929 594.649 338.929C597.257 338.927 599.866 338.257 602.193 336.914L611.286 331.663C615.939 328.977 618.83 323.97 618.83 318.596V313.345H616.69V318.596C616.69 323.208 614.211 327.506 610.216 329.81L601.123 335.061C597.128 337.368 592.166 337.367 588.174 335.061L579.08 329.81C577.121 328.68 575.484 327.039 574.346 325.067C573.206 323.096 572.604 320.859 572.604 318.596V313.345H570.466V318.596C570.466 321.234 571.168 323.841 572.493 326.137C573.819 328.434 575.727 330.344 578.01 331.663Z" fill="#E1E1E1"/>
</g>
<mask id="mask32_5682_420286" style="mask-type:luminance" maskUnits="userSpaceOnUse" x="451" y="313" width="168" height="109">
<path fill-rule="evenodd" clip-rule="evenodd" d="M451.937 313.346H618.831V421.322H451.937V313.346Z" fill="white"/>
</mask>
<g mask="url(#mask32_5682_420286)">
<path fill-rule="evenodd" clip-rule="evenodd" d="M501.248 349.293C501.248 344.681 503.729 340.384 507.724 338.078L516.817 332.828C518.776 331.696 521.015 331.098 523.291 331.098C525.57 331.098 527.808 331.696 529.765 332.828L538.86 338.078C542.854 340.384 545.336 344.681 545.336 349.293V359.793C545.336 364.404 542.854 368.701 538.86 371.008L529.765 376.257C525.772 378.565 520.81 378.565 516.817 376.257L507.724 371.008C503.729 368.702 501.248 364.404 501.248 359.793V349.293ZM579.079 379.274L588.173 374.023C590.17 372.87 592.408 372.294 594.647 372.294C596.887 372.294 599.125 372.87 601.122 374.023L610.216 379.274C614.209 381.58 616.69 385.876 616.69 390.488V400.988C616.69 405.601 614.209 409.898 610.216 412.204L601.122 417.454C597.129 419.759 592.166 419.759 588.173 417.454L579.079 412.204C577.12 411.072 575.483 409.431 574.345 407.459C573.207 405.488 572.605 403.251 572.605 400.989V390.488C572.605 385.876 575.086 381.58 579.079 379.274ZM501.731 368.225C502.993 370.092 504.646 371.701 506.654 372.86L515.747 378.11C518.074 379.453 520.682 380.125 523.291 380.125C525.901 380.125 528.51 379.453 530.836 378.11L539.93 372.86C541.939 371.701 543.591 370.092 544.853 368.225L572.018 383.91C571.032 385.935 570.466 388.172 570.466 390.49V400.991C570.466 403.627 571.167 406.235 572.493 408.53C573.818 410.827 575.726 412.738 578.009 414.057L587.104 419.307C589.431 420.65 592.039 421.322 594.648 421.322C597.257 421.322 599.865 420.65 602.192 419.307L611.286 414.057C615.939 411.371 618.831 406.363 618.831 400.989V390.49C618.831 385.116 615.939 380.108 611.286 377.422L602.192 372.173C597.538 369.485 591.756 369.485 587.104 372.172L578.009 377.422C576.002 378.582 574.348 380.19 573.088 382.057L545.923 366.373C546.908 364.348 547.474 362.111 547.474 359.793V349.293C547.474 343.918 544.583 338.912 539.93 336.225L530.836 330.974C528.863 329.835 526.63 329.219 524.361 329.065V313.346H522.223V329.065C519.956 329.219 517.721 329.835 515.747 330.974L506.654 336.225C502.002 338.912 499.11 343.918 499.11 349.293V359.793C499.11 362.111 499.676 364.348 500.661 366.372L473.498 382.057C472.236 380.19 470.582 378.581 468.575 377.422L459.481 372.173C457.197 370.854 454.588 370.157 451.937 370.157V372.295C454.212 372.295 456.452 372.894 458.411 374.025L467.505 379.275C471.5 381.581 473.981 385.878 473.981 390.49V400.989C473.981 405.601 471.5 409.899 467.505 412.205L458.412 417.456C456.452 418.586 454.212 419.184 451.937 419.184V421.322C454.588 421.322 457.196 420.626 459.481 419.307L468.575 414.057C473.228 411.371 476.119 406.363 476.119 400.989V390.49C476.119 388.172 475.553 385.935 474.566 383.91L501.731 368.225Z" fill="#E1E1E1"/>
</g>
<mask id="mask33_5682_420286" style="mask-type:luminance" maskUnits="userSpaceOnUse" x="451" y="313" width="26" height="26">
<path fill-rule="evenodd" clip-rule="evenodd" d="M451.937 313.346H476.119V338.929H451.937V313.346Z" fill="white"/>
</mask>
<g mask="url(#mask33_5682_420286)">
<path fill-rule="evenodd" clip-rule="evenodd" d="M468.575 331.664C473.228 328.976 476.119 323.969 476.119 318.596V313.346H473.981V318.596C473.981 323.208 471.498 327.505 467.505 329.811L458.411 335.061C456.452 336.191 454.212 336.791 451.937 336.791V338.929C454.588 338.929 457.196 338.232 459.481 336.914L468.575 331.664Z" fill="#E1E1E1"/>
</g>
<path fill-rule="evenodd" clip-rule="evenodd" d="M468.575 459.816L459.481 454.566C457.196 453.247 454.588 452.551 451.937 452.551V454.689C454.212 454.689 456.452 455.287 458.411 456.419L467.505 461.669C471.498 463.974 473.981 468.272 473.981 472.884V478.133H476.119V472.884C476.119 467.51 473.228 462.502 468.575 459.816Z" fill="#E1E1E1"/>
<mask id="mask34_5682_420286" style="mask-type:luminance" maskUnits="userSpaceOnUse" x="713" y="313" width="25" height="26">
<path fill-rule="evenodd" clip-rule="evenodd" d="M713.178 313.346H737.36V338.928H713.178V313.346Z" fill="white"/>
</mask>
<g mask="url(#mask34_5682_420286)">
<path fill-rule="evenodd" clip-rule="evenodd" d="M730.885 335.062L721.792 329.811C717.797 327.505 715.318 323.209 715.318 318.597V313.346H713.178V318.597C713.178 323.969 716.069 328.977 720.722 331.664L729.815 336.915C732.1 338.232 734.708 338.93 737.361 338.93V336.791C735.083 336.791 732.844 336.193 730.885 335.062Z" fill="#E1E1E1"/>
</g>
<mask id="mask35_5682_420286" style="mask-type:luminance" maskUnits="userSpaceOnUse" x="737" y="313" width="25" height="26">
<path fill-rule="evenodd" clip-rule="evenodd" d="M737.169 313.346H761.352V338.929H737.169V313.346Z" fill="white"/>
</mask>
<g mask="url(#mask35_5682_420286)">
<path fill-rule="evenodd" clip-rule="evenodd" d="M753.808 331.663C758.46 328.976 761.352 323.968 761.352 318.596V313.345H759.213V318.596C759.213 323.208 756.731 327.504 752.738 329.81L743.643 335.061C741.684 336.191 739.445 336.79 737.169 336.79V338.929C739.821 338.929 742.428 338.231 744.713 336.914L753.808 331.663Z" fill="#E1E1E1"/>
</g>
<mask id="mask36_5682_420286" style="mask-type:luminance" maskUnits="userSpaceOnUse" x="451" y="477" width="26" height="27">
<path fill-rule="evenodd" clip-rule="evenodd" d="M451.937 477.848H476.119V503.431H451.937V477.848Z" fill="white"/>
</mask>
<g mask="url(#mask36_5682_420286)">
<path fill-rule="evenodd" clip-rule="evenodd" d="M468.575 496.166C473.228 493.478 476.119 488.471 476.119 483.098V477.848H473.981V483.098C473.981 487.71 471.498 492.007 467.505 494.313L458.411 499.563C456.452 500.693 454.212 501.293 451.937 501.293V503.431C454.588 503.431 457.196 502.734 459.481 501.416L468.575 496.166Z" fill="#E1E1E1"/>
</g>
<path fill-rule="evenodd" clip-rule="evenodd" d="M260.103 113.191C260.103 117.803 257.622 122.1 253.627 124.406L244.535 129.656C240.541 131.962 235.579 131.962 231.586 129.656L222.492 124.406C218.497 122.102 216.016 117.803 216.016 113.191V102.691C216.016 98.0801 218.497 93.782 222.492 91.476L231.586 86.2271C233.545 85.0953 235.783 84.4976 238.06 84.4976C240.336 84.4976 242.576 85.0953 244.535 86.2271L253.627 91.476C257.622 93.7835 260.103 98.0801 260.103 102.691V113.191ZM254.697 89.6218L245.604 84.3714C241.036 81.7349 235.084 81.7349 230.516 84.3714L221.421 89.6218C216.769 92.3081 213.877 97.3156 213.877 102.688V113.189C213.877 118.563 216.769 123.571 221.421 126.257L230.516 131.507C232.523 132.666 234.743 133.294 236.99 133.453V149.136H239.128V133.453C241.375 133.294 243.595 132.666 245.604 131.507L254.697 126.257C259.35 123.569 262.241 118.563 262.241 113.189V102.688C262.241 97.3156 259.351 92.3096 254.697 89.6218Z" fill="#E1E1E1"/>
<mask id="mask37_5682_420286" style="mask-type:luminance" maskUnits="userSpaceOnUse" x="285" y="0" width="168" height="150">
<path fill-rule="evenodd" clip-rule="evenodd" d="M285.233 0H452.126V149.137H285.233V0Z" fill="white"/>
</mask>
<g mask="url(#mask37_5682_420286)">
<path fill-rule="evenodd" clip-rule="evenodd" d="M396.338 124.405L387.245 129.655C383.251 131.96 378.29 131.96 374.297 129.655L365.202 124.405C361.209 122.101 358.728 117.802 358.728 113.19V102.69C358.728 98.0791 361.209 93.781 365.202 91.475L374.297 86.2261C376.254 85.0942 378.494 84.4966 380.771 84.4966C383.048 84.4966 385.288 85.0942 387.245 86.2261L396.338 91.475C400.333 93.781 402.814 98.0791 402.814 102.69V113.19C402.814 117.802 400.333 122.099 396.338 124.405ZM365.202 42.01C361.209 39.704 358.728 35.4074 358.728 30.7953V20.2961C358.728 15.6841 361.209 11.386 365.202 9.07995L374.297 3.82956C376.254 2.69919 378.494 2.10156 380.771 2.10156C383.048 2.10156 385.288 2.69919 387.245 3.82956L396.338 9.07995C400.333 11.386 402.814 15.6826 402.814 20.2961V30.7953C402.814 35.4074 400.333 39.704 396.338 42.01L387.245 47.2604C383.252 49.5664 378.291 49.5679 374.297 47.2604L365.202 42.01ZM435.488 130.82C433.48 131.979 431.828 133.586 430.566 135.453L403.403 119.77C404.388 117.745 404.954 115.508 404.954 113.19V102.689C404.954 97.3165 402.063 92.3091 397.408 89.6228L388.316 84.3724C386.343 83.233 384.108 82.6173 381.841 82.4618V51.0591C384.087 50.8991 386.307 50.2713 388.316 49.1122L397.408 43.8634C402.063 41.1755 404.954 36.1681 404.954 30.7955V20.2962C404.954 14.9221 402.063 9.91466 397.408 7.22834L388.316 1.97795C383.752 -0.658563 377.792 -0.660072 373.227 1.97795L364.133 7.22834C359.48 9.91466 356.588 14.9221 356.588 20.2962V30.7955C356.588 36.1696 359.48 41.177 364.133 43.8634L373.227 49.1122C375.236 50.2713 377.454 50.8991 379.701 51.0591V82.4618C377.434 82.6173 375.199 83.233 373.227 84.3724L364.133 89.6228C359.48 92.3091 356.588 97.3165 356.588 102.689V113.19C356.588 115.508 357.154 117.745 358.14 119.771L330.975 135.453C329.715 133.586 328.061 131.979 326.053 130.82L316.959 125.57C312.303 122.882 306.523 122.883 301.87 125.57L292.776 130.82C288.123 133.506 285.233 138.514 285.233 143.886V149.137H287.372V143.886C287.372 139.276 289.853 134.978 293.846 132.673L302.94 127.423C306.934 125.117 311.896 125.117 315.889 127.423L324.983 132.673C328.977 134.978 331.458 139.276 331.458 143.888V149.137H333.598V143.888C333.598 141.568 333.032 139.332 332.045 137.306L359.21 121.623C360.471 123.49 362.125 125.097 364.133 126.258L373.227 131.508C375.554 132.851 378.162 133.523 380.771 133.523C383.379 133.523 385.988 132.851 388.316 131.508L397.408 126.258C399.417 125.097 401.071 123.49 402.333 121.623L429.496 137.306C428.509 139.332 427.943 141.568 427.943 143.888V149.137H430.083V143.888C430.083 139.276 432.564 134.978 436.558 132.673L445.652 127.423C447.611 126.291 449.85 125.693 452.128 125.693V123.555C449.475 123.555 446.865 124.251 444.582 125.57L435.488 130.82Z" fill="#E1E1E1"/>
</g>
<mask id="mask38_5682_420286" style="mask-type:luminance" maskUnits="userSpaceOnUse" x="285" y="148" width="49" height="27">
<path fill-rule="evenodd" clip-rule="evenodd" d="M285.233 148.846H333.598V174.429H285.233V148.846Z" fill="white"/>
</mask>
<g mask="url(#mask38_5682_420286)">
<path fill-rule="evenodd" clip-rule="evenodd" d="M292.778 167.165L301.872 172.416C304.199 173.759 306.807 174.431 309.416 174.431C312.024 174.429 314.633 173.759 316.961 172.416L326.053 167.165C330.706 164.479 333.598 159.472 333.598 154.098V148.847H331.458V154.098C331.458 158.71 328.978 163.008 324.983 165.312L315.891 170.563C311.896 172.87 306.934 172.869 302.942 170.563L293.848 165.312C291.889 164.182 290.251 162.541 289.113 160.569C287.974 158.598 287.372 156.361 287.372 154.098V148.847H285.233V154.098C285.233 156.736 285.935 159.343 287.26 161.639C288.587 163.936 290.494 165.846 292.778 167.165Z" fill="#E1E1E1"/>
</g>
<path fill-rule="evenodd" clip-rule="evenodd" d="M260.103 277.688C260.103 282.3 257.622 286.597 253.627 288.903L244.535 294.153C240.541 296.459 235.579 296.459 231.586 294.153L222.492 288.903C218.497 286.598 216.016 282.3 216.016 277.688V267.187C216.016 262.577 218.497 258.279 222.492 255.973L231.586 250.724C233.545 249.592 235.783 248.994 238.06 248.994C240.336 248.994 242.576 249.592 244.535 250.724L253.627 255.973C257.622 258.28 260.103 262.577 260.103 267.187V277.688ZM254.697 254.119L245.604 248.869C241.036 246.232 235.084 246.232 230.516 248.869L221.421 254.119C216.769 256.806 213.877 261.813 213.877 267.186V277.687C213.877 283.061 216.769 288.068 221.421 290.754L230.516 296.005C232.523 297.164 234.743 297.792 236.99 297.95V313.633H239.128V297.95C241.375 297.792 243.595 297.164 245.604 296.005L254.697 290.754C259.35 288.067 262.241 283.061 262.241 277.687V267.186C262.241 261.813 259.351 256.807 254.697 254.119Z" fill="#E1E1E1"/>
<mask id="mask39_5682_420286" style="mask-type:luminance" maskUnits="userSpaceOnUse" x="166" y="148" width="168" height="109">
<path fill-rule="evenodd" clip-rule="evenodd" d="M166.704 148.846H333.598V256.822H166.704V148.846Z" fill="white"/>
</mask>
<g mask="url(#mask39_5682_420286)">
<path fill-rule="evenodd" clip-rule="evenodd" d="M216.016 184.793C216.016 180.181 218.497 175.884 222.492 173.578L231.585 168.328C233.543 167.196 235.783 166.598 238.059 166.598C240.338 166.598 242.576 167.196 244.533 168.328L253.627 173.578C257.622 175.884 260.103 180.181 260.103 184.793V195.294C260.103 199.904 257.622 204.201 253.627 206.508L244.533 211.757C240.54 214.065 235.578 214.065 231.585 211.757L222.492 206.508C218.497 204.202 216.016 199.904 216.016 195.294V184.793ZM293.847 214.775L302.941 209.525C304.938 208.372 307.176 207.795 309.415 207.795C311.655 207.795 313.893 208.372 315.89 209.525L324.984 214.775C328.977 217.081 331.458 221.378 331.458 225.99V236.489C331.458 241.103 328.977 245.399 324.984 247.705L315.89 252.956C311.896 255.26 306.934 255.26 302.941 252.956L293.847 247.705C291.888 246.574 290.25 244.933 289.113 242.961C287.975 240.99 287.372 238.753 287.372 236.491V225.99C287.372 221.378 289.854 217.081 293.847 214.775ZM216.499 203.725C217.761 205.592 219.413 207.201 221.422 208.36L230.515 213.61C232.842 214.953 235.45 215.625 238.059 215.625C240.668 215.625 243.278 214.953 245.603 213.61L254.698 208.36C256.706 207.201 258.359 205.592 259.62 203.725L286.785 219.41C285.8 221.435 285.234 223.672 285.234 225.99V236.491C285.234 239.127 285.934 241.735 287.261 244.03C288.586 246.327 290.494 248.238 292.777 249.557L301.871 254.807C304.198 256.15 306.806 256.822 309.415 256.822C312.025 256.822 314.633 256.15 316.96 254.807L326.054 249.557C330.707 246.871 333.598 241.863 333.598 236.489V225.99C333.598 220.616 330.707 215.608 326.054 212.922L316.96 207.673C312.305 204.985 306.524 204.985 301.871 207.672L292.777 212.922C290.77 214.082 289.116 215.69 287.855 217.557L260.69 201.873C261.676 199.848 262.242 197.611 262.242 195.293V184.793C262.242 179.418 259.35 174.412 254.698 171.725L245.603 166.474C243.631 165.335 241.397 164.719 239.129 164.565V148.846H236.991V164.565C234.724 164.719 232.489 165.335 230.515 166.474L221.422 171.725C216.769 174.412 213.878 179.418 213.878 184.793V195.293C213.878 197.611 214.444 199.848 215.429 201.872L188.266 217.557C187.004 215.69 185.35 214.081 183.343 212.922L174.248 207.673C171.965 206.354 169.356 205.657 166.704 205.657V207.795C168.98 207.795 171.22 208.394 173.178 209.525L182.273 214.775C186.267 217.081 188.749 221.378 188.749 225.99V236.489C188.749 241.101 186.267 245.399 182.273 247.705L173.18 252.956C171.22 254.086 168.98 254.684 166.704 254.684V256.822C169.356 256.822 171.964 256.126 174.248 254.807L183.343 249.557C187.995 246.871 190.887 241.863 190.887 236.489V225.99C190.887 223.672 190.321 221.435 189.334 219.41L216.499 203.725Z" fill="#E1E1E1"/>
</g>
<path fill-rule="evenodd" clip-rule="evenodd" d="M183.343 295.317L174.248 290.067C171.964 288.748 169.356 288.052 166.704 288.052V290.191C168.98 290.191 171.22 290.788 173.178 291.92L182.273 297.171C186.266 299.475 188.749 303.773 188.749 308.385V313.634H190.887V308.385C190.887 303.011 187.995 298.004 183.343 295.317Z" fill="#E1E1E1"/>
<mask id="mask40_5682_420286" style="mask-type:luminance" maskUnits="userSpaceOnUse" x="427" y="148" width="26" height="27">
<path fill-rule="evenodd" clip-rule="evenodd" d="M427.945 148.846H452.127V174.428H427.945V148.846Z" fill="white"/>
</mask>
<g mask="url(#mask40_5682_420286)">
<path fill-rule="evenodd" clip-rule="evenodd" d="M445.652 170.563L436.56 165.312C432.565 163.006 430.085 158.71 430.085 154.098V148.847H427.945V154.098C427.945 159.47 430.837 164.478 435.49 167.165L444.582 172.416C446.867 173.733 449.475 174.431 452.128 174.431V172.292C449.851 172.292 447.611 171.694 445.652 170.563Z" fill="#E1E1E1"/>
</g>
<mask id="mask41_5682_420286" style="mask-type:luminance" maskUnits="userSpaceOnUse" x="427" y="205" width="26" height="52">
<path fill-rule="evenodd" clip-rule="evenodd" d="M427.944 205.66H452.127V256.825H427.944V205.66Z" fill="white"/>
</mask>
<g mask="url(#mask41_5682_420286)">
<path fill-rule="evenodd" clip-rule="evenodd" d="M435.489 212.925C430.836 215.613 427.944 220.621 427.944 225.993V236.492C427.944 241.865 430.836 246.872 435.489 249.56L444.583 254.811C446.866 256.128 449.476 256.825 452.127 256.825V254.687C449.851 254.687 447.612 254.089 445.653 252.957L436.559 247.707C432.565 245.401 430.084 241.103 430.084 236.492V225.993C430.084 221.383 432.565 217.085 436.559 214.779L445.651 209.528C447.61 208.398 449.851 207.799 452.127 207.799V205.66C449.476 205.66 446.866 206.357 444.581 207.675L435.489 212.925Z" fill="#E1E1E1"/>
</g>
<mask id="mask42_5682_420286" style="mask-type:luminance" maskUnits="userSpaceOnUse" x="284" y="164" width="168" height="150">
<path fill-rule="evenodd" clip-rule="evenodd" d="M284.991 164.479H451.884V313.615H284.991V164.479Z" fill="white"/>
</mask>
<g mask="url(#mask42_5682_420286)">
<path fill-rule="evenodd" clip-rule="evenodd" d="M396.338 288.903L387.246 294.154C383.251 296.458 378.29 296.458 374.297 294.154L365.203 288.903C361.209 286.599 358.728 282.301 358.728 277.689V267.188C358.728 262.577 361.209 258.279 365.203 255.973L374.297 250.724C376.254 249.592 378.494 248.995 380.771 248.995C383.049 248.995 385.288 249.592 387.246 250.724L396.338 255.973C400.333 258.279 402.814 262.577 402.814 267.188V277.689C402.814 282.301 400.333 286.597 396.338 288.903ZM365.203 206.508C361.209 204.202 358.728 199.906 358.728 195.294V184.794C358.728 180.182 361.209 175.884 365.203 173.578L374.297 168.328C376.254 167.197 378.494 166.6 380.771 166.6C383.049 166.6 385.288 167.197 387.246 168.328L396.338 173.578C400.333 175.884 402.814 180.181 402.814 184.794V195.294C402.814 199.906 400.333 204.202 396.338 206.508L387.246 211.759C383.252 214.065 378.292 214.066 374.297 211.759L365.203 206.508ZM435.488 295.319C433.48 296.478 431.828 298.085 430.566 299.952L403.403 284.268C404.388 282.243 404.954 280.007 404.954 277.688V267.188C404.954 261.815 402.063 256.808 397.408 254.121L388.316 248.871C386.343 247.732 384.108 247.116 381.841 246.96V215.558C384.087 215.398 386.307 214.77 388.316 213.611L397.408 208.362C402.063 205.674 404.954 200.667 404.954 195.294V184.795C404.954 179.421 402.063 174.413 397.408 171.727L388.316 166.476C383.752 163.84 377.792 163.838 373.227 166.476L364.133 171.727C359.48 174.413 356.588 179.421 356.588 184.795V195.294C356.588 200.668 359.48 205.676 364.133 208.362L373.227 213.611C375.236 214.77 377.454 215.398 379.701 215.558V246.96C377.434 247.116 375.199 247.732 373.227 248.871L364.133 254.121C359.48 256.808 356.588 261.815 356.588 267.188V277.688C356.588 280.007 357.154 282.243 358.14 284.27L330.975 299.952C329.715 298.085 328.061 296.478 326.053 295.319L316.959 290.068C312.303 287.38 306.523 287.382 301.87 290.068L292.776 295.319C288.123 298.005 285.233 303.012 285.233 308.385V313.635H287.372V308.385C287.372 303.774 289.853 299.476 293.846 297.172L302.94 291.921C306.934 289.615 311.896 289.615 315.889 291.921L324.983 297.172C328.977 299.476 331.458 303.774 331.458 308.386V313.635H333.598V308.386C333.598 306.067 333.032 303.83 332.045 301.805L359.21 286.122C360.471 287.989 362.125 289.596 364.133 290.756L373.227 296.007C375.554 297.35 378.162 298.021 380.771 298.021C383.379 298.021 385.988 297.35 388.316 296.007L397.408 290.756C399.417 289.596 401.071 287.989 402.333 286.122L429.496 301.805C428.509 303.83 427.943 306.067 427.943 308.386V313.635H430.083V308.386C430.083 303.774 432.564 299.476 436.558 297.172L445.652 291.921C447.611 290.79 449.85 290.192 452.128 290.192V288.053C449.475 288.053 446.865 288.749 444.582 290.068L435.488 295.319Z" fill="#E1E1E1"/>
</g>
<mask id="mask43_5682_420286" style="mask-type:luminance" maskUnits="userSpaceOnUse" x="142" y="205" width="25" height="52">
<path fill-rule="evenodd" clip-rule="evenodd" d="M142.711 205.658H166.894V256.823H142.711V205.658Z" fill="white"/>
</mask>
<g mask="url(#mask43_5682_420286)">
<path fill-rule="evenodd" clip-rule="evenodd" d="M150.255 212.923C145.603 215.611 142.711 220.618 142.711 225.991V236.49C142.711 241.863 145.603 246.87 150.255 249.558L159.35 254.808C161.633 256.126 164.242 256.823 166.894 256.823V254.685C164.618 254.685 162.378 254.087 160.42 252.955L151.325 247.705C147.332 245.399 144.851 241.1 144.851 236.49V225.991C144.851 221.38 147.332 217.082 151.325 214.776L160.418 209.526C162.377 208.395 164.618 207.796 166.894 207.796V205.658C164.242 205.658 161.633 206.355 159.348 207.672L150.255 212.923Z" fill="#E1E1E1"/>
</g>
<mask id="mask44_5682_420286" style="mask-type:luminance" maskUnits="userSpaceOnUse" x="0" y="164" width="167" height="150">
<path fill-rule="evenodd" clip-rule="evenodd" d="M0.000976562 164.498H166.894V313.634H0.000976562V164.498Z" fill="white"/>
</mask>
<g mask="url(#mask44_5682_420286)">
<path fill-rule="evenodd" clip-rule="evenodd" d="M111.106 288.902L102.013 294.152C98.0183 296.457 93.0577 296.457 89.0644 294.152L79.9702 288.902C75.9769 286.598 73.4958 282.299 73.4958 277.687V267.187C73.4958 262.576 75.9769 258.278 79.9702 255.972L89.0644 250.723C91.0218 249.591 93.2614 248.994 95.5387 248.994C97.8161 248.994 100.056 249.591 102.013 250.723L111.106 255.972C115.101 258.278 117.582 262.576 117.582 267.187V277.687C117.582 282.299 115.101 286.596 111.106 288.902ZM79.9702 206.508C75.9769 204.202 73.4958 199.905 73.4958 195.293V184.794C73.4958 180.182 75.9769 175.884 79.9702 173.578L89.0644 168.327C91.0218 167.197 93.2614 166.599 95.5387 166.599C97.8161 166.599 100.056 167.197 102.013 168.327L111.106 173.578C115.101 175.884 117.582 180.18 117.582 184.794V195.293C117.582 199.905 115.101 204.202 111.106 206.508L102.013 211.758C98.0198 214.064 93.0592 214.066 89.0644 211.758L79.9702 206.508ZM150.255 295.318C148.248 296.477 146.595 298.084 145.334 299.951L118.17 284.267C119.156 282.242 119.722 280.006 119.722 277.688V267.187C119.722 261.814 116.83 256.807 112.176 254.12L103.083 248.87C101.111 247.731 98.8755 247.115 96.6088 246.959V215.557C98.8544 215.397 101.074 214.769 103.083 213.61L112.176 208.361C116.83 205.673 119.722 200.666 119.722 195.293V184.794C119.722 179.42 116.83 174.412 112.176 171.726L103.083 166.476C98.5194 163.839 92.5597 163.837 87.9945 166.476L78.9002 171.726C74.2475 174.412 71.3559 179.42 71.3559 184.794V195.293C71.3559 200.667 74.2475 205.675 78.9002 208.361L87.9945 213.61C90.0032 214.769 92.2216 215.397 94.4688 215.557V246.959C92.202 247.115 89.9669 247.731 87.9945 248.87L78.9002 254.12C74.2475 256.807 71.3559 261.814 71.3559 267.187V277.688C71.3559 280.006 71.9218 282.242 72.9073 284.269L45.7423 299.951C44.4822 298.084 42.8281 296.477 40.8209 295.318L31.7267 290.067C27.0709 287.379 21.2908 287.381 16.638 290.067L7.54379 295.318C2.89103 298.004 0.000976562 303.011 0.000976562 308.384V313.634H2.13947V308.384C2.13947 303.773 4.62054 299.475 8.61379 297.171L17.708 291.92C21.7013 289.614 26.6634 289.614 30.6567 291.92L39.7509 297.171C43.7442 299.475 46.2252 303.773 46.2252 308.385V313.634H48.3652V308.385C48.3652 306.066 47.7993 303.829 46.8123 301.804L73.9773 286.121C75.239 287.988 76.893 289.595 78.9002 290.755L87.9945 296.006C90.3216 297.349 92.9294 298.021 95.5388 298.021C98.1466 298.021 100.756 297.349 103.083 296.006L112.176 290.755C114.185 289.595 115.839 287.988 117.1 286.121L144.264 301.804C143.277 303.829 142.711 306.066 142.711 308.385V313.634H144.851V308.385C144.851 303.773 147.332 299.475 151.325 297.171L160.419 291.92C162.378 290.789 164.618 290.191 166.895 290.191V288.052C164.242 288.052 161.633 288.748 159.349 290.067L150.255 295.318Z" fill="#E1E1E1"/>
</g>
<mask id="mask45_5682_420286" style="mask-type:luminance" maskUnits="userSpaceOnUse" x="0" y="313" width="49" height="26">
<path fill-rule="evenodd" clip-rule="evenodd" d="M0 313.347H48.3643V338.93H0V313.347Z" fill="white"/>
</mask>
<g mask="url(#mask45_5682_420286)">
<path fill-rule="evenodd" clip-rule="evenodd" d="M7.54433 331.665L16.6386 336.916C18.9657 338.259 21.5735 338.931 24.1829 338.931C26.7907 338.929 29.4001 338.259 31.7272 336.916L40.8199 331.665C45.4727 328.979 48.3643 323.972 48.3643 318.598V313.347H46.2243V318.598C46.2243 323.21 43.7447 327.508 39.7499 329.812L30.6572 335.063C26.6624 337.37 21.7003 337.369 17.7086 335.063L8.61432 329.812C6.65543 328.682 5.01798 327.041 3.88007 325.069C2.74065 323.098 2.13849 320.861 2.13849 318.598V313.347H0V318.598C0 321.236 0.701763 323.843 2.02681 326.139C3.35337 328.436 5.26096 330.346 7.54433 331.665Z" fill="#E1E1E1"/>
</g>
<mask id="mask46_5682_420286" style="mask-type:luminance" maskUnits="userSpaceOnUse" x="142" y="313" width="25" height="26">
<path fill-rule="evenodd" clip-rule="evenodd" d="M142.712 313.346H166.894V338.929H142.712V313.346Z" fill="white"/>
</mask>
<g mask="url(#mask46_5682_420286)">
<path fill-rule="evenodd" clip-rule="evenodd" d="M160.419 335.062L151.326 329.811C147.331 327.505 144.852 323.209 144.852 318.597V313.346H142.712V318.597C142.712 323.969 145.603 328.977 150.256 331.664L159.349 336.915C161.634 338.232 164.242 338.93 166.895 338.93V336.791C164.617 336.791 162.378 336.193 160.419 335.062Z" fill="#E1E1E1"/>
</g>
<mask id="mask47_5682_420286" style="mask-type:luminance" maskUnits="userSpaceOnUse" x="142" y="370" width="25" height="52">
<path fill-rule="evenodd" clip-rule="evenodd" d="M142.711 370.158H166.894V421.323H142.711V370.158Z" fill="white"/>
</mask>
<g mask="url(#mask47_5682_420286)">
<path fill-rule="evenodd" clip-rule="evenodd" d="M150.255 377.423C145.603 380.111 142.711 385.118 142.711 390.491V400.99C142.711 406.363 145.603 411.37 150.255 414.058L159.35 419.308C161.633 420.626 164.242 421.323 166.894 421.323V419.185C164.618 419.185 162.378 418.587 160.42 417.455L151.325 412.205C147.332 409.899 144.851 405.6 144.851 400.99V390.491C144.851 385.88 147.332 381.582 151.325 379.276L160.418 374.026C162.377 372.895 164.618 372.296 166.894 372.296V370.158C164.242 370.158 161.633 370.855 159.348 372.172L150.255 377.423Z" fill="#E1E1E1"/>
</g>
<mask id="mask48_5682_420286" style="mask-type:luminance" maskUnits="userSpaceOnUse" x="285" y="313" width="49" height="26">
<path fill-rule="evenodd" clip-rule="evenodd" d="M285.232 313.344H333.597V338.927H285.232V313.344Z" fill="white"/>
</mask>
<g mask="url(#mask48_5682_420286)">
<path fill-rule="evenodd" clip-rule="evenodd" d="M292.777 331.662L301.871 336.912C304.198 338.256 306.806 338.927 309.415 338.927C312.023 338.926 314.633 338.256 316.96 336.912L326.052 331.662C330.705 328.976 333.597 323.968 333.597 318.594V313.344H331.457V318.594C331.457 323.206 328.977 327.504 324.982 329.809L315.89 335.059C311.895 337.367 306.933 337.365 302.941 335.059L293.847 329.809C291.888 328.678 290.25 327.038 289.112 325.065C287.973 323.094 287.371 320.858 287.371 318.594V313.344H285.232V318.594C285.232 321.232 285.934 323.84 287.259 326.135C288.586 328.432 290.493 330.343 292.777 331.662Z" fill="#E1E1E1"/>
</g>
<mask id="mask49_5682_420286" style="mask-type:luminance" maskUnits="userSpaceOnUse" x="166" y="313" width="168" height="109">
<path fill-rule="evenodd" clip-rule="evenodd" d="M166.704 313.345H333.598V421.322H166.704V313.345Z" fill="white"/>
</mask>
<g mask="url(#mask49_5682_420286)">
<path fill-rule="evenodd" clip-rule="evenodd" d="M216.016 349.29C216.016 344.678 218.497 340.381 222.492 338.075L231.584 332.825C233.543 331.693 235.783 331.095 238.059 331.095C240.338 331.095 242.576 331.693 244.533 332.825L253.627 338.075C257.622 340.381 260.103 344.678 260.103 349.29V359.791C260.103 364.401 257.622 368.698 253.627 371.005L244.533 376.254C240.54 378.562 235.578 378.562 231.584 376.254L222.492 371.005C218.497 368.699 216.016 364.401 216.016 359.791V349.29ZM293.847 379.27L302.941 374.02C304.938 372.867 307.176 372.29 309.415 372.29C311.655 372.29 313.893 372.867 315.89 374.02L324.984 379.27C328.977 381.576 331.458 385.873 331.458 390.485V400.984C331.458 405.598 328.977 409.894 324.984 412.2L315.89 417.451C311.896 419.755 306.934 419.755 302.941 417.451L293.847 412.2C291.888 411.068 290.25 409.428 289.112 407.455C287.975 405.484 287.372 403.248 287.372 400.986V390.485C287.372 385.873 289.853 381.576 293.847 379.27ZM216.499 368.225C217.761 370.091 219.413 371.7 221.422 372.859L230.515 378.11C232.842 379.453 235.45 380.124 238.059 380.124C240.668 380.124 243.278 379.453 245.603 378.11L254.698 372.859C256.706 371.7 258.359 370.091 259.62 368.225L286.785 383.909C285.8 385.935 285.234 388.171 285.234 390.489V400.99C285.234 403.627 285.934 406.234 287.261 408.53C288.586 410.827 290.494 412.737 292.777 414.056L301.871 419.307C304.198 420.65 306.806 421.322 309.415 421.322C312.025 421.322 314.633 420.65 316.96 419.307L326.054 414.056C330.707 411.37 333.598 406.363 333.598 400.989V390.489C333.598 385.115 330.707 380.108 326.054 377.421L316.96 372.173C312.305 369.485 306.524 369.485 301.871 372.171L292.777 377.421C290.77 378.582 289.116 380.189 287.855 382.056L260.69 366.373C261.676 364.348 262.242 362.111 262.242 359.793V349.292C262.242 343.918 259.35 338.912 254.698 336.224L245.603 330.974C243.631 329.834 241.397 329.219 239.129 329.065V313.345H236.991V329.065C234.724 329.219 232.489 329.834 230.515 330.974L221.422 336.224C216.769 338.912 213.878 343.918 213.878 349.292V359.793C213.878 362.111 214.444 364.348 215.429 366.371L188.266 382.056C187.004 380.189 185.35 378.58 183.343 377.421L174.248 372.173C171.965 370.854 169.356 370.156 166.704 370.156V372.295C168.98 372.295 171.22 372.894 173.178 374.024L182.273 379.275C186.267 381.581 188.749 385.877 188.749 390.489V400.989C188.749 405.601 186.267 409.899 182.273 412.205L173.18 417.455C171.22 418.585 168.98 419.183 166.704 419.183V421.322C169.356 421.322 171.964 420.626 174.248 419.307L183.343 414.056C187.995 411.37 190.887 406.363 190.887 400.989V390.489C190.887 388.171 190.321 385.935 189.334 383.909L216.499 368.225Z" fill="#E1E1E1"/>
</g>
<mask id="mask50_5682_420286" style="mask-type:luminance" maskUnits="userSpaceOnUse" x="166" y="313" width="25" height="26">
<path fill-rule="evenodd" clip-rule="evenodd" d="M166.704 313.346H190.887V338.929H166.704V313.346Z" fill="white"/>
</mask>
<g mask="url(#mask50_5682_420286)">
<path fill-rule="evenodd" clip-rule="evenodd" d="M183.343 331.666C187.995 328.978 190.887 323.971 190.887 318.598V313.348H188.749V318.598C188.749 323.21 186.266 327.507 182.273 329.813L173.178 335.063C171.22 336.193 168.98 336.793 166.704 336.793V338.931C169.356 338.931 171.964 338.234 174.248 336.916L183.343 331.666Z" fill="#E1E1E1"/>
</g>
<mask id="mask51_5682_420286" style="mask-type:luminance" maskUnits="userSpaceOnUse" x="427" y="313" width="26" height="26">
<path fill-rule="evenodd" clip-rule="evenodd" d="M427.944 313.344H452.126V338.927H427.944V313.344Z" fill="white"/>
</mask>
<g mask="url(#mask51_5682_420286)">
<path fill-rule="evenodd" clip-rule="evenodd" d="M445.651 335.059L436.559 329.809C432.564 327.503 430.084 323.206 430.084 318.594V313.344H427.944V318.594C427.944 323.967 430.836 328.974 435.489 331.662L444.581 336.912C446.866 338.23 449.474 338.927 452.127 338.927V336.789C449.85 336.789 447.61 336.191 445.651 335.059Z" fill="#E1E1E1"/>
</g>
<mask id="mask52_5682_420286" style="mask-type:luminance" maskUnits="userSpaceOnUse" x="427" y="370" width="26" height="52">
<path fill-rule="evenodd" clip-rule="evenodd" d="M427.944 370.158H452.127V421.323H427.944V370.158Z" fill="white"/>
</mask>
<g mask="url(#mask52_5682_420286)">
<path fill-rule="evenodd" clip-rule="evenodd" d="M435.489 377.423C430.836 380.111 427.944 385.119 427.944 390.491V400.99C427.944 406.363 430.836 411.371 435.489 414.058L444.583 419.309C446.866 420.626 449.476 421.323 452.127 421.323V419.185C449.851 419.185 447.612 418.587 445.653 417.455L436.559 412.205C432.565 409.899 430.084 405.601 430.084 400.99V390.491C430.084 385.881 432.565 381.583 436.559 379.277L445.651 374.026C447.61 372.896 449.851 372.297 452.127 372.297V370.158C449.476 370.158 446.866 370.855 444.581 372.173L435.489 377.423Z" fill="#E1E1E1"/>
</g>
<mask id="mask53_5682_420286" style="mask-type:luminance" maskUnits="userSpaceOnUse" x="285" y="328" width="168" height="151">
<path fill-rule="evenodd" clip-rule="evenodd" d="M285.233 328.996H452.126V478.133H285.233V328.996Z" fill="white"/>
</mask>
<g mask="url(#mask53_5682_420286)">
<path fill-rule="evenodd" clip-rule="evenodd" d="M396.338 453.399L387.245 458.65C383.251 460.954 378.29 460.954 374.297 458.65L365.203 453.399C361.209 451.095 358.728 446.797 358.728 442.185V431.684C358.728 427.073 361.209 422.775 365.203 420.469L374.297 415.22C376.254 414.089 378.494 413.491 380.771 413.491C383.048 413.491 385.288 414.089 387.245 415.22L396.338 420.469C400.333 422.775 402.814 427.073 402.814 431.684V442.185C402.814 446.797 400.333 451.093 396.338 453.399ZM365.203 371.007C361.209 368.701 358.728 364.404 358.728 359.792V349.293C358.728 344.681 361.209 340.383 365.203 338.077L374.297 332.826C376.254 331.696 378.494 331.098 380.771 331.098C383.048 331.098 385.288 331.696 387.245 332.826L396.338 338.077C400.333 340.383 402.814 344.679 402.814 349.293V359.792C402.814 364.404 400.333 368.701 396.338 371.007L387.245 376.257C383.252 378.563 378.292 378.565 374.297 376.257L365.203 371.007ZM435.488 459.816C433.48 460.975 431.828 462.582 430.566 464.449L403.403 448.766C404.388 446.741 404.954 444.504 404.954 442.186V431.685C404.954 426.313 402.063 421.305 397.408 418.619L388.316 413.369C386.343 412.229 384.108 411.613 381.841 411.458V380.055C384.087 379.895 386.307 379.267 388.316 378.108L397.408 372.859C402.063 370.172 404.954 365.164 404.954 359.792V349.292C404.954 343.918 402.063 338.911 397.408 336.224L388.316 330.974C383.752 328.338 377.792 328.336 373.227 330.974L364.133 336.224C359.48 338.911 356.588 343.918 356.588 349.292V359.792C356.588 365.166 359.48 370.173 364.133 372.859L373.227 378.108C375.236 379.267 377.454 379.895 379.701 380.055V411.458C377.434 411.613 375.199 412.229 373.227 413.369L364.133 418.619C359.48 421.305 356.588 426.313 356.588 431.685V442.186C356.588 444.504 357.154 446.741 358.14 448.768L330.975 464.449C329.715 462.582 328.061 460.975 326.053 459.816L316.959 454.566C312.303 451.878 306.523 451.879 301.87 454.566L292.776 459.816C288.123 462.502 285.233 467.51 285.233 472.882V478.133H287.372V472.882C287.372 468.272 289.853 463.974 293.846 461.669L302.94 456.419C306.934 454.113 311.896 454.113 315.889 456.419L324.983 461.669C328.977 463.974 331.458 468.272 331.458 472.884V478.133H333.598V472.884C333.598 470.564 333.032 468.328 332.045 466.303L359.21 450.619C360.471 452.486 362.125 454.093 364.133 455.254L373.227 460.504C375.554 461.847 378.162 462.519 380.771 462.519C383.379 462.519 385.988 461.847 388.316 460.504L397.408 455.254C399.417 454.093 401.071 452.486 402.333 450.619L429.496 466.303C428.509 468.328 427.943 470.564 427.943 472.884V478.133H430.083V472.884C430.083 468.272 432.564 463.974 436.558 461.669L445.652 456.419C447.611 455.287 449.85 454.689 452.128 454.689V452.551C449.475 452.551 446.865 453.247 444.582 454.566L435.488 459.816Z" fill="#E1E1E1"/>
</g>
<mask id="mask54_5682_420286" style="mask-type:luminance" maskUnits="userSpaceOnUse" x="285" y="477" width="49" height="27">
<path fill-rule="evenodd" clip-rule="evenodd" d="M285.232 477.845H333.597V503.428H285.232V477.845Z" fill="white"/>
</mask>
<g mask="url(#mask54_5682_420286)">
<path fill-rule="evenodd" clip-rule="evenodd" d="M292.777 496.163L301.871 501.413C304.198 502.757 306.806 503.428 309.415 503.428C312.023 503.427 314.633 502.757 316.96 501.413L326.052 496.163C330.705 493.477 333.597 488.469 333.597 483.095V477.845H331.457V483.095C331.457 487.707 328.977 492.005 324.982 494.31L315.89 499.56C311.895 501.868 306.933 501.866 302.941 499.56L293.847 494.31C291.888 493.179 290.25 491.539 289.112 489.566C287.973 487.595 287.371 485.359 287.371 483.095V477.845H285.232V483.095C285.232 485.733 285.934 488.341 287.259 490.636C288.586 492.933 290.493 494.844 292.777 496.163Z" fill="#E1E1E1"/>
</g>
<mask id="mask55_5682_420286" style="mask-type:luminance" maskUnits="userSpaceOnUse" x="427" y="477" width="26" height="27">
<path fill-rule="evenodd" clip-rule="evenodd" d="M427.944 477.845H452.126V503.428H427.944V477.845Z" fill="white"/>
</mask>
<g mask="url(#mask55_5682_420286)">
<path fill-rule="evenodd" clip-rule="evenodd" d="M445.651 499.562L436.559 494.311C432.564 492.005 430.084 487.709 430.084 483.097V477.846H427.944V483.097C427.944 488.469 430.836 493.477 435.489 496.164L444.581 501.415C446.866 502.732 449.474 503.43 452.127 503.43V501.291C449.85 501.291 447.61 500.693 445.651 499.562Z" fill="#E1E1E1"/>
</g>
</svg>
