<svg width="142" height="126" viewBox="0 0 142 126" fill="none" xmlns="http://www.w3.org/2000/svg">
    <path fill-rule="evenodd" clip-rule="evenodd"
        d="M135.538 94.55L128.815 90.7953C127.126 89.852 125.199 89.3545 123.238 89.3545V90.8838C124.921 90.8838 126.576 91.3112 128.024 92.1206L134.747 95.8753C137.7 97.5234 139.535 100.597 139.535 103.895V107.649H141.116V103.895C141.116 100.052 138.978 96.4711 135.538 94.55Z"
        fill="#7F56D9" />
    <path fill-rule="evenodd" clip-rule="evenodd"
        d="M135.538 120.543C138.978 118.621 141.116 115.04 141.116 111.198V107.443H139.535V111.198C139.535 114.496 137.7 117.569 134.747 119.218L128.024 122.973C126.576 123.781 124.921 124.21 123.238 124.21V125.739C125.199 125.739 127.126 125.24 128.815 124.298L135.538 120.543Z"
        fill="#7F56D9" />
    <path fill-rule="evenodd" clip-rule="evenodd"
        d="M82.1394 89.9636L75.4175 93.7183C72.4644 95.3663 68.7972 95.3663 65.8451 93.7183L59.1221 89.9636C56.1701 88.3156 54.3359 85.2419 54.3359 81.9437V74.4342C54.3359 71.1371 56.1701 68.0634 59.1221 66.4143L65.8451 62.6607C67.2921 61.8512 68.9478 61.4238 70.6313 61.4238C72.3149 61.4238 73.9705 61.8512 75.4175 62.6607L82.1394 66.4143C85.0926 68.0634 86.9267 71.1371 86.9267 74.4342V81.9437C86.9267 85.2419 85.0926 88.3145 82.1394 89.9636ZM59.1221 31.0407C56.1701 29.3916 54.3359 26.319 54.3359 23.0208V15.5124C54.3359 12.2143 56.1701 9.14054 59.1221 7.49144L65.8451 3.73672C67.2921 2.92836 68.9478 2.50098 70.6313 2.50098C72.3149 2.50098 73.9705 2.92836 75.4175 3.73672L82.1394 7.49144C85.0926 9.14054 86.9267 12.2132 86.9267 15.5124V23.0208C86.9267 26.319 85.0926 29.3916 82.1394 31.0407L75.4175 34.7955C72.4655 36.4446 68.7983 36.4456 65.8451 34.7955L59.1221 31.0407ZM111.08 94.5516C109.597 95.3804 108.375 96.5298 107.442 97.8649L87.3615 86.6493C88.09 85.2009 88.5084 83.6015 88.5084 81.9437V74.4343C88.5084 70.5922 86.3708 67.0112 82.93 65.0901L76.2082 61.3354C74.75 60.5206 73.0977 60.0802 71.422 59.9691V37.512C73.0821 37.3976 74.7232 36.9486 76.2082 36.1198L82.93 32.3661C86.3708 30.444 88.5084 26.863 88.5084 23.0209V15.5125C88.5084 11.6693 86.3708 8.08833 82.93 6.16726L76.2082 2.41254C72.8344 0.527088 68.4286 0.526009 65.0538 2.41254L58.3308 6.16726C54.8912 8.08833 52.7536 11.6693 52.7536 15.5125V23.0209C52.7536 26.8641 54.8912 30.445 58.3308 32.3661L65.0538 36.1198C66.5387 36.9486 68.1787 37.3976 69.84 37.512V59.9691C68.1642 60.0802 66.5119 60.5206 65.0538 61.3354L58.3308 65.0901C54.8912 67.0112 52.7536 70.5922 52.7536 74.4343V81.9437C52.7536 83.6015 53.172 85.2009 53.9005 86.6504L33.8185 97.8649C32.887 96.5298 31.6642 95.3804 30.1804 94.5516L23.4574 90.7969C20.0156 88.8747 15.7426 88.8758 12.303 90.7969L5.57999 94.5516C2.1404 96.4726 0.00390625 100.054 0.00390625 103.896V107.65H1.5848V103.896C1.5848 100.599 3.41895 97.5249 6.371 95.8769L13.094 92.1222C16.046 90.4731 19.7143 90.4731 22.6664 92.1222L29.3894 95.8769C32.3414 97.5249 34.1756 100.599 34.1756 103.897V107.65H35.7576V103.897C35.7576 102.238 35.3392 100.639 34.6096 99.1902L54.6915 87.9746C55.6242 89.3096 56.847 90.459 58.3308 91.289L65.0538 95.0437C66.7741 96.0042 68.702 96.4845 70.631 96.4845C72.5588 96.4845 74.4878 96.0042 76.2082 95.0437L82.93 91.289C84.415 90.459 85.6378 89.3096 86.5705 87.9746L106.651 99.1902C105.922 100.639 105.503 102.238 105.503 103.897V107.65H107.085V103.897C107.085 100.599 108.919 97.5249 111.871 95.8769L118.594 92.1222C120.043 91.3127 121.698 90.8854 123.382 90.8854V89.356C121.42 89.356 119.491 89.8536 117.803 90.7969L111.08 94.5516Z"
        fill="#7F56D9" />
    <path fill-rule="evenodd" clip-rule="evenodd"
        d="M5.5772 120.541L12.3002 124.296C14.0205 125.257 15.9484 125.737 17.8774 125.737C19.8053 125.736 21.7342 125.257 23.4546 124.296L30.1765 120.541C33.6161 118.62 35.7537 115.039 35.7537 111.196V107.441H34.1717V111.196C34.1717 114.494 32.3386 117.568 29.3855 119.216L22.6636 122.971C19.7104 124.621 16.0421 124.62 13.0912 122.971L6.36821 119.216C4.92008 118.408 3.70958 117.235 2.86837 115.824C2.02604 114.414 1.5809 112.815 1.5809 111.196V107.441H0V111.196C0 113.083 0.518784 114.948 1.49834 116.589C2.479 118.232 3.8892 119.598 5.5772 120.541Z"
        fill="#7F56D9" />
    <path fill-rule="evenodd" clip-rule="evenodd"
        d="M118.59 122.971L111.868 119.216C108.915 117.567 107.082 114.494 107.082 111.196V107.441H105.5V111.196C105.5 115.038 107.638 118.619 111.077 120.541L117.799 124.296C119.488 125.238 121.416 125.737 123.377 125.737V124.208C121.694 124.208 120.038 123.78 118.59 122.971Z"
        fill="#7F56D9" />
    <path fill-rule="evenodd" clip-rule="evenodd"
        d="M83.6085 65.2965L75.2168 60.511C73.761 59.6808 72.1286 59.2656 70.4964 59.2656C68.864 59.2656 67.2319 59.6808 65.7761 60.511L57.3844 65.2965C54.4729 66.9569 52.6641 70.0513 52.6641 73.3721V82.943C52.6641 86.2638 54.4729 89.358 57.3844 91.0186L65.7761 95.8041C68.6879 97.4645 72.3052 97.4642 75.2168 95.8041L83.6085 91.0186C86.52 89.358 88.3286 86.2638 88.3286 82.943V73.3721C88.3286 70.0513 86.52 66.9569 83.6085 65.2965Z"
        fill="#7F56D9" />
    <path
        d="M70.5 82V78M70.5 74H70.51M80.5 78C80.5 83.5228 76.0228 88 70.5 88C64.9772 88 60.5 83.5228 60.5 78C60.5 72.4772 64.9772 68 70.5 68C76.0228 68 80.5 72.4772 80.5 78Z"
        stroke="white" stroke-width="2" stroke-linecap="round" stroke-linejoin="round" />
</svg>