<?xml version="1.0" encoding="utf-8"?>
<!-- Generator: Adobe Illustrator 25.4.0, SVG Export Plug-In . SVG Version: 6.00 Build 0)  -->
<svg version="1.1" id="Layer_1" xmlns="http://www.w3.org/2000/svg" xmlns:xlink="http://www.w3.org/1999/xlink" x="0px" y="0px"
	 viewBox="0 0 874 376.3" style="enable-background:new 0 0 874 376.3;" xml:space="preserve">
<style type="text/css">
	.st0{fill-rule:evenodd;clip-rule:evenodd;fill:#EAECF0;}
	.st1{fill-rule:evenodd;clip-rule:evenodd;fill:#FFFFFF;filter:url(#Adobe_OpacityMaskFilter);}
	.st2{mask:url(#mask0_7430_492106_00000077300498214329841470000007311649830135636870_);}
	
		.st3{fill-rule:evenodd;clip-rule:evenodd;fill:#FFFFFF;filter:url(#Adobe_OpacityMaskFilter_00000139280332378901474300000013555189750376643980_);}
	.st4{mask:url(#mask1_7430_492106_00000089563518695425778100000001136933317820697258_);}
	.st5{fill-rule:evenodd;clip-rule:evenodd;fill:#7F56D9;}
	
		.st6{fill-rule:evenodd;clip-rule:evenodd;fill:#FFFFFF;filter:url(#Adobe_OpacityMaskFilter_00000181786043601080318100000016778024631756727170_);}
	.st7{mask:url(#mask2_7430_492106_00000057113997356662347540000010953699548376477832_);}
	
		.st8{fill-rule:evenodd;clip-rule:evenodd;fill:#FFFFFF;filter:url(#Adobe_OpacityMaskFilter_00000011752140478901686280000017646513156496702860_);}
	.st9{mask:url(#mask3_7430_492106_00000082352153541707666000000000325014692980107153_);}
	
		.st10{fill-rule:evenodd;clip-rule:evenodd;fill:#FFFFFF;filter:url(#Adobe_OpacityMaskFilter_00000006695014080309658460000002625289023938542771_);}
	.st11{mask:url(#mask4_7430_492106_00000043425306609368161300000016584299160216148900_);}
	
		.st12{fill-rule:evenodd;clip-rule:evenodd;fill:#FFFFFF;filter:url(#Adobe_OpacityMaskFilter_00000141431862793734419760000009578249262112699565_);}
	.st13{mask:url(#mask5_7430_492106_00000050665456156455562800000017200903402349608354_);}
	
		.st14{fill-rule:evenodd;clip-rule:evenodd;fill:#FFFFFF;filter:url(#Adobe_OpacityMaskFilter_00000138566239032425783450000008312046786028399488_);}
	.st15{mask:url(#mask6_7430_492106_00000150780808766587120020000001696562575450798994_);}
	
		.st16{fill-rule:evenodd;clip-rule:evenodd;fill:#FFFFFF;filter:url(#Adobe_OpacityMaskFilter_00000107551509098128705230000017492453401976210856_);}
	.st17{mask:url(#mask7_7430_492106_00000102540873683844465280000009193400220996997763_);}
	
		.st18{fill-rule:evenodd;clip-rule:evenodd;fill:#FFFFFF;filter:url(#Adobe_OpacityMaskFilter_00000074430693233284332310000001802989790080858013_);}
	.st19{mask:url(#mask8_7430_492106_00000081623444099868426770000006808939328311229329_);}
	
		.st20{fill-rule:evenodd;clip-rule:evenodd;fill:#FFFFFF;filter:url(#Adobe_OpacityMaskFilter_00000026137916636381511140000000115091033900655525_);}
	.st21{mask:url(#mask9_7430_492106_00000176731449630644074230000005545523505516290953_);}
	
		.st22{fill-rule:evenodd;clip-rule:evenodd;fill:#FFFFFF;filter:url(#Adobe_OpacityMaskFilter_00000000909928739503099880000006626225076132629158_);}
	.st23{mask:url(#mask10_7430_492106_00000150078114976530148820000012896442027576564155_);}
	
		.st24{fill-rule:evenodd;clip-rule:evenodd;fill:#FFFFFF;filter:url(#Adobe_OpacityMaskFilter_00000065050075127389047260000005203592050480020411_);}
	.st25{mask:url(#mask11_7430_492106_00000075872209614993071000000009939930581389296005_);}
	
		.st26{fill-rule:evenodd;clip-rule:evenodd;fill:#FFFFFF;filter:url(#Adobe_OpacityMaskFilter_00000114757862295922782060000014403424676216202670_);}
	.st27{mask:url(#mask12_7430_492106_00000162352725790167757860000018090873933142514057_);}
	
		.st28{fill-rule:evenodd;clip-rule:evenodd;fill:#FFFFFF;filter:url(#Adobe_OpacityMaskFilter_00000066502659398167482900000014616264062783173558_);}
	.st29{mask:url(#mask13_7430_492106_00000146463870617752004330000015351914309662440355_);}
	
		.st30{fill-rule:evenodd;clip-rule:evenodd;fill:#FFFFFF;filter:url(#Adobe_OpacityMaskFilter_00000108274574139504985260000010263554144488402864_);}
	.st31{mask:url(#mask14_7430_492106_00000041262982306871550460000017738206716281219223_);}
	
		.st32{fill-rule:evenodd;clip-rule:evenodd;fill:#FFFFFF;filter:url(#Adobe_OpacityMaskFilter_00000075122070843250556840000002967819460282807471_);}
	.st33{mask:url(#mask15_7430_492106_00000020375641382548330580000008390017835225500326_);}
	
		.st34{fill-rule:evenodd;clip-rule:evenodd;fill:#FFFFFF;filter:url(#Adobe_OpacityMaskFilter_00000003064601401687475930000002541233218310210208_);}
	.st35{mask:url(#mask16_7430_492106_00000038413661358310634520000013634738022448461483_);}
	
		.st36{fill-rule:evenodd;clip-rule:evenodd;fill:#FFFFFF;filter:url(#Adobe_OpacityMaskFilter_00000090979288274756811530000004390611858089537469_);}
	.st37{mask:url(#mask17_7430_492106_00000131334944242439431690000005099914864420381068_);}
	
		.st38{fill-rule:evenodd;clip-rule:evenodd;fill:#FFFFFF;filter:url(#Adobe_OpacityMaskFilter_00000129207426173091224650000013089274230961972367_);}
	.st39{mask:url(#mask18_7430_492106_00000025402405637656613360000002535050215409213584_);}
	
		.st40{fill-rule:evenodd;clip-rule:evenodd;fill:#FFFFFF;filter:url(#Adobe_OpacityMaskFilter_00000051384310456155094080000005143077777770431635_);}
	.st41{mask:url(#mask19_7430_492106_00000127044505415462344780000015033896973024501943_);}
	.st42{fill:none;stroke:#FFFFFF;stroke-width:2;stroke-linecap:round;stroke-linejoin:round;}
</style>
<path class="st0" d="M626,125.7c0,5.1-2.8,9.9-7.4,12.5l-10.4,5.8c-4.6,2.6-10.3,2.6-14.9,0l-10.4-5.8c-4.6-2.6-7.4-7.3-7.4-12.5
	V114c0-5.1,2.8-9.9,7.4-12.5l10.4-5.8c2.2-1.3,4.8-1.9,7.4-1.9c2.6,0,5.2,0.7,7.4,1.9l10.4,5.8c4.6,2.6,7.4,7.3,7.4,12.5V125.7z
	 M619.8,99.5l-10.4-5.8c-5.2-2.9-12.1-2.9-17.3,0l-10.4,5.8c-5.3,3-8.7,8.5-8.7,14.5v11.7c0,6,3.3,11.5,8.7,14.5L592,146
	c2.3,1.3,4.9,2,7.4,2.2v17.4h2.5v-17.4c2.6-0.2,5.1-0.9,7.4-2.2l10.4-5.8c5.3-3,8.7-8.5,8.7-14.5V114
	C628.4,108.1,625.1,102.5,619.8,99.5z"/>
<path class="st0" d="M537.9,145.3l-10.4-5.8c-2.6-1.5-5.6-2.2-8.7-2.2v2.4c2.6,0,5.2,0.7,7.4,1.9l10.4,5.8c4.6,2.6,7.4,7.3,7.4,12.5
	v5.8h2.5v-5.8C546.5,153.8,543.2,148.2,537.9,145.3z"/>
<path class="st0" d="M865.3,327.9l-10.4-5.8c-2.6-1.5-5.6-2.2-8.7-2.2v2.4c2.6,0,5.2,0.7,7.4,1.9L864,330c4.6,2.6,7.4,7.3,7.4,12.5
	v5.8h2.5v-5.8C873.9,336.5,870.6,330.9,865.3,327.9z"/>
<defs>
	<filter id="Adobe_OpacityMaskFilter" filterUnits="userSpaceOnUse" x="518.8" y="165.3" width="191.6" height="119.9">
		<feColorMatrix  type="matrix" values="1 0 0 0 0  0 1 0 0 0  0 0 1 0 0  0 0 0 1 0"/>
	</filter>
</defs>
<mask maskUnits="userSpaceOnUse" x="518.8" y="165.3" width="191.6" height="119.9" id="mask0_7430_492106_00000077300498214329841470000007311649830135636870_">
	<path class="st1" d="M518.8,165.3h191.6v119.9H518.8V165.3z"/>
</mask>
<g class="st2">
	<path class="st0" d="M575.4,205.2c0-5.1,2.8-9.9,7.4-12.5l10.4-5.8c2.2-1.3,4.8-1.9,7.4-1.9c2.6,0,5.2,0.7,7.4,1.9l10.4,5.8
		c4.6,2.6,7.4,7.3,7.4,12.5v11.7c0,5.1-2.8,9.9-7.4,12.5l-10.4,5.8c-4.6,2.6-10.3,2.6-14.9,0l-10.4-5.8c-4.6-2.6-7.4-7.3-7.4-12.5
		V205.2z M664.7,238.5l10.4-5.8c2.3-1.3,4.9-1.9,7.4-1.9c2.6,0,5.1,0.6,7.4,1.9l10.4,5.8c4.6,2.6,7.4,7.3,7.4,12.5v11.7
		c0,5.1-2.8,9.9-7.4,12.5l-10.4,5.8c-4.6,2.6-10.3,2.6-14.9,0l-10.4-5.8c-2.2-1.3-4.1-3.1-5.4-5.3c-1.3-2.2-2-4.7-2-7.2v-11.7
		C657.3,245.8,660.1,241,664.7,238.5z M575.9,226.2c1.4,2.1,3.3,3.9,5.6,5.1l10.4,5.8c2.7,1.5,5.7,2.2,8.7,2.2s6-0.7,8.7-2.2
		l10.4-5.8c2.3-1.3,4.2-3.1,5.6-5.1l31.2,17.4c-1.1,2.2-1.8,4.7-1.8,7.3v11.7c0,2.9,0.8,5.8,2.3,8.4c1.5,2.5,3.7,4.7,6.3,6.1
		l10.4,5.8c2.7,1.5,5.7,2.2,8.7,2.2c3,0,6-0.7,8.7-2.2l10.4-5.8c5.3-3,8.7-8.5,8.7-14.5v-11.7c0-6-3.3-11.5-8.7-14.5l-10.4-5.8
		c-5.3-3-12-3-17.3,0l-10.4,5.8c-2.3,1.3-4.2,3.1-5.6,5.1l-31.2-17.4c1.1-2.2,1.8-4.7,1.8-7.3v-11.7c0-6-3.3-11.5-8.7-14.5
		l-10.4-5.8c-2.3-1.3-4.8-1.9-7.4-2.1v-17.5h-2.5v17.5c-2.6,0.2-5.2,0.9-7.4,2.1l-10.4,5.8c-5.3,3-8.7,8.5-8.7,14.5v11.7
		c0,2.6,0.6,5.1,1.8,7.3l-31.2,17.4c-1.4-2.1-3.3-3.9-5.7-5.1l-10.4-5.8c-2.6-1.5-5.6-2.2-8.7-2.2v2.4c2.6,0,5.2,0.7,7.4,1.9
		l10.4,5.8c4.6,2.6,7.4,7.3,7.4,12.5v11.7c0,5.1-2.8,9.9-7.4,12.5l-10.4,5.8c-2.2,1.3-4.8,1.9-7.4,1.9v2.4c3,0,6-0.8,8.7-2.2
		l10.4-5.8c5.3-3,8.7-8.5,8.7-14.5v-11.7c0-2.6-0.7-5.1-1.8-7.3L575.9,226.2z"/>
</g>
<defs>
	
		<filter id="Adobe_OpacityMaskFilter_00000013897660298720081580000015927616927687553158_" filterUnits="userSpaceOnUse" x="518.8" y="165.3" width="27.8" height="28.4">
		<feColorMatrix  type="matrix" values="1 0 0 0 0  0 1 0 0 0  0 0 1 0 0  0 0 0 1 0"/>
	</filter>
</defs>
<mask maskUnits="userSpaceOnUse" x="518.8" y="165.3" width="27.8" height="28.4" id="mask1_7430_492106_00000089563518695425778100000001136933317820697258_">
	
		<path style="fill-rule:evenodd;clip-rule:evenodd;fill:#FFFFFF;filter:url(#Adobe_OpacityMaskFilter_00000013897660298720081580000015927616927687553158_);" d="
		M518.8,165.3h27.8v28.4h-27.8V165.3z"/>
</mask>
<g class="st4">
	<path class="st0" d="M537.9,185.6c5.3-3,8.7-8.5,8.7-14.5v-5.8h-2.5v5.8c0,5.1-2.8,9.9-7.4,12.5l-10.4,5.8
		c-2.2,1.3-4.8,1.9-7.4,1.9v2.4c3,0,6-0.8,8.7-2.2L537.9,185.6z"/>
</g>
<path class="st5" d="M537.9,327.9l-10.4-5.8c-2.6-1.5-5.6-2.2-8.7-2.2v2.4c2.6,0,5.2,0.7,7.4,1.9l10.4,5.8c4.6,2.6,7.4,7.3,7.4,12.5
	v5.8h2.5v-5.8C546.5,336.5,543.2,330.9,537.9,327.9z"/>
<defs>
	
		<filter id="Adobe_OpacityMaskFilter_00000071530650244612989200000014464343054517329066_" filterUnits="userSpaceOnUse" x="654.8" y="182.7" width="191.6" height="165.6">
		<feColorMatrix  type="matrix" values="1 0 0 0 0  0 1 0 0 0  0 0 1 0 0  0 0 0 1 0"/>
	</filter>
</defs>
<mask maskUnits="userSpaceOnUse" x="654.8" y="182.7" width="191.6" height="165.6" id="mask2_7430_492106_00000057113997356662347540000010953699548376477832_">
	
		<path style="fill-rule:evenodd;clip-rule:evenodd;fill:#FFFFFF;filter:url(#Adobe_OpacityMaskFilter_00000071530650244612989200000014464343054517329066_);" d="
		M654.8,182.7h191.6v165.6H654.8V182.7z"/>
</mask>
<g class="st7">
	<path class="st0" d="M782.3,320.8l-10.4,5.8c-4.6,2.6-10.3,2.6-14.9,0l-10.4-5.8c-4.6-2.6-7.4-7.3-7.4-12.5v-11.7
		c0-5.1,2.8-9.9,7.4-12.5l10.4-5.8c2.2-1.3,4.8-1.9,7.4-1.9c2.6,0,5.2,0.7,7.4,1.9l10.4,5.8c4.6,2.6,7.4,7.3,7.4,12.5v11.7
		C789.8,313.5,786.9,318.2,782.3,320.8z M746.6,229.3c-4.6-2.6-7.4-7.3-7.4-12.5v-11.7c0-5.1,2.8-9.9,7.4-12.5l10.4-5.8
		c2.2-1.3,4.8-1.9,7.4-1.9c2.6,0,5.2,0.7,7.4,1.9l10.4,5.8c4.6,2.6,7.4,7.3,7.4,12.5v11.7c0,5.1-2.8,9.9-7.4,12.5l-10.4,5.8
		c-4.6,2.6-10.3,2.6-14.9,0L746.6,229.3z M827.3,327.9c-2.3,1.3-4.2,3.1-5.6,5.1l-31.2-17.4c1.1-2.2,1.8-4.7,1.8-7.3v-11.7
		c0-6-3.3-11.5-8.7-14.5l-10.4-5.8c-2.3-1.3-4.8-1.9-7.4-2.1v-34.9c2.6-0.2,5.1-0.9,7.4-2.2l10.4-5.8c5.3-3,8.7-8.5,8.7-14.5v-11.7
		c0-6-3.3-11.5-8.7-14.5l-10.4-5.8c-5.2-2.9-12.1-2.9-17.3,0l-10.4,5.8c-5.3,3-8.7,8.5-8.7,14.5v11.7c0,6,3.3,11.5,8.7,14.5
		l10.4,5.8c2.3,1.3,4.9,2,7.4,2.2v34.9c-2.6,0.2-5.2,0.9-7.4,2.1l-10.4,5.8c-5.3,3-8.7,8.5-8.7,14.5v11.7c0,2.6,0.6,5.1,1.8,7.3
		l-31.2,17.4c-1.4-2.1-3.3-3.9-5.6-5.1l-10.4-5.8c-5.3-3-12-3-17.3,0l-10.4,5.8c-5.3,3-8.7,8.5-8.7,14.5v5.8h2.5v-5.8
		c0-5.1,2.8-9.9,7.4-12.5l10.4-5.8c4.6-2.6,10.3-2.6,14.9,0l10.4,5.8c4.6,2.6,7.4,7.3,7.4,12.5v5.8h2.5v-5.8c0-2.6-0.6-5.1-1.8-7.3
		l31.2-17.4c1.4,2.1,3.3,3.9,5.7,5.1l10.4,5.8c2.7,1.5,5.7,2.2,8.7,2.2c3,0,6-0.7,8.7-2.2l10.4-5.8c2.3-1.3,4.2-3.1,5.7-5.1
		l31.2,17.4c-1.1,2.2-1.8,4.7-1.8,7.3v5.8h2.5v-5.8c0-5.1,2.8-9.9,7.4-12.5l10.4-5.8c2.2-1.3,4.8-1.9,7.4-1.9v-2.4
		c-3,0-6,0.8-8.7,2.2L827.3,327.9z"/>
</g>
<defs>
	
		<filter id="Adobe_OpacityMaskFilter_00000074432258021133829730000003834824725506108804_" filterUnits="userSpaceOnUse" x="654.8" y="347.9" width="55.5" height="28.4">
		<feColorMatrix  type="matrix" values="1 0 0 0 0  0 1 0 0 0  0 0 1 0 0  0 0 0 1 0"/>
	</filter>
</defs>
<mask maskUnits="userSpaceOnUse" x="654.8" y="347.9" width="55.5" height="28.4" id="mask3_7430_492106_00000082352153541707666000000000325014692980107153_">
	
		<path style="fill-rule:evenodd;clip-rule:evenodd;fill:#FFFFFF;filter:url(#Adobe_OpacityMaskFilter_00000074432258021133829730000003834824725506108804_);" d="
		M654.8,347.9h55.5v28.4h-55.5V347.9z"/>
</mask>
<g class="st9">
	<path class="st0" d="M663.5,368.3l10.4,5.8c2.7,1.5,5.7,2.2,8.7,2.2c3,0,6-0.7,8.7-2.2l10.4-5.8c5.3-3,8.7-8.5,8.7-14.5v-5.8h-2.5
		v5.8c0,5.1-2.8,9.9-7.4,12.5L690,372c-4.6,2.6-10.3,2.6-14.9,0l-10.4-5.8c-2.2-1.3-4.1-3.1-5.4-5.3c-1.3-2.2-2-4.7-2-7.2v-5.8h-2.5
		v5.8c0,2.9,0.8,5.8,2.3,8.4C658.7,364.7,660.8,366.8,663.5,368.3z"/>
</g>
<defs>
	
		<filter id="Adobe_OpacityMaskFilter_00000070092829050131757820000010853687306501008032_" filterUnits="userSpaceOnUse" x="518.8" y="347.9" width="27.8" height="28.4">
		<feColorMatrix  type="matrix" values="1 0 0 0 0  0 1 0 0 0  0 0 1 0 0  0 0 0 1 0"/>
	</filter>
</defs>
<mask maskUnits="userSpaceOnUse" x="518.8" y="347.9" width="27.8" height="28.4" id="mask4_7430_492106_00000043425306609368161300000016584299160216148900_">
	
		<path style="fill-rule:evenodd;clip-rule:evenodd;fill:#FFFFFF;filter:url(#Adobe_OpacityMaskFilter_00000070092829050131757820000010853687306501008032_);" d="
		M518.8,347.9h27.8v28.4h-27.8V347.9z"/>
</mask>
<g class="st11">
	<path class="st5" d="M537.9,368.3c5.3-3,8.7-8.5,8.7-14.5v-5.8h-2.5v5.8c0,5.1-2.8,9.9-7.4,12.5l-10.4,5.8
		c-2.2,1.3-4.8,1.9-7.4,1.9v2.4c3,0,6-0.8,8.7-2.2L537.9,368.3z"/>
</g>
<defs>
	
		<filter id="Adobe_OpacityMaskFilter_00000067221918315192227380000005652562032033673131_" filterUnits="userSpaceOnUse" x="818.6" y="347.9" width="27.8" height="28.4">
		<feColorMatrix  type="matrix" values="1 0 0 0 0  0 1 0 0 0  0 0 1 0 0  0 0 0 1 0"/>
	</filter>
</defs>
<mask maskUnits="userSpaceOnUse" x="818.6" y="347.9" width="27.8" height="28.4" id="mask5_7430_492106_00000050665456156455562800000017200903402349608354_">
	
		<path style="fill-rule:evenodd;clip-rule:evenodd;fill:#FFFFFF;filter:url(#Adobe_OpacityMaskFilter_00000067221918315192227380000005652562032033673131_);" d="
		M818.6,347.9h27.8v28.4h-27.8V347.9z"/>
</mask>
<g class="st13">
	<path class="st0" d="M838.9,372l-10.4-5.8c-4.6-2.6-7.4-7.3-7.4-12.5v-5.8h-2.5v5.8c0,6,3.3,11.5,8.7,14.5l10.4,5.8
		c2.6,1.5,5.6,2.2,8.7,2.2V374C843.8,374,841.2,373.3,838.9,372z"/>
</g>
<defs>
	
		<filter id="Adobe_OpacityMaskFilter_00000084523182390381792030000010568894750622214785_" filterUnits="userSpaceOnUse" x="846.2" y="347.9" width="27.8" height="28.4">
		<feColorMatrix  type="matrix" values="1 0 0 0 0  0 1 0 0 0  0 0 1 0 0  0 0 0 1 0"/>
	</filter>
</defs>
<mask maskUnits="userSpaceOnUse" x="846.2" y="347.9" width="27.8" height="28.4" id="mask6_7430_492106_00000150780808766587120020000001696562575450798994_">
	
		<path style="fill-rule:evenodd;clip-rule:evenodd;fill:#FFFFFF;filter:url(#Adobe_OpacityMaskFilter_00000084523182390381792030000010568894750622214785_);" d="
		M846.2,347.9h27.8v28.4h-27.8V347.9z"/>
</mask>
<g class="st15">
	<path class="st0" d="M865.3,368.3c5.3-3,8.7-8.5,8.7-14.5v-5.8h-2.5v5.8c0,5.1-2.9,9.9-7.4,12.5l-10.4,5.8
		c-2.2,1.3-4.8,1.9-7.4,1.9v2.4c3,0,6-0.8,8.7-2.2L865.3,368.3z"/>
</g>
<path class="st0" d="M298.6,125.7c0,5.1-2.8,9.9-7.4,12.5l-10.4,5.8c-4.6,2.6-10.3,2.6-14.9,0l-10.4-5.8c-4.6-2.6-7.4-7.3-7.4-12.5
	V114c0-5.1,2.8-9.9,7.4-12.5l10.4-5.8c2.2-1.3,4.8-1.9,7.4-1.9c2.6,0,5.2,0.7,7.4,1.9l10.4,5.8c4.6,2.6,7.4,7.3,7.4,12.5V125.7z
	 M292.3,99.5l-10.4-5.8c-5.2-2.9-12.1-2.9-17.3,0l-10.4,5.8c-5.3,3-8.7,8.5-8.7,14.5v11.7c0,6,3.3,11.5,8.7,14.5l10.4,5.8
	c2.3,1.3,4.9,2,7.4,2.2v17.4h2.5v-17.4c2.6-0.2,5.1-0.9,7.4-2.2l10.4-5.8c5.3-3,8.7-8.5,8.7-14.5V114
	C301,108.1,297.7,102.5,292.3,99.5z"/>
<defs>
	
		<filter id="Adobe_OpacityMaskFilter_00000081607974134938788930000006964048420023592359_" filterUnits="userSpaceOnUse" x="327.4" y="0" width="191.6" height="165.6">
		<feColorMatrix  type="matrix" values="1 0 0 0 0  0 1 0 0 0  0 0 1 0 0  0 0 0 1 0"/>
	</filter>
</defs>
<mask maskUnits="userSpaceOnUse" x="327.4" y="0" width="191.6" height="165.6" id="mask7_7430_492106_00000102540873683844465280000009193400220996997763_">
	
		<path style="fill-rule:evenodd;clip-rule:evenodd;fill:#FFFFFF;filter:url(#Adobe_OpacityMaskFilter_00000081607974134938788930000006964048420023592359_);" d="
		M327.4,0H519v165.6H327.4V0z"/>
</mask>
<g class="st17">
	<path class="st0" d="M454.9,138.1l-10.4,5.8c-4.6,2.6-10.3,2.6-14.9,0l-10.4-5.8c-4.6-2.6-7.4-7.3-7.4-12.5V114
		c0-5.1,2.8-9.9,7.4-12.5l10.4-5.8c2.2-1.3,4.8-1.9,7.4-1.9c2.6,0,5.2,0.7,7.4,1.9l10.4,5.8c4.6,2.6,7.4,7.3,7.4,12.5v11.7
		C462.4,130.8,459.5,135.6,454.9,138.1z M419.2,46.6c-4.6-2.6-7.4-7.3-7.4-12.5V22.5c0-5.1,2.8-9.9,7.4-12.5l10.4-5.8
		c2.2-1.3,4.8-1.9,7.4-1.9c2.6,0,5.2,0.7,7.4,1.9l10.4,5.8c4.6,2.6,7.4,7.3,7.4,12.5v11.7c0,5.1-2.8,9.9-7.4,12.5l-10.4,5.8
		c-4.6,2.6-10.3,2.6-14.9,0L419.2,46.6z M499.9,145.3c-2.3,1.3-4.2,3.1-5.6,5.1L463,133c1.1-2.2,1.8-4.7,1.8-7.3V114
		c0-6-3.3-11.5-8.7-14.5l-10.4-5.8c-2.3-1.3-4.8-1.9-7.4-2.1V56.7c2.6-0.2,5.1-0.9,7.4-2.2l10.4-5.8c5.3-3,8.7-8.5,8.7-14.5V22.5
		c0-6-3.3-11.5-8.7-14.5l-10.4-5.8c-5.2-2.9-12.1-2.9-17.3,0L418,8c-5.3,3-8.7,8.5-8.7,14.5v11.7c0,6,3.3,11.5,8.7,14.5l10.4,5.8
		c2.3,1.3,4.9,2,7.4,2.2v34.9c-2.6,0.2-5.2,0.9-7.4,2.1L418,99.5c-5.3,3-8.7,8.5-8.7,14.5v11.7c0,2.6,0.6,5.1,1.8,7.3l-31.2,17.4
		c-1.4-2.1-3.3-3.9-5.6-5.1l-10.4-5.8c-5.3-3-12-3-17.3,0l-10.4,5.8c-5.3,3-8.7,8.5-8.7,14.5v5.8h2.5v-5.8c0-5.1,2.8-9.9,7.4-12.5
		l10.4-5.8c4.6-2.6,10.3-2.6,14.9,0l10.4,5.8c4.6,2.6,7.4,7.3,7.4,12.5v5.8h2.5v-5.8c0-2.6-0.6-5.1-1.8-7.3l31.2-17.4
		c1.4,2.1,3.3,3.9,5.6,5.1l10.4,5.8c2.7,1.5,5.7,2.2,8.7,2.2c3,0,6-0.7,8.7-2.2l10.4-5.8c2.3-1.3,4.2-3.1,5.7-5.1l31.2,17.4
		c-1.1,2.2-1.8,4.7-1.8,7.3v5.8h2.5v-5.8c0-5.1,2.8-9.9,7.4-12.5l10.4-5.8c2.2-1.3,4.8-1.9,7.4-1.9v-2.4c-3,0-6,0.8-8.7,2.2
		L499.9,145.3z"/>
</g>
<defs>
	
		<filter id="Adobe_OpacityMaskFilter_00000145780853827713195410000016304578737399010715_" filterUnits="userSpaceOnUse" x="327.4" y="165.3" width="55.5" height="28.4">
		<feColorMatrix  type="matrix" values="1 0 0 0 0  0 1 0 0 0  0 0 1 0 0  0 0 0 1 0"/>
	</filter>
</defs>
<mask maskUnits="userSpaceOnUse" x="327.4" y="165.3" width="55.5" height="28.4" id="mask8_7430_492106_00000081623444099868426770000006808939328311229329_">
	
		<path style="fill-rule:evenodd;clip-rule:evenodd;fill:#FFFFFF;filter:url(#Adobe_OpacityMaskFilter_00000145780853827713195410000016304578737399010715_);" d="
		M327.4,165.3h55.5v28.4h-55.5V165.3z"/>
</mask>
<g class="st19">
	<path class="st0" d="M336.1,185.6l10.4,5.8c2.7,1.5,5.7,2.2,8.7,2.2c3,0,6-0.7,8.7-2.2l10.4-5.8c5.3-3,8.7-8.5,8.7-14.5v-5.8h-2.5
		v5.8c0,5.1-2.8,9.9-7.4,12.5l-10.4,5.8c-4.6,2.6-10.3,2.6-14.9,0l-10.4-5.8c-2.2-1.3-4.1-3.1-5.4-5.3c-1.3-2.2-2-4.7-2-7.2v-5.8
		h-2.5v5.8c0,2.9,0.8,5.8,2.3,8.4C331.2,182,333.4,184.2,336.1,185.6z"/>
</g>
<defs>
	
		<filter id="Adobe_OpacityMaskFilter_00000183225913715645998310000009586494468478267576_" filterUnits="userSpaceOnUse" x="191.3" y="165.3" width="191.6" height="119.9">
		<feColorMatrix  type="matrix" values="1 0 0 0 0  0 1 0 0 0  0 0 1 0 0  0 0 0 1 0"/>
	</filter>
</defs>
<mask maskUnits="userSpaceOnUse" x="191.3" y="165.3" width="191.6" height="119.9" id="mask9_7430_492106_00000176731449630644074230000005545523505516290953_">
	
		<path style="fill-rule:evenodd;clip-rule:evenodd;fill:#FFFFFF;filter:url(#Adobe_OpacityMaskFilter_00000183225913715645998310000009586494468478267576_);" d="
		M191.3,165.3h191.6v119.9H191.3V165.3z"/>
</mask>
<g class="st21">
	<path class="st0" d="M247.9,205.2c0-5.1,2.8-9.9,7.4-12.5l10.4-5.8c2.2-1.3,4.8-1.9,7.4-1.9c2.6,0,5.2,0.7,7.4,1.9l10.4,5.8
		c4.6,2.6,7.4,7.3,7.4,12.5v11.7c0,5.1-2.8,9.9-7.4,12.5l-10.4,5.8c-4.6,2.6-10.3,2.6-14.9,0l-10.4-5.8c-4.6-2.6-7.4-7.3-7.4-12.5
		V205.2z M337.3,238.5l10.4-5.8c2.3-1.3,4.9-1.9,7.4-1.9c2.6,0,5.1,0.6,7.4,1.9l10.4,5.8c4.6,2.6,7.4,7.3,7.4,12.5v11.7
		c0,5.1-2.8,9.9-7.4,12.5l-10.4,5.8c-4.6,2.6-10.3,2.6-14.9,0l-10.4-5.8c-2.2-1.3-4.1-3.1-5.4-5.3c-1.3-2.2-2-4.7-2-7.2v-11.7
		C329.9,245.8,332.7,241,337.3,238.5z M248.5,226.2c1.4,2.1,3.3,3.9,5.6,5.1l10.4,5.8c2.7,1.5,5.7,2.2,8.7,2.2c3,0,6-0.7,8.7-2.2
		l10.4-5.8c2.3-1.3,4.2-3.1,5.7-5.1l31.2,17.4c-1.1,2.2-1.8,4.7-1.8,7.3v11.7c0,2.9,0.8,5.8,2.3,8.4c1.5,2.5,3.7,4.7,6.3,6.1
		l10.4,5.8c2.7,1.5,5.7,2.2,8.7,2.2s6-0.7,8.7-2.2l10.4-5.8c5.3-3,8.7-8.5,8.7-14.5v-11.7c0-6-3.3-11.5-8.7-14.5l-10.4-5.8
		c-5.3-3-12-3-17.3,0l-10.4,5.8c-2.3,1.3-4.2,3.1-5.6,5.1l-31.2-17.4c1.1-2.2,1.8-4.7,1.8-7.3v-11.7c0-6-3.3-11.5-8.7-14.5
		l-10.4-5.8c-2.3-1.3-4.8-1.9-7.4-2.1v-17.5H272v17.5c-2.6,0.2-5.2,0.9-7.4,2.1l-10.4,5.8c-5.3,3-8.7,8.5-8.7,14.5v11.7
		c0,2.6,0.6,5.1,1.8,7.3l-31.2,17.4c-1.4-2.1-3.3-3.9-5.7-5.1l-10.4-5.8c-2.6-1.5-5.6-2.2-8.7-2.2v2.4c2.6,0,5.2,0.7,7.4,1.9
		l10.4,5.8c4.6,2.6,7.4,7.3,7.4,12.5v11.7c0,5.1-2.8,9.9-7.4,12.5l-10.4,5.8c-2.2,1.3-4.8,1.9-7.4,1.9v2.4c3,0,6-0.8,8.7-2.2
		l10.4-5.8c5.3-3,8.7-8.5,8.7-14.5v-11.7c0-2.6-0.7-5.1-1.8-7.3L248.5,226.2z"/>
</g>
<path class="st0" d="M210.4,327.9l-10.4-5.8c-2.6-1.5-5.6-2.2-8.7-2.2v2.4c2.6,0,5.2,0.7,7.4,1.9l10.4,5.8c4.6,2.6,7.4,7.3,7.4,12.5
	v5.8h2.5v-5.8C219.1,336.5,215.8,330.9,210.4,327.9z"/>
<defs>
	
		<filter id="Adobe_OpacityMaskFilter_00000099626203903850326900000000700676785326787730_" filterUnits="userSpaceOnUse" x="491.2" y="165.3" width="27.8" height="28.4">
		<feColorMatrix  type="matrix" values="1 0 0 0 0  0 1 0 0 0  0 0 1 0 0  0 0 0 1 0"/>
	</filter>
</defs>
<mask maskUnits="userSpaceOnUse" x="491.2" y="165.3" width="27.8" height="28.4" id="mask10_7430_492106_00000150078114976530148820000012896442027576564155_">
	
		<path style="fill-rule:evenodd;clip-rule:evenodd;fill:#FFFFFF;filter:url(#Adobe_OpacityMaskFilter_00000099626203903850326900000000700676785326787730_);" d="
		M491.2,165.3H519v28.4h-27.8V165.3z"/>
</mask>
<g class="st23">
	<path class="st0" d="M511.5,189.4l-10.4-5.8c-4.6-2.6-7.4-7.3-7.4-12.5v-5.8h-2.5v5.8c0,6,3.3,11.5,8.7,14.5l10.4,5.8
		c2.6,1.5,5.6,2.2,8.7,2.2v-2.4C516.4,191.3,513.8,190.6,511.5,189.4z"/>
</g>
<defs>
	
		<filter id="Adobe_OpacityMaskFilter_00000116950926409412348260000015508906871000087449_" filterUnits="userSpaceOnUse" x="491.2" y="228.4" width="27.8" height="56.8">
		<feColorMatrix  type="matrix" values="1 0 0 0 0  0 1 0 0 0  0 0 1 0 0  0 0 0 1 0"/>
	</filter>
</defs>
<mask maskUnits="userSpaceOnUse" x="491.2" y="228.4" width="27.8" height="56.8" id="mask11_7430_492106_00000075872209614993071000000009939930581389296005_">
	
		<path style="fill-rule:evenodd;clip-rule:evenodd;fill:#FFFFFF;filter:url(#Adobe_OpacityMaskFilter_00000116950926409412348260000015508906871000087449_);" d="
		M491.2,228.4H519v56.8h-27.8V228.4z"/>
</mask>
<g class="st25">
	<path class="st0" d="M499.9,236.4c-5.3,3-8.7,8.5-8.7,14.5v11.7c0,6,3.3,11.5,8.7,14.5l10.4,5.8c2.6,1.5,5.6,2.2,8.7,2.2v-2.4
		c-2.6,0-5.2-0.7-7.4-1.9l-10.4-5.8c-4.6-2.6-7.4-7.3-7.4-12.5v-11.7c0-5.1,2.8-9.9,7.4-12.5l10.4-5.8c2.2-1.3,4.8-1.9,7.4-1.9v-2.4
		c-3,0-6,0.8-8.7,2.2L499.9,236.4z"/>
</g>
<defs>
	
		<filter id="Adobe_OpacityMaskFilter_00000163065320367403278870000007336568177588720800_" filterUnits="userSpaceOnUse" x="327.4" y="182.7" width="191.6" height="165.6">
		<feColorMatrix  type="matrix" values="1 0 0 0 0  0 1 0 0 0  0 0 1 0 0  0 0 0 1 0"/>
	</filter>
</defs>
<mask maskUnits="userSpaceOnUse" x="327.4" y="182.7" width="191.6" height="165.6" id="mask12_7430_492106_00000162352725790167757860000018090873933142514057_">
	
		<path style="fill-rule:evenodd;clip-rule:evenodd;fill:#FFFFFF;filter:url(#Adobe_OpacityMaskFilter_00000163065320367403278870000007336568177588720800_);" d="
		M327.1,182.6h191.6v165.6H327.1V182.6z"/>
</mask>
<g class="st27">
	<path class="st5" d="M454.9,320.8l-10.4,5.8c-4.6,2.6-10.3,2.6-14.9,0l-10.4-5.8c-4.6-2.6-7.4-7.3-7.4-12.5v-11.7
		c0-5.1,2.8-9.9,7.4-12.5l10.4-5.8c2.2-1.3,4.8-1.9,7.4-1.9c2.6,0,5.2,0.7,7.4,1.9l10.4,5.8c4.6,2.6,7.4,7.3,7.4,12.5v11.7
		C462.4,313.5,459.5,318.2,454.9,320.8z M419.2,229.3c-4.6-2.6-7.4-7.3-7.4-12.5v-11.7c0-5.1,2.8-9.9,7.4-12.5l10.4-5.8
		c2.2-1.3,4.8-1.9,7.4-1.9c2.6,0,5.2,0.7,7.4,1.9l10.4,5.8c4.6,2.6,7.4,7.3,7.4,12.5v11.7c0,5.1-2.8,9.9-7.4,12.5l-10.4,5.8
		c-4.6,2.6-10.3,2.6-14.9,0L419.2,229.3z M499.9,327.9c-2.3,1.3-4.2,3.1-5.6,5.1L463,315.6c1.1-2.2,1.8-4.7,1.8-7.3v-11.7
		c0-6-3.3-11.5-8.7-14.5l-10.4-5.8c-2.3-1.3-4.8-1.9-7.4-2.1v-34.9c2.6-0.2,5.1-0.9,7.4-2.2l10.4-5.8c5.3-3,8.7-8.5,8.7-14.5v-11.7
		c0-6-3.3-11.5-8.7-14.5l-10.4-5.8c-5.2-2.9-12.1-2.9-17.3,0l-10.4,5.8c-5.3,3-8.7,8.5-8.7,14.5v11.7c0,6,3.3,11.5,8.7,14.5
		l10.4,5.8c2.3,1.3,4.9,2,7.4,2.2v34.9c-2.6,0.2-5.2,0.9-7.4,2.1l-10.4,5.8c-5.3,3-8.7,8.5-8.7,14.5v11.7c0,2.6,0.6,5.1,1.8,7.3
		l-31.2,17.4c-1.4-2.1-3.3-3.9-5.6-5.1l-10.4-5.8c-5.3-3-12-3-17.3,0l-10.4,5.8c-5.3,3-8.7,8.5-8.7,14.5v5.8h2.5v-5.8
		c0-5.1,2.8-9.9,7.4-12.5l10.4-5.8c4.6-2.6,10.3-2.6,14.9,0L373,330c4.6,2.6,7.4,7.3,7.4,12.5v5.8h2.5v-5.8c0-2.6-0.6-5.1-1.8-7.3
		l31.2-17.4c1.4,2.1,3.3,3.9,5.6,5.1l10.4,5.8c2.7,1.5,5.7,2.2,8.7,2.2c3,0,6-0.7,8.7-2.2l10.4-5.8c2.3-1.3,4.2-3.1,5.7-5.1
		l31.2,17.4c-1.1,2.2-1.8,4.7-1.8,7.3v5.8h2.5v-5.8c0-5.1,2.8-9.9,7.4-12.5l10.4-5.8c2.2-1.3,4.8-1.9,7.4-1.9v-2.4
		c-3,0-6,0.8-8.7,2.2L499.9,327.9z"/>
</g>
<defs>
	
		<filter id="Adobe_OpacityMaskFilter_00000147940483671848194780000004980113825205645205_" filterUnits="userSpaceOnUse" x="163.8" y="228.4" width="27.8" height="56.8">
		<feColorMatrix  type="matrix" values="1 0 0 0 0  0 1 0 0 0  0 0 1 0 0  0 0 0 1 0"/>
	</filter>
</defs>
<mask maskUnits="userSpaceOnUse" x="163.8" y="228.4" width="27.8" height="56.8" id="mask13_7430_492106_00000146463870617752004330000015351914309662440355_">
	
		<path style="fill-rule:evenodd;clip-rule:evenodd;fill:#FFFFFF;filter:url(#Adobe_OpacityMaskFilter_00000147940483671848194780000004980113825205645205_);" d="
		M163.8,228.4h27.8v56.8h-27.8V228.4z"/>
</mask>
<g class="st29">
	<path class="st0" d="M172.5,236.4c-5.3,3-8.7,8.5-8.7,14.5v11.7c0,6,3.3,11.5,8.7,14.5l10.4,5.8c2.6,1.5,5.6,2.2,8.7,2.2v-2.4
		c-2.6,0-5.2-0.7-7.4-1.9l-10.4-5.8c-4.6-2.6-7.4-7.3-7.4-12.5v-11.7c0-5.1,2.8-9.9,7.4-12.5l10.4-5.8c2.2-1.3,4.8-1.9,7.4-1.9v-2.4
		c-3,0-6,0.8-8.7,2.2L172.5,236.4z"/>
</g>
<defs>
	
		<filter id="Adobe_OpacityMaskFilter_00000075855294321391290870000013342787182084024465_" filterUnits="userSpaceOnUse" x="0" y="182.7" width="191.6" height="165.6">
		<feColorMatrix  type="matrix" values="1 0 0 0 0  0 1 0 0 0  0 0 1 0 0  0 0 0 1 0"/>
	</filter>
</defs>
<mask maskUnits="userSpaceOnUse" x="0" y="182.7" width="191.6" height="165.6" id="mask14_7430_492106_00000041262982306871550460000017738206716281219223_">
	
		<path style="fill-rule:evenodd;clip-rule:evenodd;fill:#FFFFFF;filter:url(#Adobe_OpacityMaskFilter_00000075855294321391290870000013342787182084024465_);" d="
		M0,182.7h191.6v165.6H0V182.7z"/>
</mask>
<g class="st31">
	<path class="st0" d="M127.5,320.8l-10.4,5.8c-4.6,2.6-10.3,2.6-14.9,0l-10.4-5.8c-4.6-2.6-7.4-7.3-7.4-12.5v-11.7
		c0-5.1,2.8-9.9,7.4-12.5l10.4-5.8c2.2-1.3,4.8-1.9,7.4-1.9c2.6,0,5.2,0.7,7.4,1.9l10.4,5.8c4.6,2.6,7.4,7.3,7.4,12.5v11.7
		C135,313.5,132.1,318.2,127.5,320.8z M91.8,229.3c-4.6-2.6-7.4-7.3-7.4-12.5v-11.7c0-5.1,2.8-9.9,7.4-12.5l10.4-5.8
		c2.2-1.3,4.8-1.9,7.4-1.9c2.6,0,5.2,0.7,7.4,1.9l10.4,5.8c4.6,2.6,7.4,7.3,7.4,12.5v11.7c0,5.1-2.8,9.9-7.4,12.5l-10.4,5.8
		c-4.6,2.6-10.3,2.6-14.9,0L91.8,229.3z M172.5,327.9c-2.3,1.3-4.2,3.1-5.6,5.1l-31.2-17.4c1.1-2.2,1.8-4.7,1.8-7.3v-11.7
		c0-6-3.3-11.5-8.7-14.5l-10.4-5.8c-2.3-1.3-4.8-1.9-7.4-2.1v-34.9c2.6-0.2,5.1-0.9,7.4-2.2l10.4-5.8c5.3-3,8.7-8.5,8.7-14.5v-11.7
		c0-6-3.3-11.5-8.7-14.5l-10.4-5.8c-5.2-2.9-12.1-2.9-17.3,0l-10.4,5.8c-5.3,3-8.7,8.5-8.7,14.5v11.7c0,6,3.3,11.5,8.7,14.5
		l10.4,5.8c2.3,1.3,4.9,2,7.4,2.2v34.9c-2.6,0.2-5.2,0.9-7.4,2.1l-10.4,5.8c-5.3,3-8.7,8.5-8.7,14.5v11.7c0,2.6,0.6,5.1,1.8,7.3
		l-31.2,17.4c-1.4-2.1-3.3-3.9-5.6-5.1l-10.4-5.8c-5.3-3-12-3-17.3,0l-10.4,5.8c-5.3,3-8.7,8.5-8.7,14.5v5.8h2.5v-5.8
		c0-5.1,2.8-9.9,7.4-12.5l10.4-5.8c4.6-2.6,10.3-2.6,14.9,0l10.4,5.8c4.6,2.6,7.4,7.3,7.4,12.5v5.8h2.5v-5.8c0-2.6-0.6-5.1-1.8-7.3
		l31.2-17.4c1.4,2.1,3.3,3.9,5.7,5.1l10.4,5.8c2.7,1.5,5.7,2.2,8.7,2.2c3,0,6-0.7,8.7-2.2l10.4-5.8c2.3-1.3,4.2-3.1,5.7-5.1
		l31.2,17.4c-1.1,2.2-1.8,4.7-1.8,7.3v5.8h2.5v-5.8c0-5.1,2.8-9.9,7.4-12.5l10.4-5.8c2.2-1.3,4.8-1.9,7.4-1.9v-2.4
		c-3,0-6,0.8-8.7,2.2L172.5,327.9z"/>
</g>
<defs>
	
		<filter id="Adobe_OpacityMaskFilter_00000049211278563498878820000002777027500522196407_" filterUnits="userSpaceOnUse" x="0" y="347.9" width="55.5" height="28.4">
		<feColorMatrix  type="matrix" values="1 0 0 0 0  0 1 0 0 0  0 0 1 0 0  0 0 0 1 0"/>
	</filter>
</defs>
<mask maskUnits="userSpaceOnUse" x="0" y="347.9" width="55.5" height="28.4" id="mask15_7430_492106_00000020375641382548330580000008390017835225500326_">
	
		<path style="fill-rule:evenodd;clip-rule:evenodd;fill:#FFFFFF;filter:url(#Adobe_OpacityMaskFilter_00000049211278563498878820000002777027500522196407_);" d="
		M0,347.9h55.5v28.4H0V347.9z"/>
</mask>
<g class="st33">
	<path class="st0" d="M8.7,368.3l10.4,5.8c2.7,1.5,5.7,2.2,8.7,2.2c3,0,6-0.7,8.7-2.2l10.4-5.8c5.3-3,8.7-8.5,8.7-14.5v-5.8h-2.5
		v5.8c0,5.1-2.8,9.9-7.4,12.5L35.2,372c-4.6,2.6-10.3,2.6-14.9,0l-10.4-5.8c-2.2-1.3-4.1-3.1-5.4-5.3c-1.3-2.2-2-4.7-2-7.2v-5.8H0
		v5.8c0,2.9,0.8,5.8,2.3,8.4C3.8,364.7,6,366.8,8.7,368.3z"/>
</g>
<defs>
	
		<filter id="Adobe_OpacityMaskFilter_00000060010884351363257270000010675544538489733795_" filterUnits="userSpaceOnUse" x="163.8" y="347.9" width="27.8" height="28.4">
		<feColorMatrix  type="matrix" values="1 0 0 0 0  0 1 0 0 0  0 0 1 0 0  0 0 0 1 0"/>
	</filter>
</defs>
<mask maskUnits="userSpaceOnUse" x="163.8" y="347.9" width="27.8" height="28.4" id="mask16_7430_492106_00000038413661358310634520000013634738022448461483_">
	
		<path style="fill-rule:evenodd;clip-rule:evenodd;fill:#FFFFFF;filter:url(#Adobe_OpacityMaskFilter_00000060010884351363257270000010675544538489733795_);" d="
		M163.8,347.9h27.8v28.4h-27.8V347.9z"/>
</mask>
<g class="st35">
	<path class="st0" d="M184.1,372l-10.4-5.8c-4.6-2.6-7.4-7.3-7.4-12.5v-5.8h-2.5v5.8c0,6,3.3,11.5,8.7,14.5l10.4,5.8
		c2.6,1.5,5.6,2.2,8.7,2.2V374C189,374,186.4,373.3,184.1,372z"/>
</g>
<defs>
	
		<filter id="Adobe_OpacityMaskFilter_00000181063806216259613110000015493485696083883693_" filterUnits="userSpaceOnUse" x="327.4" y="347.9" width="55.5" height="28.4">
		<feColorMatrix  type="matrix" values="1 0 0 0 0  0 1 0 0 0  0 0 1 0 0  0 0 0 1 0"/>
	</filter>
</defs>
<mask maskUnits="userSpaceOnUse" x="327.4" y="347.9" width="55.5" height="28.4" id="mask17_7430_492106_00000131334944242439431690000005099914864420381068_">
	
		<path style="fill-rule:evenodd;clip-rule:evenodd;fill:#FFFFFF;filter:url(#Adobe_OpacityMaskFilter_00000181063806216259613110000015493485696083883693_);" d="
		M327.4,347.9h55.5v28.4h-55.5V347.9z"/>
</mask>
<g class="st37">
	<path class="st5" d="M336.1,368.3l10.4,5.8c2.7,1.5,5.7,2.2,8.7,2.2c3,0,6-0.7,8.7-2.2l10.4-5.8c5.3-3,8.7-8.5,8.7-14.5v-5.8h-2.5
		v5.8c0,5.1-2.8,9.9-7.4,12.5l-10.4,5.8c-4.6,2.6-10.3,2.6-14.9,0l-10.4-5.8c-2.2-1.3-4.1-3.1-5.4-5.3c-1.3-2.2-2-4.7-2-7.2v-5.8
		h-2.5v5.8c0,2.9,0.8,5.8,2.3,8.4C331.2,364.7,333.4,366.8,336.1,368.3z"/>
</g>
<defs>
	
		<filter id="Adobe_OpacityMaskFilter_00000044137370839653622150000017858473467300831661_" filterUnits="userSpaceOnUse" x="191.3" y="347.9" width="27.8" height="28.4">
		<feColorMatrix  type="matrix" values="1 0 0 0 0  0 1 0 0 0  0 0 1 0 0  0 0 0 1 0"/>
	</filter>
</defs>
<mask maskUnits="userSpaceOnUse" x="191.3" y="347.9" width="27.8" height="28.4" id="mask18_7430_492106_00000025402405637656613360000002535050215409213584_">
	
		<path style="fill-rule:evenodd;clip-rule:evenodd;fill:#FFFFFF;filter:url(#Adobe_OpacityMaskFilter_00000044137370839653622150000017858473467300831661_);" d="
		M191.3,347.9h27.8v28.4h-27.8V347.9z"/>
</mask>
<g class="st39">
	<path class="st0" d="M210.4,368.3c5.3-3,8.7-8.5,8.7-14.5v-5.8h-2.5v5.8c0,5.1-2.8,9.9-7.4,12.5l-10.4,5.8
		c-2.2,1.3-4.8,1.9-7.4,1.9v2.4c3,0,6-0.8,8.7-2.2L210.4,368.3z"/>
</g>
<defs>
	
		<filter id="Adobe_OpacityMaskFilter_00000060728151206217519620000014429431108025131437_" filterUnits="userSpaceOnUse" x="491.2" y="347.9" width="27.8" height="28.4">
		<feColorMatrix  type="matrix" values="1 0 0 0 0  0 1 0 0 0  0 0 1 0 0  0 0 0 1 0"/>
	</filter>
</defs>
<mask maskUnits="userSpaceOnUse" x="491.2" y="347.9" width="27.8" height="28.4" id="mask19_7430_492106_00000127044505415462344780000015033896973024501943_">
	
		<path style="fill-rule:evenodd;clip-rule:evenodd;fill:#FFFFFF;filter:url(#Adobe_OpacityMaskFilter_00000060728151206217519620000014429431108025131437_);" d="
		M491.2,347.9H519v28.4h-27.8V347.9z"/>
</mask>
<g class="st41">
	<path class="st5" d="M511.5,372l-10.4-5.8c-4.6-2.6-7.4-7.3-7.4-12.5v-5.8h-2.5v5.8c0,6,3.3,11.5,8.7,14.5l10.4,5.8
		c2.6,1.5,5.6,2.2,8.7,2.2V374C516.4,374,513.8,373.3,511.5,372z"/>
</g>
<path class="st5" d="M461.2,299.3c-0.3,3.8-2.3,7.2-4.8,8.6l0,0l-12.4,7.1v0c-0.6,0.4-1.3,0.6-2,0.7c-3.3,0.3-5.6-3.3-5.2-8
	c0.3-3.8,2.3-7.2,4.8-8.6v0l12.4-7.1v0c0.6-0.4,1.3-0.6,2-0.7C459.3,291,461.7,294.6,461.2,299.3z M457.2,281.8l-13-7.4
	c-2.3-1.3-4.8-1.9-7.3-1.9c-2.5,0-5.1,0.6-7.3,1.9l-13,7.4c-4.5,2.6-7.3,7.4-7.3,12.5v14.8c0,5.1,2.8,9.9,7.3,12.5l13,7.4
	c4.5,2.6,10.1,2.6,14.7,0l13-7.4c4.5-2.6,7.3-7.4,7.3-12.5v-14.8C464.6,289.2,461.7,284.4,457.2,281.8z"/>
<path class="st5" d="M457.2,281.8l-13-7.4c-2.3-1.3-4.8-1.9-7.3-1.9c-2.5,0-5.1,0.6-7.3,1.9l-13,7.4c-4.5,2.6-7.3,7.4-7.3,12.5v14.8
	c0,5.1,2.8,9.9,7.3,12.5l13,7.4c4.5,2.6,10.1,2.6,14.7,0l13-7.4c4.5-2.6,7.3-7.4,7.3-12.5v-14.8
	C464.6,289.2,461.7,284.4,457.2,281.8z"/>
<path class="st42" d="M437,307.8v-4.4 M437,298.9L437,298.9 M448.4,303.4c0,6.1-5.1,11.1-11.5,11.1s-11.5-5-11.5-11.1
	c0-6.1,5.1-11.1,11.5-11.1S448.4,297.2,448.4,303.4z"/>
</svg>
