<?xml version="1.0" encoding="utf-8"?>
<!-- Generator: Adobe Illustrator 25.4.0, SVG Export Plug-In . SVG Version: 6.00 Build 0)  -->
<svg version="1.1" id="Layer_1" xmlns="http://www.w3.org/2000/svg" xmlns:xlink="http://www.w3.org/1999/xlink" x="0px" y="0px"
	 viewBox="0 0 265.3 48" style="enable-background:new 0 0 265.3 48;" xml:space="preserve">
<style type="text/css">
	.st0{fill-rule:evenodd;clip-rule:evenodd;fill:#FF00FF;}
	.st1{fill:#FF00FF;}
	.st2{fill-rule:evenodd;clip-rule:evenodd;fill:#FFFFFF;}
	.st3{fill-rule:evenodd;clip-rule:evenodd;fill:#3C2E7D;}
	.st4{fill-rule:evenodd;clip-rule:evenodd;fill:url(#SVGID_1_);}
</style>
<symbol  id="New_Symbol" viewBox="-14.7 -15.6 29.5 31.2">
	<path class="st0" d="M9.5,10l-5.5,3.2c-2.4,1.4-5.4,1.4-7.9,0L-9.5,10c-2.4-1.4-3.9-4-3.9-6.8v-6.4c0-2.8,1.5-5.4,3.9-6.8l5.5-3.2
		c2.4-1.4,5.4-1.4,7.9,0l5.5,3.2c2.4,1.4,3.9,4,3.9,6.8v6.4C13.4,6,11.9,8.6,9.5,10z M-0.7-15.6c-1.4,0.1-2.7,0.5-3.9,1.2l-5.5,3.2
		c-2.8,1.7-4.6,4.7-4.6,8v6.4c0,1.4,0.3,2.8,0.9,4l0.7,1.1c0.8,1.2,1.8,2.1,3,2.8l5.5,3.2c2.8,1.6,6.3,1.6,9.2,0l5.5-3.2
		c1.2-0.7,2.2-1.7,3-2.8l0.6-1.1c0.6-1.2,0.9-2.6,0.9-4v-6.4c0-3.3-1.7-6.3-4.6-8l-5.5-3.2c-1.2-0.7-2.6-1.1-3.9-1.1H-0.7z"/>
</symbol>
<symbol  id="New_Symbol_1" viewBox="-0.6 -9.6 1.3 19.1">
	<rect x="-0.6" y="-9.6" class="st1" width="1.3" height="19.1"/>
</symbol>
<path class="st2" d="M24,46.2c-2.4,0-4.7-0.6-6.8-1.7l-8.8-4.8c-4.1-2.2-6.7-6.4-6.8-11v-9.5c0.1-4.6,2.7-8.8,6.8-11l8.8-4.8
	c4.2-2.3,9.3-2.3,13.5,0l8.8,4.8c4.1,2.2,6.7,6.4,6.8,11v9.5c-0.1,4.6-2.7,8.8-6.8,11l-8.8,4.8C28.7,45.6,26.4,46.2,24,46.2z"/>
<path class="st3" d="M39.3,22.5c0,1.3-0.9,2.4-2.2,2.7c-1.1,0.1-1.8-1-1.7-2.4c0-1.3,0.9-2.4,2.2-2.7C38.7,20,39.5,21.1,39.3,22.5z
	 M30.3,27.5c0,1.3-0.9,2.4-2.2,2.7c-1.1,0.1-1.8-1-1.7-2.4c0-1.3,0.9-2.4,2.2-2.7C29.7,25,30.4,26,30.3,27.5z M37.9,16.7
	c-0.5,0.1-1,0.2-1.4,0.5l0,0l-9,4.9l0,0c-2,1.3-3.3,3.5-3.5,5.9c-0.3,3.3,1.4,5.8,3.8,5.6c0.5,0,1-0.2,1.4-0.5l0,0l9-4.9l0,0
	c2-1.3,3.3-3.6,3.5-6C42,19,40.3,16.5,37.9,16.7z"/>
<g>
	
		<linearGradient id="SVGID_1_" gradientUnits="userSpaceOnUse" x1="-544.43" y1="-478.85" x2="-544.43" y2="-430.8813" gradientTransform="matrix(1 0 0 1 568.43 478.85)">
		<stop  offset="0" style="stop-color:#D2468C"/>
		<stop  offset="1" style="stop-color:#3C3C9B"/>
	</linearGradient>
	<path class="st4" d="M16.7,1.8L7.3,7C2.9,9.3,0.1,13.9,0,18.9v10.3c0.1,5,2.9,9.5,7.3,11.9l9.4,5.1c4.5,2.4,10,2.4,14.6,0l9.4-5.1
		c4.4-2.3,7.2-6.9,7.3-11.9V18.9c-0.1-5-2.9-9.5-7.3-11.9l-9.4-5.2C26.7-0.6,21.3-0.6,16.7,1.8z M18.7,42.9l-9.5-5.1
		c-3.2-1.7-5.3-5-5.3-8.7V18.9c0-3.6,2.1-7,5.3-8.7L18.7,5C22,3.3,26,3.3,29.3,5l9.4,5.1c3.2,1.7,5.3,5,5.3,8.7v10.3
		c0,3.6-2.1,7-5.3,8.7L29.3,43C26,44.8,22,44.8,18.7,42.9L18.7,42.9z"/>
</g>
<path class="st3" d="M145.6,35.6c-3.8,0-6.8-3-6.8-6.8c0-3.8,3-6.8,6.8-6.8c3.8,0,6.8,3,6.8,6.8c0,0,0,0,0,0
	C152.4,32.5,149.4,35.6,145.6,35.6z M145.6,18.1c-5.9,0-10.7,4.8-10.7,10.6s4.8,10.7,10.6,10.7c5.9,0,10.7-4.8,10.7-10.6
	c0,0,0,0,0,0C156.3,22.9,151.5,18.1,145.6,18.1z"/>
<path class="st3" d="M163,11.8h-3.9v17.5c0,5.4,4.3,9.7,9.7,9.7h1v-3.9h-1c-3.2,0-5.8-2.6-5.8-5.8v-6.8h6.8v-3.9H163V11.8z"/>
<path class="st3" d="M182.9,35.6c-3.8,0-6.8-3-6.8-6.8c0-3.8,3-6.8,6.8-6.8c3.8,0,6.8,3,6.8,6.8c0,0,0,0,0,0
	C189.7,32.5,186.6,35.6,182.9,35.6z M189.7,21.3c-1.9-2-4.5-3.2-7.3-3.2c-5.8,0.1-10.3,4.9-10.2,10.7c-0.1,5.8,4.4,10.5,10.2,10.7
	c2.8,0,5.4-1.2,7.3-3.2V37c0,1.1,0.8,2,1.9,2c0,0,0,0,0.1,0h1.9V18.6h-3.9V21.3z"/>
<path class="st3" d="M121.4,35.6c-3.8,0-6.8-3-6.8-6.8c0-3.8,3-6.8,6.8-6.8c3.8,0,6.8,3,6.8,6.8c0,0,0,0,0,0
	C128.2,32.5,125.1,35.6,121.4,35.6z M121.9,18.1c-2.8,0-5.4,1.2-7.3,3.2v-9.5h-3.9V39h1.9c1.1,0,1.9-0.9,1.9-1.9c0,0,0,0,0-0.1v-0.8
	c1.9,2,4.5,3.2,7.3,3.2c5.8-0.1,10.3-4.9,10.2-10.7C132.2,23,127.6,18.3,121.9,18.1z"/>
<path class="st3" d="M97.2,35.6c-3.8,0-6.8-3-6.8-6.8c0-3.8,3-6.8,6.8-6.8c3.8,0,6.8,3,6.8,6.8c0,0,0,0,0,0
	C104,32.5,100.9,35.6,97.2,35.6z M97.2,18.1c-5.9,0-10.7,4.8-10.7,10.7s4.8,10.7,10.7,10.7c5.9,0,10.7-4.8,10.7-10.7c0,0,0,0,0,0
	C107.8,22.9,103.1,18.1,97.2,18.1z"/>
<path class="st3" d="M75.1,26.4h-8.4V15.7h8.2c2.9,0.1,5.3,2.5,5.2,5.4C80.1,23.9,77.9,26.2,75.1,26.4z M74.9,11.8H62.8V39h1.9
	c1.1,0,1.9-0.9,1.9-1.9c0,0,0,0,0-0.1v-6.8c0,0,8.8,0,9.1,0l3.6,7.7c0.3,0.7,1,1.1,1.8,1.1h3l-4.6-10c4.4-2.5,5.9-8.2,3.4-12.6
	C81.2,13.6,78.2,11.8,74.9,11.8L74.9,11.8z"/>
<path class="st3" d="M248,27.3c0.8-3.9,4.6-6.5,8.6-5.7c2.9,0.6,5.1,2.8,5.7,5.7H248z M265.3,28.8c0-5.6-4.6-10.2-10.2-10.1
	c-5.6,0-10.2,4.6-10.1,10.2c0,5.6,4.5,10.1,10.1,10.1c3.2,0,6.3-1.3,8.6-3.5l-2-2.1c-1.7,1.7-4.1,2.7-6.5,2.7
	c-3.4,0-6.4-2.5-7.1-5.8h17.3V28.8z"/>
<path class="st3" d="M223.1,11.8c-1.1,0-2,0.8-2,1.9c0,1.1,0.8,2,1.9,2c1.1,0,2-0.8,2-1.9c0,0,0,0,0,0
	C225,12.7,224.2,11.8,223.1,11.8z"/>
<path class="st3" d="M221.6,39h1.9c0.6,0,1-0.4,1-1V18.6h-2.9L221.6,39z"/>
<path class="st3" d="M232.3,16.7v1.9h-3.9v2.9h3.9V39h1.9c0.6,0,1-0.4,1-1V21.5h7.8v-2.9h-7.8v-1.9c0-2.7,2.2-4.8,4.8-4.8
	c0,0,0,0,0,0h2.9V8.9h-2.9C235.8,8.9,232.3,12.3,232.3,16.7C232.3,16.6,232.3,16.6,232.3,16.7z"/>
<path class="st3" d="M208.1,36.1c-2.1,0-3.9-1.7-3.9-3.9V11.8h-2.9v20.4c0,3.7,3,6.8,6.8,6.8c0,0,0,0,0,0h9.7v-2.9H208.1z"/>
</svg>
