<?xml version="1.0" encoding="utf-8"?>
<!-- Generator: Adobe Illustrator 25.4.0, SVG Export Plug-In . SVG Version: 6.00 Build 0)  -->
<svg version="1.1" id="Layer_1" xmlns="http://www.w3.org/2000/svg" xmlns:xlink="http://www.w3.org/1999/xlink" x="0px" y="0px"
	 viewBox="0 0 48 48" style="enable-background:new 0 0 48 48;" xml:space="preserve">
<style type="text/css">
	.st0{fill-rule:evenodd;clip-rule:evenodd;fill:#FF00FF;}
	.st1{fill:#FF00FF;}
	.st2{fill-rule:evenodd;clip-rule:evenodd;fill:#FFFFFF;}
	.st3{fill-rule:evenodd;clip-rule:evenodd;fill:#3C2E7D;}
	.st4{fill-rule:evenodd;clip-rule:evenodd;fill:url(#SVGID_1_);}
</style>
<symbol  id="New_Symbol" viewBox="-14.7 -15.6 29.5 31.2">
	<path class="st0" d="M9.5,10l-5.5,3.2c-2.4,1.4-5.4,1.4-7.9,0L-9.5,10c-2.4-1.4-3.9-4-3.9-6.8v-6.4c0-2.8,1.5-5.4,3.9-6.8l5.5-3.2
		c2.4-1.4,5.4-1.4,7.9,0l5.5,3.2c2.4,1.4,3.9,4,3.9,6.8v6.4C13.4,6,11.9,8.6,9.5,10z M-0.7-15.6c-1.4,0.1-2.7,0.5-3.9,1.2l-5.5,3.2
		c-2.8,1.7-4.6,4.7-4.6,8v6.4c0,1.4,0.3,2.8,0.9,4l0.7,1.1c0.8,1.2,1.8,2.1,3,2.8l5.5,3.2c2.8,1.6,6.3,1.6,9.2,0l5.5-3.2
		c1.2-0.7,2.2-1.7,3-2.8l0.6-1.1c0.6-1.2,0.9-2.6,0.9-4v-6.4c0-3.3-1.7-6.3-4.6-8l-5.5-3.2c-1.2-0.7-2.6-1.1-3.9-1.1H-0.7z"/>
</symbol>
<symbol  id="New_Symbol_1" viewBox="-0.6 -9.6 1.3 19.1">
	<rect x="-0.6" y="-9.6" class="st1" width="1.3" height="19.1"/>
</symbol>
<path class="st2" d="M24,46.2c-2.4,0-4.7-0.6-6.8-1.7l-8.8-4.8c-4.1-2.2-6.7-6.4-6.8-11v-9.5c0.1-4.6,2.7-8.8,6.8-11l8.8-4.8
	c4.2-2.3,9.3-2.3,13.5,0l8.8,4.8c4.1,2.2,6.7,6.4,6.8,11v9.5c-0.1,4.6-2.7,8.8-6.8,11l-8.8,4.8C28.7,45.6,26.4,46.2,24,46.2z"/>
<path class="st3" d="M39.3,22.5c0,1.3-0.9,2.4-2.2,2.7c-1.1,0.1-1.8-1-1.7-2.4c0-1.3,0.9-2.4,2.2-2.7C38.7,20,39.5,21.1,39.3,22.5z
	 M30.3,27.5c0,1.3-0.9,2.4-2.2,2.7c-1.1,0.1-1.8-1-1.7-2.4c0-1.3,0.9-2.4,2.2-2.7C29.7,25,30.4,26,30.3,27.5z M37.9,16.7
	c-0.5,0.1-1,0.2-1.4,0.5l0,0l-9,4.9l0,0c-2,1.3-3.3,3.5-3.5,5.9c-0.3,3.3,1.4,5.8,3.8,5.6c0.5,0,1-0.2,1.4-0.5l0,0l9-4.9l0,0
	c2-1.3,3.3-3.6,3.5-6C42,19,40.3,16.5,37.9,16.7z"/>
<g>
	
		<linearGradient id="SVGID_1_" gradientUnits="userSpaceOnUse" x1="-544.43" y1="-478.85" x2="-544.43" y2="-430.8813" gradientTransform="matrix(1 0 0 1 568.43 478.85)">
		<stop  offset="0" style="stop-color:#D2468C"/>
		<stop  offset="1" style="stop-color:#3C3C9B"/>
	</linearGradient>
	<path class="st4" d="M16.7,1.8L7.3,7C2.9,9.3,0.1,13.9,0,18.9v10.3c0.1,5,2.9,9.5,7.3,11.9l9.4,5.1c4.5,2.4,10,2.4,14.6,0l9.4-5.1
		c4.4-2.3,7.2-6.9,7.3-11.9V18.9c-0.1-5-2.9-9.5-7.3-11.9l-9.4-5.2C26.7-0.6,21.3-0.6,16.7,1.8z M18.7,42.9l-9.5-5.1
		c-3.2-1.7-5.3-5-5.3-8.7V18.9c0-3.6,2.1-7,5.3-8.7L18.7,5C22,3.3,26,3.3,29.3,5l9.4,5.1c3.2,1.7,5.3,5,5.3,8.7v10.3
		c0,3.6-2.1,7-5.3,8.7L29.3,43C26,44.8,22,44.8,18.7,42.9L18.7,42.9z"/>
</g>
</svg>
