<svg width="49" height="49" viewBox="0 0 49 49" fill="none" xmlns="http://www.w3.org/2000/svg"
    xmlns:xlink="http://www.w3.org/1999/xlink" aria-hidden="true" role="img" preserveAspectRatio="xMidYMid meet">
    <path fill-rule="evenodd" clip-rule="evenodd"
        d="M24.72 46.3529C22.3868 46.3529 20.0533 45.7866 17.9724 44.6538L9.219 39.8886C5.057 37.6231 2.47119 33.4008 2.47119 28.8693V19.3391C2.47119 14.8077 5.057 10.5854 9.219 8.31979L17.9724 3.55465C22.1344 1.28908 27.3055 1.28908 31.4675 3.55465L40.221 8.31979C44.3832 10.5856 46.9685 14.8079 46.9685 19.3391V28.8693C46.9685 33.4008 44.3832 37.6231 40.221 39.8886L31.4675 44.6538C29.3866 45.7866 27.0534 46.3529 24.72 46.3529Z"
        fill="white" />
    <path fill-rule="evenodd" clip-rule="evenodd"
        d="M40.0479 22.6308C39.9064 24.0426 38.9195 25.2704 37.8433 25.3735C36.7673 25.4764 36.0095 24.4153 36.151 23.0035C36.2926 21.592 37.2795 20.3639 38.3557 20.261C39.4317 20.1582 40.1895 21.219 40.0479 22.6308ZM30.9937 27.5593C30.8524 28.9711 29.8653 30.1989 28.7891 30.3017C27.7131 30.4046 26.9553 29.3438 27.0968 27.932C27.2384 26.5202 28.2256 25.2924 29.3015 25.1895C30.3778 25.0864 31.1353 26.1475 30.9937 27.5593ZM38.6224 16.8557C38.1372 16.9033 37.6605 17.0614 37.2064 17.3085L37.2061 17.3066L28.2136 22.2016L28.2139 22.2034C26.434 23.1708 24.9988 25.5235 24.7551 28.154C24.4492 31.4557 26.1358 33.9422 28.5223 33.7077C29.0076 33.6598 29.4842 33.5017 29.9386 33.2547L29.9389 33.2565L38.9311 28.3615L38.9308 28.3597C40.7108 27.3923 42.1459 25.0396 42.3897 22.4092C42.6956 19.1074 41.0089 16.6209 38.6224 16.8557Z"
        fill="#3C2E7D" />
    <mask id="mask0_7512_113334" style="mask-type:luminance" maskUnits="userSpaceOnUse" x="0" y="0" width="49"
        height="49">
        <path fill-rule="evenodd" clip-rule="evenodd"
            d="M17.4413 1.93667L7.99858 7.07713C3.50874 9.52121 0.719727 14.0756 0.719727 18.9638V29.2445C0.719727 34.1324 3.50874 38.6871 7.99858 41.1311L17.4413 46.2711C19.6857 47.4934 22.2029 48.104 24.7196 48.104C27.2368 48.104 29.7538 47.4934 31.9984 46.2711L41.4412 41.1311C45.9307 38.6868 48.7197 34.1324 48.7197 29.2445V18.9638C48.7197 14.0759 45.9307 9.52121 41.4412 7.07713L31.9984 1.93667C29.7538 0.714892 27.2368 0.104004 24.7199 0.104004C22.2029 0.104004 19.6859 0.714892 17.4413 1.93667ZM19.4083 43.0588L9.96582 37.9183C6.68935 36.1349 4.6543 32.8114 4.6543 29.2447V18.9641C4.6543 15.3971 6.68935 12.0734 9.96582 10.2899L19.4083 5.14972C21.0466 4.25799 22.8835 3.81226 24.7198 3.81226C26.5564 3.81226 28.3935 4.25799 30.0316 5.14972L39.4743 10.2899C42.7505 12.0734 44.7855 15.3971 44.7855 18.9641V29.2447C44.7855 32.8114 42.7505 36.1349 39.4743 37.9183L30.0316 43.0588C28.3932 43.9505 26.5569 44.3965 24.7198 44.3963C22.8835 44.3963 21.0464 43.9505 19.4083 43.0588Z"
            fill="white" />
    </mask>
    <g mask="url(#mask0_7512_113334)">
        <path fill-rule="evenodd" clip-rule="evenodd"
            d="M17.4413 1.93667L7.99858 7.07713C3.50874 9.52121 0.719727 14.0756 0.719727 18.9638V29.2445C0.719727 34.1324 3.50874 38.6871 7.99858 41.1311L17.4413 46.2711C19.6857 47.4934 22.2029 48.104 24.7196 48.104C27.2368 48.104 29.7538 47.4934 31.9984 46.2711L41.4412 41.1311C45.9307 38.6868 48.7197 34.1324 48.7197 29.2445V18.9638C48.7197 14.0759 45.9307 9.52121 41.4412 7.07713L31.9984 1.93667C29.7538 0.714892 27.2368 0.104004 24.7199 0.104004C22.2029 0.104004 19.6859 0.714892 17.4413 1.93667ZM19.4083 43.0588L9.96582 37.9183C6.68935 36.1349 4.6543 32.8114 4.6543 29.2447V18.9641C4.6543 15.3971 6.68935 12.0734 9.96582 10.2899L19.4083 5.14972C21.0466 4.25799 22.8835 3.81226 24.7198 3.81226C26.5564 3.81226 28.3935 4.25799 30.0316 5.14972L39.4743 10.2899C42.7505 12.0734 44.7855 15.3971 44.7855 18.9641V29.2447C44.7855 32.8114 42.7505 36.1349 39.4743 37.9183L30.0316 43.0588C28.3932 43.9505 26.5569 44.3965 24.7198 44.3963C22.8835 44.3963 21.0464 43.9505 19.4083 43.0588Z"
            fill="url(#paint0_linear_7512_113334)" />
    </g>
    <defs>
        <linearGradient id="paint0_linear_7512_113334" x1="0.719727" y1="0.104004" x2="0.719727" y2="48.104"
            gradientUnits="userSpaceOnUse">
            <stop stop-color="#D2468C" />
            <stop offset="1" stop-color="#3C3C9B" />
        </linearGradient>
    </defs>
</svg>