<svg width="1231" height="504" viewBox="0 0 1231 504" fill="none" xmlns="http://www.w3.org/2000/svg">
<path fill-rule="evenodd" clip-rule="evenodd" d="M1014.34 113.19C1014.34 117.802 1011.85 122.098 1007.86 124.404L998.767 129.655C994.774 131.961 989.812 131.961 985.819 129.655L976.724 124.404C972.73 122.1 970.249 117.802 970.249 113.19V102.689C970.249 98.0783 972.73 93.7802 976.724 91.4742L985.819 86.2253C987.778 85.0935 990.016 84.4958 992.293 84.4958C994.569 84.4958 996.808 85.0935 998.767 86.2253L1007.86 91.4742C1011.85 93.7817 1014.34 98.0783 1014.34 102.689V113.19ZM1008.93 89.6204L999.837 84.37C995.269 81.7334 989.317 81.7334 984.748 84.37L975.654 89.6204C971.001 92.3067 968.11 97.3141 968.11 102.687V113.188C968.11 118.562 971.001 123.569 975.654 126.255L984.748 131.506C986.755 132.665 988.975 133.293 991.223 133.451V149.134H993.361V133.451C995.608 133.293 997.828 132.665 999.837 131.506L1008.93 126.255C1013.58 123.568 1016.47 118.562 1016.47 113.188V102.687C1016.47 97.3141 1013.58 92.3082 1008.93 89.6204V89.6204Z" fill="#E1E1E1"/>
<path fill-rule="evenodd" clip-rule="evenodd" d="M937.575 130.817L928.481 125.566C926.196 124.247 923.588 123.552 920.936 123.552V125.69C923.212 125.69 925.452 126.288 927.411 127.42L936.505 132.67C940.498 134.975 942.981 139.273 942.981 143.885V149.134H945.119V143.885C945.119 138.511 942.228 133.503 937.575 130.817" fill="#E1E1E1"/>
<path fill-rule="evenodd" clip-rule="evenodd" d="M1222.81 295.315L1213.71 290.065C1211.43 288.746 1208.82 288.05 1206.17 288.05V290.188C1208.44 290.188 1210.68 290.786 1212.64 291.918L1221.74 297.168C1225.73 299.473 1228.21 303.771 1228.21 308.383V313.632H1230.35V308.383C1230.35 303.009 1227.46 298.001 1222.81 295.315" fill="#E1E1E1"/>
<path fill-rule="evenodd" clip-rule="evenodd" d="M1014.34 277.687C1014.34 282.299 1011.85 286.596 1007.86 288.902L998.767 294.152C994.774 296.458 989.812 296.458 985.819 294.152L976.724 288.902C972.73 286.597 970.249 282.299 970.249 277.687V267.186C970.249 262.576 972.73 258.278 976.724 255.972L985.819 250.723C987.778 249.591 990.016 248.993 992.293 248.993C994.569 248.993 996.808 249.591 998.767 250.723L1007.86 255.972C1011.85 258.279 1014.34 262.576 1014.34 267.186V277.687ZM1008.93 254.118L999.837 248.868C995.269 246.231 989.317 246.231 984.748 248.868L975.654 254.118C971.001 256.805 968.11 261.812 968.11 267.185V277.686C968.11 283.06 971.001 288.067 975.654 290.753L984.748 296.004C986.755 297.163 988.975 297.791 991.223 297.949V313.632H993.361V297.949C995.608 297.791 997.828 297.163 999.837 296.004L1008.93 290.753C1013.58 288.066 1016.47 283.06 1016.47 277.686V267.185C1016.47 261.812 1013.58 256.806 1008.93 254.118V254.118Z" fill="#E1E1E1"/>
<mask id="mask0_1025_6611" style="mask-type:alpha" maskUnits="userSpaceOnUse" x="920" y="148" width="168" height="109">
<path fill-rule="evenodd" clip-rule="evenodd" d="M920.936 148.845H1087.83V256.821H920.936V148.845Z" fill="white"/>
</mask>
<g mask="url(#mask0_1025_6611)">
<path fill-rule="evenodd" clip-rule="evenodd" d="M970.248 184.792C970.248 180.18 972.729 175.883 976.724 173.577L985.817 168.327C987.776 167.195 990.015 166.598 992.291 166.598C994.57 166.598 996.808 167.195 998.765 168.327L1007.86 173.577C1011.85 175.883 1014.34 180.18 1014.34 184.792V195.293C1014.34 199.903 1011.85 204.2 1007.86 206.508L998.765 211.756C994.772 214.064 989.81 214.064 985.817 211.756L976.724 206.508C972.729 204.201 970.248 199.903 970.248 195.293V184.792ZM1048.08 214.774L1057.17 209.523C1059.17 208.37 1061.41 207.794 1063.65 207.794C1065.89 207.794 1068.13 208.37 1070.12 209.523L1079.22 214.774C1083.21 217.08 1085.69 221.376 1085.69 225.988V236.488C1085.69 241.101 1083.21 245.398 1079.22 247.704L1070.12 252.954C1066.13 255.259 1061.17 255.259 1057.17 252.954L1048.08 247.704C1046.12 246.572 1044.48 244.932 1043.34 242.959C1042.21 240.988 1041.6 238.751 1041.6 236.489V225.988C1041.6 221.376 1044.09 217.08 1048.08 214.774V214.774ZM970.731 203.724C971.993 205.591 973.645 207.2 975.654 208.359L984.747 213.609C987.074 214.952 989.682 215.624 992.291 215.624C994.901 215.624 997.51 214.952 999.836 213.609L1008.93 208.359C1010.94 207.2 1012.59 205.591 1013.85 203.724L1041.02 219.409C1040.03 221.434 1039.47 223.671 1039.47 225.989V236.49C1039.47 239.126 1040.17 241.734 1041.49 244.029C1042.82 246.326 1044.73 248.237 1047.01 249.556L1056.1 254.806C1058.43 256.149 1061.04 256.821 1063.65 256.821C1066.26 256.821 1068.86 256.149 1071.19 254.806L1080.29 249.556C1084.94 246.87 1087.83 241.862 1087.83 236.488V225.989C1087.83 220.615 1084.94 215.607 1080.29 212.921L1071.19 207.672C1066.54 204.984 1060.76 204.984 1056.1 207.671L1047.01 212.921C1045 214.081 1043.35 215.689 1042.09 217.556L1014.92 201.872C1015.91 199.847 1016.47 197.61 1016.47 195.292V184.792C1016.47 179.417 1013.58 174.412 1008.93 171.724L999.836 166.473C997.863 165.334 995.629 164.718 993.361 164.564V148.845H991.223V164.564C988.956 164.718 986.721 165.334 984.747 166.473L975.654 171.724C971.001 174.412 968.11 179.417 968.11 184.792V195.292C968.11 197.61 968.676 199.847 969.661 201.871L942.498 217.556C941.236 215.689 939.582 214.08 937.575 212.921L928.481 207.672C926.197 206.353 923.588 205.656 920.936 205.656V207.794C923.212 207.794 925.452 208.393 927.411 209.524L936.505 214.774C940.5 217.08 942.981 221.377 942.981 225.989V236.488C942.981 241.1 940.5 245.398 936.505 247.704L927.412 252.955C925.452 254.085 923.212 254.683 920.936 254.683V256.821C923.588 256.821 926.196 256.125 928.481 254.806L937.575 249.556C942.228 246.87 945.119 241.862 945.119 236.488V225.989C945.119 223.671 944.553 221.434 943.566 219.409L970.731 203.724Z" fill="#E1E1E1"/>
</g>
<mask id="mask1_1025_6611" style="mask-type:alpha" maskUnits="userSpaceOnUse" x="920" y="148" width="26" height="27">
<path fill-rule="evenodd" clip-rule="evenodd" d="M920.936 148.845H945.119V174.428H920.936V148.845Z" fill="white"/>
</mask>
<g mask="url(#mask1_1025_6611)">
<path fill-rule="evenodd" clip-rule="evenodd" d="M937.575 167.164C942.228 164.476 945.119 159.469 945.119 154.096V148.846H942.981V154.096C942.981 158.708 940.498 163.005 936.505 165.311L927.411 170.561C925.452 171.691 923.212 172.291 920.937 172.291V174.429C923.588 174.429 926.196 173.732 928.481 172.414L937.575 167.164Z" fill="#E1E1E1"/>
</g>
<path fill-rule="evenodd" clip-rule="evenodd" d="M937.575 295.315L928.481 290.065C926.196 288.746 923.588 288.05 920.936 288.05V290.188C923.212 290.188 925.452 290.786 927.411 291.918L936.505 297.168C940.498 299.473 942.981 303.771 942.981 308.383V313.632H945.119V308.383C945.119 303.009 942.228 298.001 937.575 295.315" fill="#E1E1E1"/>
<mask id="mask2_1025_6611" style="mask-type:alpha" maskUnits="userSpaceOnUse" x="1039" y="164" width="168" height="150">
<path fill-rule="evenodd" clip-rule="evenodd" d="M1039.47 164.497H1206.36V313.634H1039.47V164.497Z" fill="white"/>
</mask>
<g mask="url(#mask2_1025_6611)">
<path fill-rule="evenodd" clip-rule="evenodd" d="M1150.57 288.902L1141.48 294.152C1137.48 296.457 1132.52 296.457 1128.53 294.152L1119.44 288.902C1115.44 286.597 1112.96 282.299 1112.96 277.687V267.186C1112.96 262.576 1115.44 258.278 1119.44 255.972L1128.53 250.723C1130.49 249.591 1132.73 248.993 1135 248.993C1137.28 248.993 1139.52 249.591 1141.48 250.723L1150.57 255.972C1154.57 258.278 1157.05 262.576 1157.05 267.186V277.687C1157.05 282.299 1154.57 286.596 1150.57 288.902V288.902ZM1119.44 206.508C1115.44 204.202 1112.96 199.905 1112.96 195.293V184.794C1112.96 180.182 1115.44 175.884 1119.44 173.578L1128.53 168.327C1130.49 167.197 1132.73 166.599 1135 166.599C1137.28 166.599 1139.52 167.197 1141.48 168.327L1150.57 173.578C1154.57 175.884 1157.05 180.18 1157.05 184.794V195.293C1157.05 199.905 1154.57 204.202 1150.57 206.508L1141.48 211.758C1137.48 214.064 1132.52 214.065 1128.53 211.758L1119.44 206.508ZM1189.72 295.317C1187.71 296.476 1186.06 298.083 1184.8 299.95L1157.64 284.267C1158.62 282.242 1159.19 280.005 1159.19 277.687V267.186C1159.19 261.814 1156.3 256.806 1151.64 254.12L1142.55 248.869C1140.58 247.73 1138.34 247.114 1136.07 246.959V215.556C1138.32 215.396 1140.54 214.768 1142.55 213.609L1151.64 208.36C1156.3 205.673 1159.19 200.665 1159.19 195.293V184.793C1159.19 179.419 1156.3 174.412 1151.64 171.725L1142.55 166.475C1137.98 163.839 1132.02 163.837 1127.46 166.475L1118.37 171.725C1113.71 174.412 1110.82 179.419 1110.82 184.793V195.293C1110.82 200.667 1113.71 205.674 1118.37 208.36L1127.46 213.609C1129.47 214.768 1131.69 215.396 1133.93 215.556V246.959C1131.67 247.114 1129.43 247.73 1127.46 248.869L1118.37 254.12C1113.71 256.806 1110.82 261.814 1110.82 267.186V277.687C1110.82 280.005 1111.39 282.242 1112.37 284.269L1085.21 299.95C1083.95 298.083 1082.29 296.476 1080.29 295.317L1071.19 290.067C1066.54 287.379 1060.76 287.38 1056.1 290.067L1047.01 295.317C1042.36 298.003 1039.47 303.011 1039.47 308.383V313.634H1041.6V308.383C1041.6 303.773 1044.09 299.475 1048.08 297.17L1057.17 291.92C1061.17 289.614 1066.13 289.614 1070.12 291.92L1079.22 297.17C1083.21 299.475 1085.69 303.773 1085.69 308.385V313.634H1087.83V308.385C1087.83 306.065 1087.26 303.829 1086.28 301.804L1113.44 286.12C1114.7 287.987 1116.36 289.594 1118.37 290.755L1127.46 296.005C1129.79 297.348 1132.39 298.02 1135 298.02C1137.61 298.02 1140.22 297.348 1142.55 296.005L1151.64 290.755C1153.65 289.594 1155.3 287.987 1156.57 286.12L1183.73 301.804C1182.74 303.829 1182.18 306.065 1182.18 308.385V313.634H1184.32V308.385C1184.32 303.773 1186.8 299.475 1190.79 297.17L1199.88 291.92C1201.84 290.788 1204.08 290.19 1206.36 290.19V288.052C1203.71 288.052 1201.1 288.748 1198.81 290.067L1189.72 295.317Z" fill="#E1E1E1"/>
</g>
<mask id="mask3_1025_6611" style="mask-type:alpha" maskUnits="userSpaceOnUse" x="1039" y="313" width="49" height="26">
<path fill-rule="evenodd" clip-rule="evenodd" d="M1039.47 313.346H1087.83V338.929H1039.47V313.346Z" fill="white"/>
</mask>
<g mask="url(#mask3_1025_6611)">
<path fill-rule="evenodd" clip-rule="evenodd" d="M1047.01 331.664L1056.1 336.914C1058.43 338.258 1061.04 338.929 1063.65 338.929C1066.26 338.928 1068.87 338.258 1071.19 336.914L1080.29 331.664C1084.94 328.978 1087.83 323.97 1087.83 318.596V313.346H1085.69V318.596C1085.69 323.208 1083.21 327.506 1079.22 329.811L1070.12 335.061C1066.13 337.369 1061.17 337.367 1057.17 335.061L1048.08 329.811C1046.12 328.68 1044.48 327.04 1043.35 325.067C1042.21 323.096 1041.6 320.86 1041.6 318.596V313.346H1039.47V318.596C1039.47 321.234 1040.17 323.842 1041.49 326.137C1042.82 328.434 1044.73 330.345 1047.01 331.664" fill="#E1E1E1"/>
</g>
<mask id="mask4_1025_6611" style="mask-type:alpha" maskUnits="userSpaceOnUse" x="920" y="313" width="168" height="109">
<path fill-rule="evenodd" clip-rule="evenodd" d="M920.937 313.346H1087.83V421.322H920.937V313.346Z" fill="white"/>
</mask>
<g mask="url(#mask4_1025_6611)">
<path fill-rule="evenodd" clip-rule="evenodd" d="M970.248 349.293C970.248 344.681 972.729 340.384 976.724 338.078L985.817 332.828C987.776 331.696 990.015 331.098 992.291 331.098C994.57 331.098 996.808 331.696 998.766 332.828L1007.86 338.078C1011.85 340.384 1014.34 344.681 1014.34 349.293V359.793C1014.34 364.404 1011.85 368.701 1007.86 371.008L998.766 376.257C994.772 378.565 989.81 378.565 985.817 376.257L976.724 371.008C972.729 368.702 970.248 364.404 970.248 359.793V349.293ZM1048.08 379.274L1057.17 374.023C1059.17 372.87 1061.41 372.294 1063.65 372.294C1065.89 372.294 1068.13 372.87 1070.12 374.023L1079.22 379.274C1083.21 381.58 1085.69 385.876 1085.69 390.488V400.988C1085.69 405.601 1083.21 409.898 1079.22 412.204L1070.12 417.454C1066.13 419.759 1061.17 419.759 1057.17 417.454L1048.08 412.204C1046.12 411.072 1044.48 409.431 1043.34 407.459C1042.21 405.488 1041.6 403.251 1041.6 400.989V390.488C1041.6 385.876 1044.09 381.58 1048.08 379.274V379.274ZM970.732 368.225C971.993 370.092 973.646 371.701 975.655 372.86L984.747 378.11C987.074 379.453 989.682 380.125 992.292 380.125C994.901 380.125 997.51 379.453 999.836 378.11L1008.93 372.86C1010.94 371.701 1012.59 370.092 1013.85 368.225L1041.02 383.91C1040.03 385.935 1039.47 388.172 1039.47 390.49V400.991C1039.47 403.627 1040.17 406.235 1041.49 408.53C1042.82 410.827 1044.73 412.738 1047.01 414.057L1056.1 419.307C1058.43 420.65 1061.04 421.322 1063.65 421.322C1066.26 421.322 1068.87 420.65 1071.19 419.307L1080.29 414.057C1084.94 411.371 1087.83 406.363 1087.83 400.989V390.49C1087.83 385.116 1084.94 380.108 1080.29 377.422L1071.19 372.173C1066.54 369.485 1060.76 369.485 1056.1 372.172L1047.01 377.422C1045 378.582 1043.35 380.19 1042.09 382.057L1014.92 366.373C1015.91 364.348 1016.47 362.111 1016.47 359.793V349.293C1016.47 343.918 1013.58 338.912 1008.93 336.225L999.836 330.974C997.863 329.835 995.63 329.219 993.362 329.065V313.346H991.223V329.065C988.956 329.219 986.721 329.835 984.747 330.974L975.655 336.225C971.002 338.912 968.11 343.918 968.11 349.293V359.793C968.11 362.111 968.676 364.348 969.662 366.372L942.498 382.057C941.236 380.19 939.582 378.581 937.575 377.422L928.481 372.173C926.198 370.854 923.588 370.157 920.937 370.157V372.295C923.212 372.295 925.452 372.894 927.411 374.025L936.505 379.275C940.5 381.581 942.981 385.878 942.981 390.49V400.989C942.981 405.601 940.5 409.899 936.505 412.205L927.412 417.456C925.452 418.586 923.212 419.184 920.937 419.184V421.322C923.588 421.322 926.196 420.626 928.481 419.307L937.575 414.057C942.228 411.371 945.12 406.363 945.12 400.989V390.49C945.12 388.172 944.554 385.935 943.567 383.91L970.732 368.225Z" fill="#E1E1E1"/>
</g>
<mask id="mask5_1025_6611" style="mask-type:alpha" maskUnits="userSpaceOnUse" x="920" y="313" width="26" height="26">
<path fill-rule="evenodd" clip-rule="evenodd" d="M920.937 313.346H945.12V338.929H920.937V313.346Z" fill="white"/>
</mask>
<g mask="url(#mask5_1025_6611)">
<path fill-rule="evenodd" clip-rule="evenodd" d="M937.575 331.664C942.228 328.976 945.12 323.969 945.12 318.596V313.346H942.981V318.596C942.981 323.208 940.499 327.505 936.505 329.811L927.411 335.061C925.452 336.191 923.213 336.791 920.937 336.791V338.929C923.588 338.929 926.196 338.232 928.481 336.914L937.575 331.664Z" fill="#E1E1E1"/>
</g>
<path fill-rule="evenodd" clip-rule="evenodd" d="M937.575 459.816L928.481 454.566C926.196 453.247 923.588 452.551 920.936 452.551V454.689C923.212 454.689 925.452 455.287 927.411 456.419L936.505 461.669C940.498 463.974 942.981 468.272 942.981 472.884V478.133H945.119V472.884C945.119 467.51 942.228 462.502 937.575 459.816" fill="#E1E1E1"/>
<mask id="mask6_1025_6611" style="mask-type:alpha" maskUnits="userSpaceOnUse" x="1182" y="313" width="25" height="26">
<path fill-rule="evenodd" clip-rule="evenodd" d="M1182.18 313.346H1206.36V338.928H1182.18V313.346Z" fill="white"/>
</mask>
<g mask="url(#mask6_1025_6611)">
<path fill-rule="evenodd" clip-rule="evenodd" d="M1199.88 335.062L1190.79 329.812C1186.8 327.506 1184.32 323.209 1184.32 318.597V313.347H1182.18V318.597C1182.18 323.97 1185.07 328.977 1189.72 331.665L1198.81 336.915C1201.1 338.233 1203.71 338.93 1206.36 338.93V336.792C1204.08 336.792 1201.84 336.194 1199.88 335.062" fill="#E1E1E1"/>
</g>
<mask id="mask7_1025_6611" style="mask-type:alpha" maskUnits="userSpaceOnUse" x="1206" y="313" width="25" height="26">
<path fill-rule="evenodd" clip-rule="evenodd" d="M1206.17 313.346H1230.35V338.929H1206.17V313.346Z" fill="white"/>
</mask>
<g mask="url(#mask7_1025_6611)">
<path fill-rule="evenodd" clip-rule="evenodd" d="M1222.81 331.664C1227.46 328.976 1230.35 323.969 1230.35 318.596V313.346H1228.21V318.596C1228.21 323.208 1225.73 327.505 1221.74 329.811L1212.64 335.061C1210.68 336.191 1208.44 336.791 1206.17 336.791V338.929C1208.82 338.929 1211.43 338.232 1213.71 336.914L1222.81 331.664Z" fill="#E1E1E1"/>
</g>
<mask id="mask8_1025_6611" style="mask-type:alpha" maskUnits="userSpaceOnUse" x="920" y="477" width="26" height="27">
<path fill-rule="evenodd" clip-rule="evenodd" d="M920.937 477.848H945.119V503.431H920.937V477.848Z" fill="white"/>
</mask>
<g mask="url(#mask8_1025_6611)">
<path fill-rule="evenodd" clip-rule="evenodd" d="M937.575 496.166C942.228 493.478 945.119 488.471 945.119 483.098V477.848H942.981V483.098C942.981 487.71 940.498 492.007 936.505 494.313L927.411 499.563C925.452 500.693 923.212 501.293 920.937 501.293V503.431C923.588 503.431 926.196 502.734 928.481 501.416L937.575 496.166Z" fill="#E1E1E1"/>
</g>
<path fill-rule="evenodd" clip-rule="evenodd" d="M729.104 113.192C729.104 117.804 726.623 122.101 722.628 124.407L713.535 129.657C709.542 131.963 704.58 131.963 700.586 129.657L691.492 124.407C687.497 122.102 685.016 117.804 685.016 113.192V102.691C685.016 98.0806 687.497 93.7825 691.492 91.4765L700.586 86.2276C702.545 85.0957 704.783 84.4981 707.061 84.4981C709.337 84.4981 711.576 85.0957 713.535 86.2276L722.628 91.4765C726.623 93.784 729.104 98.0806 729.104 102.691V113.192ZM723.697 89.6223L714.605 84.3719C710.036 81.7354 704.084 81.7354 699.516 84.3719L690.422 89.6223C685.769 92.3086 682.877 97.316 682.877 102.689V113.189C682.877 118.564 685.769 123.571 690.422 126.257L699.516 131.508C701.523 132.667 703.743 133.295 705.99 133.453V149.136H708.129V133.453C710.376 133.295 712.596 132.667 714.605 131.508L723.697 126.257C728.35 123.57 731.242 118.564 731.242 113.189V102.689C731.242 97.316 728.352 92.3101 723.697 89.6223V89.6223Z" fill="#E1E1E1"/>
<mask id="mask9_1025_6611" style="mask-type:alpha" maskUnits="userSpaceOnUse" x="754" y="0" width="168" height="150">
<path fill-rule="evenodd" clip-rule="evenodd" d="M754.234 0H921.127V149.137H754.234V0Z" fill="white"/>
</mask>
<g mask="url(#mask9_1025_6611)">
<path fill-rule="evenodd" clip-rule="evenodd" d="M865.338 124.405L856.246 129.655C852.251 131.96 847.29 131.96 843.297 129.655L834.203 124.405C830.21 122.101 827.729 117.802 827.729 113.19V102.69C827.729 98.0791 830.21 93.781 834.203 91.475L843.297 86.2261C845.254 85.0942 847.494 84.4966 849.771 84.4966C852.049 84.4966 854.288 85.0942 856.246 86.2261L865.338 91.475C869.333 93.781 871.814 98.0791 871.814 102.69V113.19C871.814 117.802 869.333 122.099 865.338 124.405V124.405ZM834.203 42.01C830.21 39.704 827.729 35.4074 827.729 30.7953V20.2961C827.729 15.6841 830.21 11.386 834.203 9.07995L843.297 3.82956C845.254 2.69919 847.494 2.10156 849.771 2.10156C852.049 2.10156 854.288 2.69919 856.246 3.82956L865.338 9.07995C869.333 11.386 871.814 15.6826 871.814 20.2961V30.7953C871.814 35.4074 869.333 39.704 865.338 42.01L856.246 47.2604C852.252 49.5664 847.292 49.5679 843.297 47.2604L834.203 42.01ZM904.488 130.82C902.481 131.979 900.828 133.586 899.567 135.453L872.403 119.77C873.389 117.745 873.954 115.508 873.954 113.19V102.689C873.954 97.3165 871.063 92.3091 866.409 89.6228L857.316 84.3724C855.343 83.233 853.108 82.6173 850.842 82.4618V51.0591C853.087 50.8991 855.307 50.2713 857.316 49.1122L866.409 43.8634C871.063 41.1755 873.954 36.1681 873.954 30.7955V20.2962C873.954 14.9221 871.063 9.91466 866.409 7.22834L857.316 1.97795C852.752 -0.658562 846.792 -0.660072 842.227 1.97795L833.133 7.22834C828.48 9.91466 825.589 14.9221 825.589 20.2962V30.7955C825.589 36.1696 828.48 41.177 833.133 43.8634L842.227 49.1122C844.236 50.2713 846.454 50.8991 848.702 51.0591V82.4618C846.435 82.6173 844.2 83.233 842.227 84.3724L833.133 89.6228C828.48 92.3091 825.589 97.3165 825.589 102.689V113.19C825.589 115.508 826.155 117.745 827.14 119.771L799.975 135.453C798.715 133.586 797.061 131.979 795.054 130.82L785.959 125.57C781.304 122.882 775.524 122.883 770.871 125.57L761.777 130.82C757.124 133.506 754.234 138.514 754.234 143.886V149.137H756.372V143.886C756.372 139.276 758.853 134.978 762.847 132.673L771.941 127.423C775.934 125.117 780.896 125.117 784.889 127.423L793.984 132.673C797.977 134.978 800.458 139.276 800.458 143.888V149.137H802.598V143.888C802.598 141.568 802.032 139.332 801.045 137.306L828.21 121.623C829.472 123.49 831.126 125.097 833.133 126.258L842.227 131.508C844.554 132.851 847.162 133.523 849.772 133.523C852.379 133.523 854.989 132.851 857.316 131.508L866.409 126.258C868.417 125.097 870.071 123.49 871.333 121.623L898.497 137.306C897.51 139.332 896.944 141.568 896.944 143.888V149.137H899.084V143.888C899.084 139.276 901.565 134.978 905.558 132.673L914.652 127.423C916.611 126.291 918.851 125.693 921.128 125.693V123.555C918.475 123.555 915.866 124.251 913.582 125.57L904.488 130.82Z" fill="#E1E1E1"/>
</g>
<mask id="mask10_1025_6611" style="mask-type:alpha" maskUnits="userSpaceOnUse" x="754" y="148" width="49" height="27">
<path fill-rule="evenodd" clip-rule="evenodd" d="M754.233 148.846H802.597V174.429H754.233V148.846Z" fill="white"/>
</mask>
<g mask="url(#mask10_1025_6611)">
<path fill-rule="evenodd" clip-rule="evenodd" d="M761.777 167.166L770.871 172.416C773.199 173.759 775.806 174.431 778.416 174.431C781.024 174.43 783.633 173.759 785.96 172.416L795.053 167.166C799.706 164.48 802.597 159.472 802.597 154.098V148.848H800.457V154.098C800.457 158.71 797.978 163.008 793.983 165.313L784.89 170.563C780.895 172.871 775.933 172.869 771.941 170.563L762.847 165.313C760.888 164.182 759.251 162.542 758.113 160.569C756.974 158.598 756.371 156.362 756.371 154.098V148.848H754.233V154.098C754.233 156.736 754.935 159.344 756.26 161.639C757.586 163.936 759.494 165.847 761.777 167.166" fill="#E1E1E1"/>
</g>
<path fill-rule="evenodd" clip-rule="evenodd" d="M729.104 277.688C729.104 282.3 726.623 286.597 722.628 288.903L713.535 294.153C709.542 296.459 704.58 296.459 700.586 294.153L691.492 288.903C687.497 286.598 685.016 282.3 685.016 277.688V267.187C685.016 262.577 687.497 258.279 691.492 255.973L700.586 250.724C702.545 249.592 704.783 248.994 707.061 248.994C709.337 248.994 711.576 249.592 713.535 250.724L722.628 255.973C726.623 258.28 729.104 262.577 729.104 267.187V277.688ZM723.697 254.119L714.605 248.869C710.036 246.232 704.084 246.232 699.516 248.869L690.422 254.119C685.769 256.806 682.877 261.813 682.877 267.186V277.687C682.877 283.061 685.769 288.068 690.422 290.754L699.516 296.005C701.523 297.164 703.743 297.792 705.99 297.95V313.633H708.129V297.95C710.376 297.792 712.596 297.164 714.605 296.005L723.697 290.754C728.35 288.067 731.242 283.061 731.242 277.687V267.186C731.242 261.813 728.352 256.807 723.697 254.119V254.119Z" fill="#E1E1E1"/>
<mask id="mask11_1025_6611" style="mask-type:alpha" maskUnits="userSpaceOnUse" x="635" y="148" width="168" height="109">
<path fill-rule="evenodd" clip-rule="evenodd" d="M635.704 148.846H802.599V256.822H635.704V148.846Z" fill="white"/>
</mask>
<g mask="url(#mask11_1025_6611)">
<path fill-rule="evenodd" clip-rule="evenodd" d="M685.016 184.793C685.016 180.181 687.497 175.884 691.492 173.578L700.585 168.328C702.543 167.196 704.783 166.598 707.059 166.598C709.338 166.598 711.576 167.196 713.533 168.328L722.627 173.578C726.622 175.884 729.103 180.181 729.103 184.793V195.294C729.103 199.904 726.622 204.201 722.627 206.508L713.533 211.757C709.54 214.065 704.578 214.065 700.585 211.757L691.492 206.508C687.497 204.202 685.016 199.904 685.016 195.294V184.793ZM762.847 214.775L771.941 209.525C773.938 208.372 776.176 207.795 778.415 207.795C780.655 207.795 782.893 208.372 784.89 209.525L793.984 214.775C797.977 217.081 800.458 221.378 800.458 225.99V236.489C800.458 241.103 797.977 245.399 793.984 247.705L784.89 252.956C780.896 255.26 775.934 255.26 771.941 252.956L762.847 247.705C760.888 246.574 759.25 244.933 758.113 242.961C756.975 240.99 756.372 238.753 756.372 236.491V225.99C756.372 221.378 758.854 217.081 762.847 214.775V214.775ZM685.499 203.725C686.761 205.592 688.413 207.201 690.422 208.36L699.515 213.61C701.842 214.953 704.45 215.625 707.059 215.625C709.668 215.625 712.278 214.953 714.603 213.61L723.698 208.36C725.706 207.201 727.359 205.592 728.62 203.725L755.785 219.41C754.8 221.435 754.234 223.672 754.234 225.99V236.491C754.234 239.127 754.934 241.735 756.261 244.03C757.586 246.327 759.494 248.238 761.777 249.557L770.871 254.807C773.198 256.15 775.806 256.822 778.415 256.822C781.025 256.822 783.633 256.15 785.96 254.807L795.054 249.557C799.707 246.871 802.598 241.863 802.598 236.489V225.99C802.598 220.616 799.707 215.608 795.054 212.922L785.96 207.673C781.305 204.985 775.524 204.985 770.871 207.672L761.777 212.922C759.77 214.082 758.116 215.69 756.855 217.557L729.69 201.873C730.676 199.848 731.242 197.611 731.242 195.293V184.793C731.242 179.418 728.35 174.412 723.698 171.725L714.603 166.474C712.631 165.335 710.397 164.719 708.129 164.565V148.846H705.991V164.565C703.724 164.719 701.489 165.335 699.515 166.474L690.422 171.725C685.769 174.412 682.878 179.418 682.878 184.793V195.293C682.878 197.611 683.444 199.848 684.429 201.872L657.266 217.557C656.004 215.69 654.35 214.081 652.343 212.922L643.248 207.673C640.965 206.354 638.356 205.657 635.704 205.657V207.795C637.98 207.795 640.22 208.394 642.178 209.525L651.273 214.775C655.267 217.081 657.749 221.378 657.749 225.99V236.489C657.749 241.101 655.267 245.399 651.273 247.705L642.18 252.956C640.22 254.086 637.98 254.684 635.704 254.684V256.822C638.356 256.822 640.964 256.126 643.248 254.807L652.343 249.557C656.995 246.871 659.887 241.863 659.887 236.489V225.99C659.887 223.672 659.321 221.435 658.334 219.41L685.499 203.725Z" fill="#E1E1E1"/>
</g>
<path fill-rule="evenodd" clip-rule="evenodd" d="M652.343 295.317L643.248 290.066C640.964 288.747 638.356 288.052 635.704 288.052V290.19C637.98 290.19 640.22 290.788 642.178 291.92L651.273 297.17C655.266 299.475 657.749 303.773 657.749 308.385V313.634H659.887V308.385C659.887 303.011 656.995 298.003 652.343 295.317" fill="#E1E1E1"/>
<mask id="mask12_1025_6611" style="mask-type:alpha" maskUnits="userSpaceOnUse" x="896" y="148" width="26" height="27">
<path fill-rule="evenodd" clip-rule="evenodd" d="M896.945 148.846H921.127V174.428H896.945V148.846Z" fill="white"/>
</mask>
<g mask="url(#mask12_1025_6611)">
<path fill-rule="evenodd" clip-rule="evenodd" d="M914.652 170.563L905.559 165.313C901.564 163.007 899.085 158.71 899.085 154.098V148.848H896.945V154.098C896.945 159.471 899.836 164.478 904.489 167.166L913.582 172.416C915.867 173.734 918.474 174.431 921.128 174.431V172.293C918.85 172.293 916.611 171.695 914.652 170.563" fill="#E1E1E1"/>
</g>
<mask id="mask13_1025_6611" style="mask-type:alpha" maskUnits="userSpaceOnUse" x="896" y="205" width="26" height="52">
<path fill-rule="evenodd" clip-rule="evenodd" d="M896.944 205.66H921.127V256.825H896.944V205.66Z" fill="white"/>
</mask>
<g mask="url(#mask13_1025_6611)">
<path fill-rule="evenodd" clip-rule="evenodd" d="M904.489 212.925C899.836 215.613 896.944 220.621 896.944 225.993V236.492C896.944 241.865 899.836 246.872 904.489 249.56L913.583 254.811C915.866 256.128 918.476 256.825 921.127 256.825V254.687C918.851 254.687 916.612 254.089 914.653 252.957L905.559 247.707C901.565 245.401 899.084 241.103 899.084 236.492V225.993C899.084 221.383 901.565 217.085 905.559 214.779L914.651 209.528C916.61 208.398 918.851 207.799 921.127 207.799V205.66C918.476 205.66 915.866 206.357 913.581 207.675L904.489 212.925Z" fill="#E1E1E1"/>
</g>
<mask id="mask14_1025_6611" style="mask-type:alpha" maskUnits="userSpaceOnUse" x="753" y="164" width="168" height="150">
<path fill-rule="evenodd" clip-rule="evenodd" d="M753.991 164.479H920.884V313.615H753.991V164.479Z" fill="white"/>
</mask>
<g mask="url(#mask14_1025_6611)">
<path fill-rule="evenodd" clip-rule="evenodd" d="M865.339 288.903L856.246 294.153C852.251 296.458 847.291 296.458 843.297 294.153L834.203 288.903C830.21 286.598 827.729 282.3 827.729 277.688V267.187C827.729 262.577 830.21 258.279 834.203 255.973L843.297 250.724C845.255 249.592 847.494 248.994 849.772 248.994C852.049 248.994 854.289 249.592 856.246 250.724L865.339 255.973C869.334 258.279 871.815 262.577 871.815 267.187V277.688C871.815 282.3 869.334 286.597 865.339 288.903V288.903ZM834.203 206.508C830.21 204.202 827.729 199.905 827.729 195.293V184.794C827.729 180.182 830.21 175.884 834.203 173.578L843.297 168.327C845.255 167.197 847.494 166.599 849.772 166.599C852.049 166.599 854.289 167.197 856.246 168.327L865.339 173.578C869.334 175.884 871.815 180.18 871.815 184.794V195.293C871.815 199.905 869.334 204.202 865.339 206.508L856.246 211.758C852.253 214.064 847.292 214.066 843.297 211.758L834.203 206.508ZM904.488 295.318C902.481 296.477 900.828 298.084 899.567 299.951L872.403 284.268C873.389 282.243 873.955 280.006 873.955 277.688V267.187C873.955 261.815 871.063 256.807 866.409 254.121L857.316 248.87C855.344 247.731 853.108 247.115 850.842 246.96V215.557C853.087 215.397 855.307 214.769 857.316 213.61L866.409 208.361C871.063 205.674 873.955 200.666 873.955 195.294V184.794C873.955 179.42 871.063 174.413 866.409 171.726L857.316 166.476C852.752 163.839 846.793 163.838 842.227 166.476L833.133 171.726C828.48 174.413 825.589 179.42 825.589 184.794V195.294C825.589 200.668 828.48 205.675 833.133 208.361L842.227 213.61C844.236 214.769 846.455 215.397 848.702 215.557V246.96C846.435 247.115 844.2 247.731 842.227 248.87L833.133 254.121C828.48 256.807 825.589 261.815 825.589 267.187V277.688C825.589 280.006 826.155 282.243 827.14 284.269L799.975 299.951C798.715 298.084 797.061 296.477 795.054 295.318L785.96 290.068C781.304 287.38 775.524 287.381 770.871 290.068L761.777 295.318C757.124 298.004 754.234 303.012 754.234 308.384V313.635H756.372V308.384C756.372 303.774 758.853 299.476 762.847 297.171L771.941 291.921C775.934 289.615 780.896 289.615 784.89 291.921L793.984 297.171C797.977 299.476 800.458 303.774 800.458 308.386V313.635H802.598V308.386C802.598 306.066 802.032 303.83 801.045 301.804L828.21 286.121C829.472 287.988 831.126 289.595 833.133 290.756L842.227 296.006C844.554 297.349 847.162 298.021 849.772 298.021C852.38 298.021 854.989 297.349 857.316 296.006L866.409 290.756C868.417 289.595 870.071 287.988 871.333 286.121L898.497 301.804C897.51 303.83 896.944 306.066 896.944 308.386V313.635H899.084V308.386C899.084 303.774 901.565 299.476 905.558 297.171L914.652 291.921C916.611 290.789 918.851 290.191 921.128 290.191V288.053C918.475 288.053 915.866 288.749 913.582 290.068L904.488 295.318Z" fill="#E1E1E1"/>
</g>
<mask id="mask15_1025_6611" style="mask-type:alpha" maskUnits="userSpaceOnUse" x="611" y="205" width="25" height="52">
<path fill-rule="evenodd" clip-rule="evenodd" d="M611.711 205.658H635.894V256.823H611.711V205.658Z" fill="white"/>
</mask>
<g mask="url(#mask15_1025_6611)">
<path fill-rule="evenodd" clip-rule="evenodd" d="M619.256 212.923C614.603 215.611 611.711 220.619 611.711 225.991V236.49C611.711 241.863 614.603 246.871 619.256 249.558L628.35 254.809C630.633 256.126 633.243 256.823 635.894 256.823V254.685C633.618 254.685 631.379 254.087 629.42 252.955L620.326 247.705C616.332 245.399 613.851 241.101 613.851 236.49V225.991C613.851 221.381 616.332 217.083 620.326 214.777L629.418 209.526C631.377 208.396 633.618 207.797 635.894 207.797V205.658C633.243 205.658 630.633 206.355 628.348 207.673L619.256 212.923Z" fill="#E1E1E1"/>
</g>
<mask id="mask16_1025_6611" style="mask-type:alpha" maskUnits="userSpaceOnUse" x="469" y="164" width="167" height="150">
<path fill-rule="evenodd" clip-rule="evenodd" d="M469.001 164.498H635.894V313.635H469.001V164.498Z" fill="white"/>
</mask>
<g mask="url(#mask16_1025_6611)">
<path fill-rule="evenodd" clip-rule="evenodd" d="M580.106 288.903L571.013 294.153C567.018 296.457 562.058 296.457 558.065 294.153L548.97 288.903C544.977 286.598 542.496 282.3 542.496 277.688V267.187C542.496 262.577 544.977 258.279 548.97 255.973L558.065 250.724C560.022 249.592 562.262 248.994 564.539 248.994C566.816 248.994 569.056 249.592 571.013 250.724L580.106 255.973C584.101 258.279 586.582 262.577 586.582 267.187V277.688C586.582 282.3 584.101 286.597 580.106 288.903V288.903ZM548.97 206.508C544.977 204.202 542.496 199.906 542.496 195.294V184.794C542.496 180.182 544.977 175.884 548.97 173.578L558.065 168.328C560.022 167.198 562.262 166.6 564.539 166.6C566.816 166.6 569.056 167.198 571.013 168.328L580.106 173.578C584.101 175.884 586.582 180.181 586.582 184.794V195.294C586.582 199.906 584.101 204.202 580.106 206.508L571.013 211.759C567.02 214.065 562.059 214.066 558.065 211.759L548.97 206.508ZM619.255 295.318C617.248 296.477 615.596 298.084 614.334 299.951L587.17 284.268C588.156 282.243 588.722 280.006 588.722 277.688V267.187C588.722 261.815 585.83 256.807 581.176 254.121L572.083 248.87C570.111 247.731 567.876 247.115 565.609 246.96V215.557C567.855 215.397 570.075 214.769 572.083 213.61L581.176 208.361C585.83 205.674 588.722 200.666 588.722 195.294V184.794C588.722 179.42 585.83 174.413 581.176 171.726L572.083 166.476C567.52 163.839 561.56 163.838 556.995 166.476L547.9 171.726C543.248 174.413 540.356 179.42 540.356 184.794V195.294C540.356 200.668 543.248 205.675 547.9 208.361L556.995 213.61C559.003 214.769 561.222 215.397 563.469 215.557V246.96C561.202 247.115 558.967 247.731 556.995 248.87L547.9 254.121C543.248 256.807 540.356 261.815 540.356 267.187V277.688C540.356 280.006 540.922 282.243 541.907 284.269L514.742 299.951C513.482 298.084 511.828 296.477 509.821 295.318L500.727 290.068C496.071 287.38 490.291 287.381 485.638 290.068L476.544 295.318C471.891 298.004 469.001 303.012 469.001 308.384V313.635H471.14V308.384C471.14 303.774 473.621 299.476 477.614 297.171L486.708 291.921C490.701 289.615 495.664 289.615 499.657 291.921L508.751 297.171C512.744 299.476 515.225 303.774 515.225 308.386V313.635H517.365V308.386C517.365 306.066 516.799 303.83 515.812 301.804L542.977 286.121C544.239 287.988 545.893 289.595 547.9 290.756L556.995 296.006C559.322 297.349 561.93 298.021 564.539 298.021C567.147 298.021 569.756 297.349 572.083 296.006L581.176 290.756C583.185 289.595 584.839 287.988 586.1 286.121L613.264 301.804C612.277 303.83 611.711 306.066 611.711 308.386V313.635H613.851V308.386C613.851 303.774 616.332 299.476 620.325 297.171L629.419 291.921C631.378 290.789 633.618 290.191 635.895 290.191V288.053C633.242 288.053 630.633 288.749 628.349 290.068L619.255 295.318Z" fill="#E1E1E1"/>
</g>
<mask id="mask17_1025_6611" style="mask-type:alpha" maskUnits="userSpaceOnUse" x="469" y="313" width="49" height="26">
<path fill-rule="evenodd" clip-rule="evenodd" d="M469 313.347H517.364V338.93H469V313.347Z" fill="white"/>
</mask>
<g mask="url(#mask17_1025_6611)">
<path fill-rule="evenodd" clip-rule="evenodd" d="M476.544 331.665L485.639 336.915C487.966 338.259 490.574 338.93 493.183 338.93C495.791 338.929 498.4 338.259 500.727 336.915L509.82 331.665C514.473 328.979 517.364 323.971 517.364 318.597V313.347H515.224V318.597C515.224 323.209 512.745 327.507 508.75 329.812L499.657 335.062C495.662 337.37 490.7 337.368 486.709 335.062L477.614 329.812C475.655 328.681 474.018 327.041 472.88 325.068C471.741 323.097 471.138 320.861 471.138 318.597V313.347H469V318.597C469 321.235 469.702 323.843 471.027 326.138C472.353 328.435 474.261 330.346 476.544 331.665" fill="#E1E1E1"/>
</g>
<mask id="mask18_1025_6611" style="mask-type:alpha" maskUnits="userSpaceOnUse" x="611" y="313" width="25" height="26">
<path fill-rule="evenodd" clip-rule="evenodd" d="M611.712 313.346H635.894V338.928H611.712V313.346Z" fill="white"/>
</mask>
<g mask="url(#mask18_1025_6611)">
<path fill-rule="evenodd" clip-rule="evenodd" d="M629.419 335.061L620.326 329.811C616.331 327.505 613.852 323.208 613.852 318.596V313.346H611.712V318.596C611.712 323.969 614.603 328.976 619.256 331.664L628.349 336.914C630.634 338.232 633.242 338.929 635.895 338.929V336.791C633.617 336.791 631.378 336.193 629.419 335.061" fill="#E1E1E1"/>
</g>
<mask id="mask19_1025_6611" style="mask-type:alpha" maskUnits="userSpaceOnUse" x="611" y="370" width="25" height="52">
<path fill-rule="evenodd" clip-rule="evenodd" d="M611.711 370.157H635.894V421.323H611.711V370.157Z" fill="white"/>
</mask>
<g mask="url(#mask19_1025_6611)">
<path fill-rule="evenodd" clip-rule="evenodd" d="M619.256 377.422C614.603 380.11 611.711 385.118 611.711 390.49V400.99C611.711 406.362 614.603 411.37 619.256 414.057L628.35 419.308C630.633 420.625 633.243 421.323 635.894 421.323V419.184C633.618 419.184 631.379 418.586 629.42 417.455L620.326 412.204C616.332 409.898 613.851 405.6 613.851 400.99V390.49C613.851 385.88 616.332 381.582 620.326 379.276L629.418 374.025C631.377 372.895 633.618 372.296 635.894 372.296V370.157C633.243 370.157 630.633 370.854 628.348 372.172L619.256 377.422Z" fill="#E1E1E1"/>
</g>
<mask id="mask20_1025_6611" style="mask-type:alpha" maskUnits="userSpaceOnUse" x="754" y="313" width="49" height="26">
<path fill-rule="evenodd" clip-rule="evenodd" d="M754.232 313.344H802.596V338.927H754.232V313.344Z" fill="white"/>
</mask>
<g mask="url(#mask20_1025_6611)">
<path fill-rule="evenodd" clip-rule="evenodd" d="M761.777 331.662L770.871 336.912C773.198 338.256 775.806 338.927 778.415 338.927C781.023 338.926 783.632 338.256 785.959 336.912L795.052 331.662C799.705 328.976 802.596 323.968 802.596 318.594V313.344H800.456V318.594C800.456 323.206 797.977 327.504 793.982 329.809L784.889 335.059C780.895 337.367 775.932 337.365 771.941 335.059L762.847 329.809C760.888 328.678 759.25 327.038 758.112 325.065C756.973 323.094 756.371 320.858 756.371 318.594V313.344H754.232V318.594C754.232 321.232 754.934 323.84 756.259 326.135C757.586 328.432 759.493 330.343 761.777 331.662" fill="#E1E1E1"/>
</g>
<mask id="mask21_1025_6611" style="mask-type:alpha" maskUnits="userSpaceOnUse" x="635" y="313" width="168" height="109">
<path fill-rule="evenodd" clip-rule="evenodd" d="M635.704 313.345H802.598V421.321H635.704V313.345Z" fill="white"/>
</mask>
<g mask="url(#mask21_1025_6611)">
<path fill-rule="evenodd" clip-rule="evenodd" d="M685.015 349.289C685.015 344.677 687.497 340.381 691.491 338.075L700.584 332.824C702.543 331.693 704.783 331.095 707.058 331.095C709.337 331.095 711.575 331.693 713.533 332.824L722.627 338.075C726.622 340.381 729.103 344.677 729.103 349.289V359.79C729.103 364.401 726.622 368.697 722.627 371.005L713.533 376.254C709.539 378.561 704.577 378.561 700.584 376.254L691.491 371.005C687.497 368.699 685.015 364.401 685.015 359.79V349.289ZM762.846 379.27L771.941 374.019C773.937 372.866 776.175 372.29 778.415 372.29C780.654 372.29 782.893 372.866 784.889 374.019L793.983 379.27C797.977 381.576 800.458 385.872 800.458 390.484V400.984C800.458 405.597 797.977 409.894 793.983 412.2L784.889 417.45C780.896 419.755 775.934 419.755 771.941 417.45L762.846 412.2C760.887 411.068 759.25 409.427 758.112 407.455C756.974 405.484 756.372 403.247 756.372 400.985V390.484C756.372 385.872 758.853 381.576 762.846 379.27V379.27ZM685.499 368.224C686.76 370.091 688.413 371.7 690.422 372.859L699.514 378.109C701.841 379.452 704.449 380.124 707.059 380.124C709.668 380.124 712.277 379.452 714.603 378.109L723.697 372.859C725.706 371.7 727.358 370.091 728.62 368.224L755.785 383.909C754.8 385.934 754.234 388.171 754.234 390.489V400.99C754.234 403.626 754.934 406.234 756.261 408.529C757.586 410.826 759.493 412.737 761.777 414.056L770.871 419.306C773.198 420.649 775.806 421.321 778.415 421.321C781.024 421.321 783.632 420.649 785.959 419.306L795.054 414.056C799.706 411.37 802.598 406.362 802.598 400.988V390.489C802.598 385.115 799.706 380.107 795.054 377.421L785.959 372.172C781.305 369.484 775.524 369.484 770.871 372.171L761.777 377.421C759.769 378.581 758.115 380.189 756.855 382.056L729.69 366.372C730.676 364.347 731.242 362.11 731.242 359.792V349.292C731.242 343.917 728.35 338.912 723.697 336.224L714.603 330.973C712.63 329.834 710.397 329.218 708.129 329.064V313.345H705.99V329.064C703.723 329.218 701.488 329.834 699.514 330.973L690.422 336.224C685.769 338.912 682.877 343.917 682.877 349.292V359.792C682.877 362.11 683.443 364.347 684.429 366.371L657.265 382.056C656.004 380.189 654.349 378.58 652.342 377.421L643.248 372.172C640.965 370.853 638.355 370.156 635.704 370.156V372.294C637.98 372.294 640.219 372.893 642.178 374.024L651.272 379.274C655.267 381.58 657.748 385.877 657.748 390.489V400.988C657.748 405.6 655.267 409.898 651.272 412.204L642.18 417.455C640.219 418.585 637.98 419.183 635.704 419.183V421.321C638.355 421.321 640.963 420.625 643.248 419.306L652.342 414.056C656.995 411.37 659.887 406.362 659.887 400.988V390.489C659.887 388.171 659.321 385.934 658.334 383.909L685.499 368.224Z" fill="#E1E1E1"/>
</g>
<mask id="mask22_1025_6611" style="mask-type:alpha" maskUnits="userSpaceOnUse" x="635" y="313" width="25" height="26">
<path fill-rule="evenodd" clip-rule="evenodd" d="M635.704 313.346H659.887V338.929H635.704V313.346Z" fill="white"/>
</mask>
<g mask="url(#mask22_1025_6611)">
<path fill-rule="evenodd" clip-rule="evenodd" d="M652.343 331.666C656.995 328.978 659.887 323.971 659.887 318.598V313.348H657.749V318.598C657.749 323.21 655.266 327.507 651.273 329.813L642.178 335.063C640.22 336.193 637.98 336.793 635.704 336.793V338.931C638.356 338.931 640.964 338.234 643.248 336.916L652.343 331.666Z" fill="#E1E1E1"/>
</g>
<mask id="mask23_1025_6611" style="mask-type:alpha" maskUnits="userSpaceOnUse" x="896" y="313" width="26" height="26">
<path fill-rule="evenodd" clip-rule="evenodd" d="M896.944 313.344H921.126V338.927H896.944V313.344Z" fill="white"/>
</mask>
<g mask="url(#mask23_1025_6611)">
<path fill-rule="evenodd" clip-rule="evenodd" d="M914.651 335.059L905.559 329.809C901.564 327.503 899.084 323.206 899.084 318.594V313.344H896.944V318.594C896.944 323.967 899.836 328.974 904.489 331.662L913.581 336.912C915.866 338.23 918.474 338.927 921.127 338.927V336.789C918.85 336.789 916.61 336.191 914.651 335.059" fill="#E1E1E1"/>
</g>
<mask id="mask24_1025_6611" style="mask-type:alpha" maskUnits="userSpaceOnUse" x="896" y="370" width="26" height="52">
<path fill-rule="evenodd" clip-rule="evenodd" d="M896.944 370.157H921.126V421.323H896.944V370.157Z" fill="white"/>
</mask>
<g mask="url(#mask24_1025_6611)">
<path fill-rule="evenodd" clip-rule="evenodd" d="M904.488 377.422C899.835 380.11 896.944 385.118 896.944 390.49V400.99C896.944 406.362 899.835 411.37 904.488 414.057L913.582 419.308C915.866 420.625 918.475 421.323 921.127 421.323V419.184C918.851 419.184 916.611 418.586 914.652 417.455L905.558 412.204C901.565 409.898 899.084 405.6 899.084 400.99V390.49C899.084 385.88 901.565 381.582 905.558 379.276L914.651 374.025C916.61 372.895 918.851 372.296 921.127 372.296V370.157C918.475 370.157 915.866 370.854 913.581 372.172L904.488 377.422Z" fill="#E1E1E1"/>
</g>
<mask id="mask25_1025_6611" style="mask-type:alpha" maskUnits="userSpaceOnUse" x="754" y="328" width="168" height="151">
<path fill-rule="evenodd" clip-rule="evenodd" d="M754.233 328.995H921.126V478.132H754.233V328.995Z" fill="white"/>
</mask>
<g mask="url(#mask25_1025_6611)">
<path fill-rule="evenodd" clip-rule="evenodd" d="M865.338 453.398L856.245 458.649C852.251 460.953 847.29 460.953 843.297 458.649L834.203 453.398C830.209 451.094 827.728 446.796 827.728 442.184V431.683C827.728 427.072 830.209 422.774 834.203 420.468L843.297 415.219C845.254 414.088 847.494 413.49 849.771 413.49C852.048 413.49 854.288 414.088 856.245 415.219L865.338 420.468C869.333 422.774 871.814 427.072 871.814 431.683V442.184C871.814 446.796 869.333 451.092 865.338 453.398V453.398ZM834.203 371.006C830.209 368.7 827.728 364.403 827.728 359.791V349.292C827.728 344.68 830.209 340.382 834.203 338.076L843.297 332.825C845.254 331.695 847.494 331.097 849.771 331.097C852.048 331.097 854.288 331.695 856.245 332.825L865.338 338.076C869.333 340.382 871.814 344.678 871.814 349.292V359.791C871.814 364.403 869.333 368.7 865.338 371.006L856.245 376.256C852.252 378.562 847.292 378.564 843.297 376.256L834.203 371.006ZM904.488 459.815C902.48 460.974 900.828 462.581 899.566 464.448L872.403 448.765C873.388 446.74 873.954 444.503 873.954 442.185V431.684C873.954 426.312 871.063 421.304 866.408 418.618L857.316 413.368C855.343 412.228 853.108 411.612 850.841 411.457V380.054C853.087 379.894 855.307 379.266 857.316 378.107L866.408 372.858C871.063 370.171 873.954 365.163 873.954 359.791V349.291C873.954 343.917 871.063 338.91 866.408 336.223L857.316 330.973C852.752 328.337 846.792 328.335 842.227 330.973L833.133 336.223C828.48 338.91 825.588 343.917 825.588 349.291V359.791C825.588 365.165 828.48 370.172 833.133 372.858L842.227 378.107C844.236 379.266 846.454 379.894 848.701 380.054V411.457C846.434 411.612 844.199 412.228 842.227 413.368L833.133 418.618C828.48 421.304 825.588 426.312 825.588 431.684V442.185C825.588 444.503 826.154 446.74 827.14 448.767L799.975 464.448C798.715 462.581 797.061 460.974 795.053 459.815L785.959 454.565C781.303 451.877 775.523 451.878 770.87 454.565L761.776 459.815C757.123 462.501 754.233 467.509 754.233 472.882V478.132H756.372V472.882C756.372 468.271 758.853 463.973 762.846 461.668L771.94 456.418C775.934 454.112 780.896 454.112 784.889 456.418L793.983 461.668C797.977 463.973 800.458 468.271 800.458 472.883V478.132H802.598V472.883C802.598 470.563 802.032 468.327 801.045 466.302L828.21 450.618C829.471 452.485 831.125 454.092 833.133 455.253L842.227 460.503C844.554 461.846 847.162 462.518 849.771 462.518C852.379 462.518 854.988 461.846 857.316 460.503L866.408 455.253C868.417 454.092 870.071 452.485 871.333 450.618L898.496 466.302C897.509 468.327 896.943 470.563 896.943 472.883V478.132H899.083V472.883C899.083 468.271 901.564 463.973 905.558 461.668L914.652 456.418C916.611 455.286 918.85 454.689 921.128 454.689V452.55C918.475 452.55 915.865 453.246 913.582 454.565L904.488 459.815Z" fill="#E1E1E1"/>
</g>
<mask id="mask26_1025_6611" style="mask-type:alpha" maskUnits="userSpaceOnUse" x="754" y="477" width="49" height="27">
<path fill-rule="evenodd" clip-rule="evenodd" d="M754.233 477.845H802.597V503.428H754.233V477.845Z" fill="white"/>
</mask>
<g mask="url(#mask26_1025_6611)">
<path fill-rule="evenodd" clip-rule="evenodd" d="M761.777 496.163L770.871 501.413C773.198 502.757 775.806 503.428 778.415 503.428C781.023 503.427 783.633 502.757 785.96 501.413L795.052 496.163C799.705 493.477 802.597 488.469 802.597 483.095V477.845H800.457V483.095C800.457 487.707 797.977 492.005 793.982 494.31L784.89 499.56C780.895 501.868 775.933 501.866 771.941 499.56L762.847 494.31C760.888 493.179 759.251 491.539 758.113 489.566C756.973 487.595 756.371 485.359 756.371 483.095V477.845H754.233V483.095C754.233 485.733 754.934 488.341 756.259 490.636C757.586 492.933 759.493 494.844 761.777 496.163" fill="#E1E1E1"/>
</g>
<mask id="mask27_1025_6611" style="mask-type:alpha" maskUnits="userSpaceOnUse" x="896" y="477" width="26" height="27">
<path fill-rule="evenodd" clip-rule="evenodd" d="M896.944 477.845H921.126V503.428H896.944V477.845Z" fill="white"/>
</mask>
<g mask="url(#mask27_1025_6611)">
<path fill-rule="evenodd" clip-rule="evenodd" d="M914.652 499.561L905.559 494.311C901.564 492.005 899.084 487.708 899.084 483.096V477.846H896.944V483.096C896.944 488.469 899.836 493.476 904.489 496.164L913.582 501.414C915.866 502.732 918.474 503.429 921.127 503.429V501.291C918.85 501.291 916.61 500.693 914.652 499.561" fill="#E1E1E1"/>
</g>
<path fill-rule="evenodd" clip-rule="evenodd" d="M545.336 113.19C545.336 117.802 542.855 122.098 538.86 124.404L529.767 129.655C525.774 131.961 520.812 131.961 516.819 129.655L507.724 124.404C503.73 122.1 501.249 117.802 501.249 113.19V102.689C501.249 98.0783 503.73 93.7802 507.724 91.4742L516.819 86.2253C518.778 85.0935 521.016 84.4958 523.293 84.4958C525.569 84.4958 527.808 85.0935 529.767 86.2253L538.86 91.4742C542.855 93.7817 545.336 98.0783 545.336 102.689V113.19ZM539.93 89.6204L530.837 84.37C526.269 81.7334 520.317 81.7334 515.748 84.37L506.654 89.6204C502.001 92.3067 499.11 97.3141 499.11 102.687V113.188C499.11 118.562 502.001 123.569 506.654 126.255L515.748 131.506C517.755 132.665 519.975 133.293 522.223 133.451V149.134H524.361V133.451C526.608 133.293 528.828 132.665 530.837 131.506L539.93 126.255C544.582 123.568 547.474 118.562 547.474 113.188V102.687C547.474 97.3141 544.584 92.3082 539.93 89.6204V89.6204Z" fill="#E1E1E1"/>
<path fill-rule="evenodd" clip-rule="evenodd" d="M468.575 130.817L459.481 125.566C457.196 124.247 454.588 123.552 451.936 123.552V125.69C454.212 125.69 456.452 126.288 458.411 127.42L467.505 132.67C471.498 134.975 473.981 139.273 473.981 143.885V149.134H476.119V143.885C476.119 138.511 473.228 133.503 468.575 130.817" fill="#E1E1E1"/>
<path fill-rule="evenodd" clip-rule="evenodd" d="M753.808 295.315L744.713 290.065C742.429 288.746 739.821 288.05 737.169 288.05V290.188C739.445 290.188 741.684 290.786 743.643 291.918L752.738 297.168C756.731 299.473 759.213 303.771 759.213 308.383V313.632H761.352V308.383C761.352 303.009 758.46 298.001 753.808 295.315" fill="#E1E1E1"/>
<path fill-rule="evenodd" clip-rule="evenodd" d="M545.336 277.687C545.336 282.299 542.855 286.596 538.86 288.902L529.767 294.152C525.774 296.458 520.812 296.458 516.819 294.152L507.724 288.902C503.73 286.597 501.249 282.299 501.249 277.687V267.186C501.249 262.576 503.73 258.278 507.724 255.972L516.819 250.723C518.778 249.591 521.016 248.993 523.293 248.993C525.569 248.993 527.808 249.591 529.767 250.723L538.86 255.972C542.855 258.279 545.336 262.576 545.336 267.186V277.687ZM539.93 254.118L530.837 248.868C526.269 246.231 520.317 246.231 515.748 248.868L506.654 254.118C502.001 256.805 499.11 261.812 499.11 267.185V277.686C499.11 283.06 502.001 288.067 506.654 290.753L515.748 296.004C517.755 297.163 519.975 297.791 522.223 297.949V313.632H524.361V297.949C526.608 297.791 528.828 297.163 530.837 296.004L539.93 290.753C544.582 288.066 547.474 283.06 547.474 277.686V267.185C547.474 261.812 544.584 256.806 539.93 254.118V254.118Z" fill="#E1E1E1"/>
<mask id="mask28_1025_6611" style="mask-type:alpha" maskUnits="userSpaceOnUse" x="451" y="148" width="168" height="109">
<path fill-rule="evenodd" clip-rule="evenodd" d="M451.936 148.845H618.83V256.821H451.936V148.845Z" fill="white"/>
</mask>
<g mask="url(#mask28_1025_6611)">
<path fill-rule="evenodd" clip-rule="evenodd" d="M501.248 184.792C501.248 180.18 503.729 175.883 507.724 173.577L516.817 168.327C518.776 167.195 521.015 166.598 523.291 166.598C525.57 166.598 527.808 167.195 529.765 168.327L538.86 173.577C542.855 175.883 545.336 180.18 545.336 184.792V195.293C545.336 199.903 542.855 204.2 538.86 206.508L529.765 211.756C525.772 214.064 520.81 214.064 516.817 211.756L507.724 206.508C503.729 204.201 501.248 199.903 501.248 195.293V184.792ZM579.079 214.774L588.173 209.523C590.17 208.37 592.408 207.794 594.647 207.794C596.887 207.794 599.125 208.37 601.122 209.523L610.216 214.774C614.209 217.08 616.69 221.376 616.69 225.988V236.488C616.69 241.101 614.209 245.398 610.216 247.704L601.122 252.954C597.129 255.259 592.166 255.259 588.173 252.954L579.079 247.704C577.12 246.572 575.483 244.932 574.345 242.959C573.207 240.988 572.605 238.751 572.605 236.489V225.988C572.605 221.376 575.086 217.08 579.079 214.774V214.774ZM501.731 203.724C502.993 205.591 504.645 207.2 506.654 208.359L515.747 213.609C518.074 214.952 520.682 215.624 523.291 215.624C525.901 215.624 528.51 214.952 530.836 213.609L539.93 208.359C541.938 207.2 543.591 205.591 544.853 203.724L572.018 219.409C571.032 221.434 570.466 223.671 570.466 225.989V236.49C570.466 239.126 571.166 241.734 572.493 244.029C573.818 246.326 575.726 248.237 578.009 249.556L587.103 254.806C589.43 256.149 592.038 256.821 594.648 256.821C597.257 256.821 599.865 256.149 602.192 254.806L611.286 249.556C615.939 246.87 618.83 241.862 618.83 236.488V225.989C618.83 220.615 615.939 215.607 611.286 212.921L602.192 207.672C597.538 204.984 591.756 204.984 587.103 207.671L578.009 212.921C576.002 214.081 574.348 215.689 573.088 217.556L545.923 201.872C546.908 199.847 547.474 197.61 547.474 195.292V184.792C547.474 179.417 544.583 174.412 539.93 171.724L530.836 166.473C528.863 165.334 526.629 164.718 524.361 164.564V148.845H522.223V164.564C519.956 164.718 517.721 165.334 515.747 166.473L506.654 171.724C502.001 174.412 499.11 179.417 499.11 184.792V195.292C499.11 197.61 499.676 199.847 500.661 201.871L473.498 217.556C472.236 215.689 470.582 214.08 468.575 212.921L459.481 207.672C457.197 206.353 454.588 205.656 451.936 205.656V207.794C454.212 207.794 456.452 208.393 458.411 209.524L467.505 214.774C471.5 217.08 473.981 221.377 473.981 225.989V236.488C473.981 241.1 471.5 245.398 467.505 247.704L458.412 252.955C456.452 254.085 454.212 254.683 451.936 254.683V256.821C454.588 256.821 457.196 256.125 459.481 254.806L468.575 249.556C473.228 246.87 476.119 241.862 476.119 236.488V225.989C476.119 223.671 475.553 221.434 474.566 219.409L501.731 203.724Z" fill="#E1E1E1"/>
</g>
<mask id="mask29_1025_6611" style="mask-type:alpha" maskUnits="userSpaceOnUse" x="451" y="148" width="26" height="27">
<path fill-rule="evenodd" clip-rule="evenodd" d="M451.936 148.845H476.119V174.428H451.936V148.845Z" fill="white"/>
</mask>
<g mask="url(#mask29_1025_6611)">
<path fill-rule="evenodd" clip-rule="evenodd" d="M468.575 167.164C473.228 164.476 476.119 159.469 476.119 154.096V148.846H473.981V154.096C473.981 158.708 471.498 163.005 467.505 165.311L458.411 170.561C456.452 171.691 454.212 172.291 451.937 172.291V174.429C454.588 174.429 457.196 173.732 459.481 172.414L468.575 167.164Z" fill="#E1E1E1"/>
</g>
<path fill-rule="evenodd" clip-rule="evenodd" d="M468.575 295.315L459.481 290.065C457.196 288.746 454.588 288.05 451.936 288.05V290.188C454.212 290.188 456.452 290.786 458.411 291.918L467.505 297.168C471.498 299.473 473.981 303.771 473.981 308.383V313.632H476.119V308.383C476.119 303.009 473.228 298.001 468.575 295.315" fill="#E1E1E1"/>
<mask id="mask30_1025_6611" style="mask-type:alpha" maskUnits="userSpaceOnUse" x="570" y="164" width="168" height="150">
<path fill-rule="evenodd" clip-rule="evenodd" d="M570.466 164.497H737.359V313.634H570.466V164.497Z" fill="white"/>
</mask>
<g mask="url(#mask30_1025_6611)">
<path fill-rule="evenodd" clip-rule="evenodd" d="M681.571 288.902L672.478 294.152C668.483 296.457 663.523 296.457 659.53 294.152L650.435 288.902C646.442 286.597 643.961 282.299 643.961 277.687V267.186C643.961 262.576 646.442 258.278 650.435 255.972L659.53 250.723C661.487 249.591 663.727 248.993 666.004 248.993C668.281 248.993 670.521 249.591 672.478 250.723L681.571 255.972C685.566 258.278 688.047 262.576 688.047 267.186V277.687C688.047 282.299 685.566 286.596 681.571 288.902V288.902ZM650.435 206.508C646.442 204.202 643.961 199.905 643.961 195.293V184.794C643.961 180.182 646.442 175.884 650.435 173.578L659.53 168.327C661.487 167.197 663.727 166.599 666.004 166.599C668.281 166.599 670.521 167.197 672.478 168.327L681.571 173.578C685.566 175.884 688.047 180.18 688.047 184.794V195.293C688.047 199.905 685.566 204.202 681.571 206.508L672.478 211.758C668.485 214.064 663.524 214.065 659.53 211.758L650.435 206.508ZM720.72 295.317C718.713 296.476 717.061 298.083 715.799 299.95L688.635 284.267C689.621 282.242 690.187 280.005 690.187 277.687V267.186C690.187 261.814 687.295 256.806 682.641 254.12L673.548 248.869C671.576 247.73 669.341 247.114 667.074 246.959V215.556C669.32 215.396 671.54 214.768 673.548 213.609L682.641 208.36C687.295 205.673 690.187 200.665 690.187 195.293V184.793C690.187 179.419 687.295 174.412 682.641 171.725L673.548 166.475C668.985 163.839 663.025 163.837 658.46 166.475L649.365 171.725C644.713 174.412 641.821 179.419 641.821 184.793V195.293C641.821 200.667 644.713 205.674 649.365 208.36L658.46 213.609C660.468 214.768 662.687 215.396 664.934 215.556V246.959C662.667 247.114 660.432 247.73 658.46 248.869L649.365 254.12C644.713 256.806 641.821 261.814 641.821 267.186V277.687C641.821 280.005 642.387 282.242 643.373 284.269L616.208 299.95C614.947 298.083 613.293 296.476 611.286 295.317L602.192 290.067C597.536 287.379 591.756 287.38 587.103 290.067L578.009 295.317C573.356 298.003 570.466 303.011 570.466 308.383V313.634H572.605V308.383C572.605 303.773 575.086 299.475 579.079 297.17L588.173 291.92C592.166 289.614 597.129 289.614 601.122 291.92L610.216 297.17C614.209 299.475 616.69 303.773 616.69 308.385V313.634H618.83V308.385C618.83 306.065 618.265 303.829 617.278 301.804L644.443 286.12C645.704 287.987 647.358 289.594 649.365 290.755L658.46 296.005C660.787 297.348 663.395 298.02 666.004 298.02C668.612 298.02 671.221 297.348 673.548 296.005L682.641 290.755C684.65 289.594 686.304 287.987 687.565 286.12L714.729 301.804C713.742 303.829 713.176 306.065 713.176 308.385V313.634H715.316V308.385C715.316 303.773 717.797 299.475 721.79 297.17L730.885 291.92C732.843 290.788 735.083 290.19 737.36 290.19V288.052C734.707 288.052 732.098 288.748 729.815 290.067L720.72 295.317Z" fill="#E1E1E1"/>
</g>
<mask id="mask31_1025_6611" style="mask-type:alpha" maskUnits="userSpaceOnUse" x="570" y="313" width="49" height="26">
<path fill-rule="evenodd" clip-rule="evenodd" d="M570.465 313.346H618.829V338.929H570.465V313.346Z" fill="white"/>
</mask>
<g mask="url(#mask31_1025_6611)">
<path fill-rule="evenodd" clip-rule="evenodd" d="M578.01 331.664L587.104 336.914C589.431 338.258 592.039 338.929 594.648 338.929C597.256 338.928 599.865 338.258 602.192 336.914L611.285 331.664C615.938 328.978 618.829 323.97 618.829 318.596V313.346H616.689V318.596C616.689 323.208 614.21 327.506 610.215 329.811L601.122 335.061C597.128 337.369 592.166 337.367 588.174 335.061L579.08 329.811C577.121 328.68 575.483 327.04 574.345 325.067C573.206 323.096 572.604 320.86 572.604 318.596V313.346H570.465V318.596C570.465 321.234 571.167 323.842 572.492 326.137C573.819 328.434 575.726 330.345 578.01 331.664" fill="#E1E1E1"/>
</g>
<mask id="mask32_1025_6611" style="mask-type:alpha" maskUnits="userSpaceOnUse" x="451" y="313" width="168" height="109">
<path fill-rule="evenodd" clip-rule="evenodd" d="M451.937 313.346H618.831V421.322H451.937V313.346Z" fill="white"/>
</mask>
<g mask="url(#mask32_1025_6611)">
<path fill-rule="evenodd" clip-rule="evenodd" d="M501.248 349.293C501.248 344.681 503.729 340.384 507.724 338.078L516.817 332.828C518.776 331.696 521.015 331.098 523.291 331.098C525.57 331.098 527.808 331.696 529.766 332.828L538.86 338.078C542.855 340.384 545.336 344.681 545.336 349.293V359.793C545.336 364.404 542.855 368.701 538.86 371.008L529.766 376.257C525.772 378.565 520.81 378.565 516.817 376.257L507.724 371.008C503.729 368.702 501.248 364.404 501.248 359.793V349.293ZM579.079 379.274L588.173 374.023C590.17 372.87 592.408 372.294 594.648 372.294C596.887 372.294 599.125 372.87 601.122 374.023L610.216 379.274C614.209 381.58 616.691 385.876 616.691 390.488V400.988C616.691 405.601 614.209 409.898 610.216 412.204L601.122 417.454C597.129 419.759 592.167 419.759 588.173 417.454L579.079 412.204C577.12 411.072 575.483 409.431 574.345 407.459C573.207 405.488 572.605 403.251 572.605 400.989V390.488C572.605 385.876 575.086 381.58 579.079 379.274V379.274ZM501.732 368.225C502.993 370.092 504.646 371.701 506.655 372.86L515.747 378.11C518.074 379.453 520.682 380.125 523.292 380.125C525.901 380.125 528.51 379.453 530.836 378.11L539.93 372.86C541.939 371.701 543.591 370.092 544.853 368.225L572.018 383.91C571.033 385.935 570.467 388.172 570.467 390.49V400.991C570.467 403.627 571.167 406.235 572.493 408.53C573.818 410.827 575.726 412.738 578.009 414.057L587.104 419.307C589.431 420.65 592.039 421.322 594.648 421.322C597.257 421.322 599.865 420.65 602.192 419.307L611.287 414.057C615.939 411.371 618.831 406.363 618.831 400.989V390.49C618.831 385.116 615.939 380.108 611.287 377.422L602.192 372.173C597.538 369.485 591.756 369.485 587.104 372.172L578.009 377.422C576.002 378.582 574.348 380.19 573.088 382.057L545.923 366.373C546.909 364.348 547.474 362.111 547.474 359.793V349.293C547.474 343.918 544.583 338.912 539.93 336.225L530.836 330.974C528.863 329.835 526.63 329.219 524.362 329.065V313.346H522.223V329.065C519.956 329.219 517.721 329.835 515.747 330.974L506.655 336.225C502.002 338.912 499.11 343.918 499.11 349.293V359.793C499.11 362.111 499.676 364.348 500.662 366.372L473.498 382.057C472.236 380.19 470.582 378.581 468.575 377.422L459.481 372.173C457.198 370.854 454.588 370.157 451.937 370.157V372.295C454.212 372.295 456.452 372.894 458.411 374.025L467.505 379.275C471.5 381.581 473.981 385.878 473.981 390.49V400.989C473.981 405.601 471.5 409.899 467.505 412.205L458.412 417.456C456.452 418.586 454.212 419.184 451.937 419.184V421.322C454.588 421.322 457.196 420.626 459.481 419.307L468.575 414.057C473.228 411.371 476.12 406.363 476.12 400.989V390.49C476.12 388.172 475.554 385.935 474.567 383.91L501.732 368.225Z" fill="#E1E1E1"/>
</g>
<mask id="mask33_1025_6611" style="mask-type:alpha" maskUnits="userSpaceOnUse" x="451" y="313" width="26" height="26">
<path fill-rule="evenodd" clip-rule="evenodd" d="M451.937 313.346H476.12V338.929H451.937V313.346Z" fill="white"/>
</mask>
<g mask="url(#mask33_1025_6611)">
<path fill-rule="evenodd" clip-rule="evenodd" d="M468.575 331.664C473.228 328.976 476.12 323.969 476.12 318.596V313.346H473.981V318.596C473.981 323.208 471.499 327.505 467.505 329.811L458.411 335.061C456.452 336.191 454.213 336.791 451.937 336.791V338.929C454.588 338.929 457.196 338.232 459.481 336.914L468.575 331.664Z" fill="#E1E1E1"/>
</g>
<path fill-rule="evenodd" clip-rule="evenodd" d="M468.575 459.816L459.481 454.566C457.196 453.247 454.588 452.551 451.936 452.551V454.689C454.212 454.689 456.452 455.287 458.411 456.419L467.505 461.669C471.498 463.974 473.981 468.272 473.981 472.884V478.133H476.119V472.884C476.119 467.51 473.228 462.502 468.575 459.816" fill="#E1E1E1"/>
<mask id="mask34_1025_6611" style="mask-type:alpha" maskUnits="userSpaceOnUse" x="713" y="313" width="25" height="26">
<path fill-rule="evenodd" clip-rule="evenodd" d="M713.177 313.346H737.359V338.928H713.177V313.346Z" fill="white"/>
</mask>
<g mask="url(#mask34_1025_6611)">
<path fill-rule="evenodd" clip-rule="evenodd" d="M730.884 335.062L721.791 329.812C717.797 327.506 715.317 323.209 715.317 318.597V313.347H713.177V318.597C713.177 323.97 716.069 328.977 720.721 331.665L729.814 336.915C732.099 338.233 734.707 338.93 737.36 338.93V336.792C735.083 336.792 732.843 336.194 730.884 335.062" fill="#E1E1E1"/>
</g>
<mask id="mask35_1025_6611" style="mask-type:alpha" maskUnits="userSpaceOnUse" x="737" y="313" width="25" height="26">
<path fill-rule="evenodd" clip-rule="evenodd" d="M737.169 313.346H761.352V338.929H737.169V313.346Z" fill="white"/>
</mask>
<g mask="url(#mask35_1025_6611)">
<path fill-rule="evenodd" clip-rule="evenodd" d="M753.808 331.664C758.46 328.976 761.352 323.969 761.352 318.596V313.346H759.213V318.596C759.213 323.208 756.731 327.505 752.738 329.811L743.643 335.061C741.684 336.191 739.445 336.791 737.169 336.791V338.929C739.821 338.929 742.428 338.232 744.713 336.914L753.808 331.664Z" fill="#E1E1E1"/>
</g>
<mask id="mask36_1025_6611" style="mask-type:alpha" maskUnits="userSpaceOnUse" x="451" y="477" width="26" height="27">
<path fill-rule="evenodd" clip-rule="evenodd" d="M451.937 477.848H476.119V503.431H451.937V477.848Z" fill="white"/>
</mask>
<g mask="url(#mask36_1025_6611)">
<path fill-rule="evenodd" clip-rule="evenodd" d="M468.575 496.166C473.228 493.478 476.119 488.471 476.119 483.098V477.848H473.981V483.098C473.981 487.71 471.498 492.007 467.505 494.313L458.411 499.563C456.452 500.693 454.212 501.293 451.937 501.293V503.431C454.588 503.431 457.196 502.734 459.481 501.416L468.575 496.166Z" fill="#E1E1E1"/>
</g>
<path fill-rule="evenodd" clip-rule="evenodd" d="M260.104 113.192C260.104 117.804 257.623 122.101 253.628 124.407L244.535 129.657C240.542 131.963 235.58 131.963 231.586 129.657L222.492 124.407C218.497 122.102 216.016 117.804 216.016 113.192V102.691C216.016 98.0806 218.497 93.7825 222.492 91.4765L231.586 86.2276C233.545 85.0957 235.783 84.4981 238.061 84.4981C240.337 84.4981 242.576 85.0957 244.535 86.2276L253.628 91.4765C257.623 93.784 260.104 98.0806 260.104 102.691V113.192ZM254.697 89.6223L245.605 84.3719C241.036 81.7354 235.084 81.7354 230.516 84.3719L221.422 89.6223C216.769 92.3086 213.877 97.316 213.877 102.689V113.189C213.877 118.564 216.769 123.571 221.422 126.257L230.516 131.508C232.523 132.667 234.743 133.295 236.99 133.453V149.136H239.129V133.453C241.376 133.295 243.596 132.667 245.605 131.508L254.697 126.257C259.35 123.57 262.242 118.564 262.242 113.189V102.689C262.242 97.316 259.352 92.3101 254.697 89.6223V89.6223Z" fill="#E1E1E1"/>
<mask id="mask37_1025_6611" style="mask-type:alpha" maskUnits="userSpaceOnUse" x="285" y="0" width="168" height="150">
<path fill-rule="evenodd" clip-rule="evenodd" d="M285.234 0H452.127V149.137H285.234V0Z" fill="white"/>
</mask>
<g mask="url(#mask37_1025_6611)">
<path fill-rule="evenodd" clip-rule="evenodd" d="M396.338 124.405L387.246 129.655C383.251 131.96 378.29 131.96 374.297 129.655L365.203 124.405C361.21 122.101 358.729 117.802 358.729 113.19V102.69C358.729 98.0791 361.21 93.781 365.203 91.475L374.297 86.2261C376.254 85.0942 378.494 84.4966 380.771 84.4966C383.049 84.4966 385.288 85.0942 387.246 86.2261L396.338 91.475C400.333 93.781 402.814 98.0791 402.814 102.69V113.19C402.814 117.802 400.333 122.099 396.338 124.405V124.405ZM365.203 42.01C361.21 39.704 358.729 35.4074 358.729 30.7953V20.2961C358.729 15.6841 361.21 11.386 365.203 9.07995L374.297 3.82956C376.254 2.69919 378.494 2.10156 380.771 2.10156C383.049 2.10156 385.288 2.69919 387.246 3.82956L396.338 9.07995C400.333 11.386 402.814 15.6826 402.814 20.2961V30.7953C402.814 35.4074 400.333 39.704 396.338 42.01L387.246 47.2604C383.252 49.5664 378.292 49.5679 374.297 47.2604L365.203 42.01ZM435.488 130.82C433.481 131.979 431.828 133.586 430.567 135.453L403.403 119.77C404.389 117.745 404.954 115.508 404.954 113.19V102.689C404.954 97.3165 402.063 92.3091 397.409 89.6228L388.316 84.3724C386.343 83.233 384.108 82.6173 381.842 82.4618V51.0591C384.087 50.8991 386.307 50.2713 388.316 49.1122L397.409 43.8634C402.063 41.1755 404.954 36.1681 404.954 30.7955V20.2962C404.954 14.9221 402.063 9.91466 397.409 7.22834L388.316 1.97795C383.752 -0.658562 377.792 -0.660072 373.227 1.97795L364.133 7.22834C359.48 9.91466 356.589 14.9221 356.589 20.2962V30.7955C356.589 36.1696 359.48 41.177 364.133 43.8634L373.227 49.1122C375.236 50.2713 377.454 50.8991 379.702 51.0591V82.4618C377.435 82.6173 375.2 83.233 373.227 84.3724L364.133 89.6228C359.48 92.3091 356.589 97.3165 356.589 102.689V113.19C356.589 115.508 357.155 117.745 358.14 119.771L330.975 135.453C329.715 133.586 328.061 131.979 326.054 130.82L316.959 125.57C312.304 122.882 306.524 122.883 301.871 125.57L292.777 130.82C288.124 133.506 285.234 138.514 285.234 143.886V149.137H287.372V143.886C287.372 139.276 289.853 134.978 293.847 132.673L302.941 127.423C306.934 125.117 311.896 125.117 315.889 127.423L324.984 132.673C328.977 134.978 331.458 139.276 331.458 143.888V149.137H333.598V143.888C333.598 141.568 333.032 139.332 332.045 137.306L359.21 121.623C360.472 123.49 362.126 125.097 364.133 126.258L373.227 131.508C375.554 132.851 378.162 133.523 380.772 133.523C383.379 133.523 385.989 132.851 388.316 131.508L397.409 126.258C399.417 125.097 401.071 123.49 402.333 121.623L429.497 137.306C428.51 139.332 427.944 141.568 427.944 143.888V149.137H430.084V143.888C430.084 139.276 432.565 134.978 436.558 132.673L445.652 127.423C447.611 126.291 449.851 125.693 452.128 125.693V123.555C449.475 123.555 446.866 124.251 444.582 125.57L435.488 130.82Z" fill="#E1E1E1"/>
</g>
<mask id="mask38_1025_6611" style="mask-type:alpha" maskUnits="userSpaceOnUse" x="285" y="148" width="49" height="27">
<path fill-rule="evenodd" clip-rule="evenodd" d="M285.233 148.846H333.597V174.429H285.233V148.846Z" fill="white"/>
</mask>
<g mask="url(#mask38_1025_6611)">
<path fill-rule="evenodd" clip-rule="evenodd" d="M292.777 167.166L301.871 172.416C304.199 173.759 306.806 174.431 309.416 174.431C312.024 174.43 314.633 173.759 316.96 172.416L326.053 167.166C330.706 164.48 333.597 159.472 333.597 154.098V148.848H331.457V154.098C331.457 158.71 328.978 163.008 324.983 165.313L315.89 170.563C311.895 172.871 306.933 172.869 302.941 170.563L293.847 165.313C291.888 164.182 290.251 162.542 289.113 160.569C287.974 158.598 287.371 156.362 287.371 154.098V148.848H285.233V154.098C285.233 156.736 285.935 159.344 287.26 161.639C288.586 163.936 290.494 165.847 292.777 167.166" fill="#E1E1E1"/>
</g>
<path fill-rule="evenodd" clip-rule="evenodd" d="M260.104 277.688C260.104 282.3 257.623 286.597 253.628 288.903L244.535 294.153C240.542 296.459 235.58 296.459 231.586 294.153L222.492 288.903C218.497 286.598 216.016 282.3 216.016 277.688V267.187C216.016 262.577 218.497 258.279 222.492 255.973L231.586 250.724C233.545 249.592 235.783 248.994 238.061 248.994C240.337 248.994 242.576 249.592 244.535 250.724L253.628 255.973C257.623 258.28 260.104 262.577 260.104 267.187V277.688ZM254.697 254.119L245.605 248.869C241.036 246.232 235.084 246.232 230.516 248.869L221.422 254.119C216.769 256.806 213.877 261.813 213.877 267.186V277.687C213.877 283.061 216.769 288.068 221.422 290.754L230.516 296.005C232.523 297.164 234.743 297.792 236.99 297.95V313.633H239.129V297.95C241.376 297.792 243.596 297.164 245.605 296.005L254.697 290.754C259.35 288.067 262.242 283.061 262.242 277.687V267.186C262.242 261.813 259.352 256.807 254.697 254.119V254.119Z" fill="#E1E1E1"/>
<mask id="mask39_1025_6611" style="mask-type:alpha" maskUnits="userSpaceOnUse" x="166" y="148" width="168" height="109">
<path fill-rule="evenodd" clip-rule="evenodd" d="M166.704 148.846H333.599V256.822H166.704V148.846Z" fill="white"/>
</mask>
<g mask="url(#mask39_1025_6611)">
<path fill-rule="evenodd" clip-rule="evenodd" d="M216.016 184.793C216.016 180.181 218.497 175.884 222.492 173.578L231.585 168.328C233.543 167.196 235.783 166.598 238.059 166.598C240.338 166.598 242.576 167.196 244.533 168.328L253.627 173.578C257.622 175.884 260.103 180.181 260.103 184.793V195.294C260.103 199.904 257.622 204.201 253.627 206.508L244.533 211.757C240.54 214.065 235.578 214.065 231.585 211.757L222.492 206.508C218.497 204.202 216.016 199.904 216.016 195.294V184.793ZM293.847 214.775L302.941 209.525C304.938 208.372 307.176 207.795 309.415 207.795C311.655 207.795 313.893 208.372 315.89 209.525L324.984 214.775C328.977 217.081 331.458 221.378 331.458 225.99V236.489C331.458 241.103 328.977 245.399 324.984 247.705L315.89 252.956C311.896 255.26 306.934 255.26 302.941 252.956L293.847 247.705C291.888 246.574 290.25 244.933 289.113 242.961C287.975 240.99 287.372 238.753 287.372 236.491V225.99C287.372 221.378 289.854 217.081 293.847 214.775V214.775ZM216.499 203.725C217.761 205.592 219.413 207.201 221.422 208.36L230.515 213.61C232.842 214.953 235.45 215.625 238.059 215.625C240.668 215.625 243.278 214.953 245.603 213.61L254.698 208.36C256.706 207.201 258.359 205.592 259.62 203.725L286.785 219.41C285.8 221.435 285.234 223.672 285.234 225.99V236.491C285.234 239.127 285.934 241.735 287.261 244.03C288.586 246.327 290.494 248.238 292.777 249.557L301.871 254.807C304.198 256.15 306.806 256.822 309.415 256.822C312.025 256.822 314.633 256.15 316.96 254.807L326.054 249.557C330.707 246.871 333.598 241.863 333.598 236.489V225.99C333.598 220.616 330.707 215.608 326.054 212.922L316.96 207.673C312.305 204.985 306.524 204.985 301.871 207.672L292.777 212.922C290.77 214.082 289.116 215.69 287.855 217.557L260.69 201.873C261.676 199.848 262.242 197.611 262.242 195.293V184.793C262.242 179.418 259.35 174.412 254.698 171.725L245.603 166.474C243.631 165.335 241.397 164.719 239.129 164.565V148.846H236.991V164.565C234.724 164.719 232.489 165.335 230.515 166.474L221.422 171.725C216.769 174.412 213.878 179.418 213.878 184.793V195.293C213.878 197.611 214.444 199.848 215.429 201.872L188.266 217.557C187.004 215.69 185.35 214.081 183.343 212.922L174.248 207.673C171.965 206.354 169.356 205.657 166.704 205.657V207.795C168.98 207.795 171.22 208.394 173.178 209.525L182.273 214.775C186.267 217.081 188.749 221.378 188.749 225.99V236.489C188.749 241.101 186.267 245.399 182.273 247.705L173.18 252.956C171.22 254.086 168.98 254.684 166.704 254.684V256.822C169.356 256.822 171.964 256.126 174.248 254.807L183.343 249.557C187.995 246.871 190.887 241.863 190.887 236.489V225.99C190.887 223.672 190.321 221.435 189.334 219.41L216.499 203.725Z" fill="#E1E1E1"/>
</g>
<path fill-rule="evenodd" clip-rule="evenodd" d="M183.343 295.317L174.248 290.066C171.964 288.747 169.356 288.052 166.704 288.052V290.19C168.98 290.19 171.22 290.788 173.178 291.92L182.273 297.17C186.266 299.475 188.749 303.773 188.749 308.385V313.634H190.887V308.385C190.887 303.011 187.995 298.003 183.343 295.317" fill="#E1E1E1"/>
<mask id="mask40_1025_6611" style="mask-type:alpha" maskUnits="userSpaceOnUse" x="427" y="148" width="26" height="27">
<path fill-rule="evenodd" clip-rule="evenodd" d="M427.945 148.846H452.127V174.428H427.945V148.846Z" fill="white"/>
</mask>
<g mask="url(#mask40_1025_6611)">
<path fill-rule="evenodd" clip-rule="evenodd" d="M445.652 170.563L436.559 165.313C432.564 163.007 430.085 158.71 430.085 154.098V148.848H427.945V154.098C427.945 159.471 430.836 164.478 435.489 167.166L444.582 172.416C446.867 173.734 449.474 174.431 452.128 174.431V172.293C449.85 172.293 447.611 171.695 445.652 170.563" fill="#E1E1E1"/>
</g>
<mask id="mask41_1025_6611" style="mask-type:alpha" maskUnits="userSpaceOnUse" x="427" y="205" width="26" height="52">
<path fill-rule="evenodd" clip-rule="evenodd" d="M427.944 205.66H452.127V256.825H427.944V205.66Z" fill="white"/>
</mask>
<g mask="url(#mask41_1025_6611)">
<path fill-rule="evenodd" clip-rule="evenodd" d="M435.489 212.925C430.836 215.613 427.944 220.621 427.944 225.993V236.492C427.944 241.865 430.836 246.872 435.489 249.56L444.583 254.811C446.866 256.128 449.476 256.825 452.127 256.825V254.687C449.851 254.687 447.612 254.089 445.653 252.957L436.559 247.707C432.565 245.401 430.084 241.103 430.084 236.492V225.993C430.084 221.383 432.565 217.085 436.559 214.779L445.651 209.528C447.61 208.398 449.851 207.799 452.127 207.799V205.66C449.476 205.66 446.866 206.357 444.581 207.675L435.489 212.925Z" fill="#E1E1E1"/>
</g>
<mask id="mask42_1025_6611" style="mask-type:alpha" maskUnits="userSpaceOnUse" x="284" y="164" width="168" height="150">
<path fill-rule="evenodd" clip-rule="evenodd" d="M284.991 164.479H451.884V313.615H284.991V164.479Z" fill="white"/>
</mask>
<g mask="url(#mask42_1025_6611)">
<path fill-rule="evenodd" clip-rule="evenodd" d="M396.339 288.903L387.246 294.153C383.251 296.458 378.291 296.458 374.297 294.153L365.203 288.903C361.21 286.598 358.729 282.3 358.729 277.688V267.187C358.729 262.577 361.21 258.279 365.203 255.973L374.297 250.724C376.255 249.592 378.494 248.994 380.772 248.994C383.049 248.994 385.289 249.592 387.246 250.724L396.339 255.973C400.334 258.279 402.815 262.577 402.815 267.187V277.688C402.815 282.3 400.334 286.597 396.339 288.903V288.903ZM365.203 206.508C361.21 204.202 358.729 199.905 358.729 195.293V184.794C358.729 180.182 361.21 175.884 365.203 173.578L374.297 168.327C376.255 167.197 378.494 166.599 380.772 166.599C383.049 166.599 385.289 167.197 387.246 168.327L396.339 173.578C400.334 175.884 402.815 180.18 402.815 184.794V195.293C402.815 199.905 400.334 204.202 396.339 206.508L387.246 211.758C383.253 214.064 378.292 214.066 374.297 211.758L365.203 206.508ZM435.488 295.318C433.481 296.477 431.828 298.084 430.567 299.951L403.403 284.268C404.389 282.243 404.955 280.006 404.955 277.688V267.187C404.955 261.815 402.063 256.807 397.409 254.121L388.316 248.87C386.344 247.731 384.108 247.115 381.842 246.96V215.557C384.087 215.397 386.307 214.769 388.316 213.61L397.409 208.361C402.063 205.674 404.955 200.666 404.955 195.294V184.794C404.955 179.42 402.063 174.413 397.409 171.726L388.316 166.476C383.752 163.839 377.793 163.838 373.227 166.476L364.133 171.726C359.48 174.413 356.589 179.42 356.589 184.794V195.294C356.589 200.668 359.48 205.675 364.133 208.361L373.227 213.61C375.236 214.769 377.455 215.397 379.702 215.557V246.96C377.435 247.115 375.2 247.731 373.227 248.87L364.133 254.121C359.48 256.807 356.589 261.815 356.589 267.187V277.688C356.589 280.006 357.155 282.243 358.14 284.269L330.975 299.951C329.715 298.084 328.061 296.477 326.054 295.318L316.96 290.068C312.304 287.38 306.524 287.381 301.871 290.068L292.777 295.318C288.124 298.004 285.234 303.012 285.234 308.384V313.635H287.372V308.384C287.372 303.774 289.853 299.476 293.847 297.171L302.941 291.921C306.934 289.615 311.896 289.615 315.89 291.921L324.984 297.171C328.977 299.476 331.458 303.774 331.458 308.386V313.635H333.598V308.386C333.598 306.066 333.032 303.83 332.045 301.804L359.21 286.121C360.472 287.988 362.126 289.595 364.133 290.756L373.227 296.006C375.554 297.349 378.162 298.021 380.772 298.021C383.38 298.021 385.989 297.349 388.316 296.006L397.409 290.756C399.417 289.595 401.071 287.988 402.333 286.121L429.497 301.804C428.51 303.83 427.944 306.066 427.944 308.386V313.635H430.084V308.386C430.084 303.774 432.565 299.476 436.558 297.171L445.652 291.921C447.611 290.789 449.851 290.191 452.128 290.191V288.053C449.475 288.053 446.866 288.749 444.582 290.068L435.488 295.318Z" fill="#E1E1E1"/>
</g>
<mask id="mask43_1025_6611" style="mask-type:alpha" maskUnits="userSpaceOnUse" x="142" y="205" width="25" height="52">
<path fill-rule="evenodd" clip-rule="evenodd" d="M142.712 205.658H166.894V256.823H142.712V205.658Z" fill="white"/>
</mask>
<g mask="url(#mask43_1025_6611)">
<path fill-rule="evenodd" clip-rule="evenodd" d="M150.256 212.923C145.603 215.611 142.712 220.619 142.712 225.991V236.49C142.712 241.863 145.603 246.871 150.256 249.558L159.35 254.809C161.634 256.126 164.243 256.823 166.895 256.823V254.685C164.619 254.685 162.379 254.087 160.42 252.955L151.326 247.705C147.333 245.399 144.852 241.101 144.852 236.49V225.991C144.852 221.381 147.333 217.083 151.326 214.777L160.419 209.526C162.378 208.396 164.619 207.797 166.895 207.797V205.658C164.243 205.658 161.634 206.355 159.349 207.673L150.256 212.923Z" fill="#E1E1E1"/>
</g>
<mask id="mask44_1025_6611" style="mask-type:alpha" maskUnits="userSpaceOnUse" x="0" y="164" width="167" height="150">
<path fill-rule="evenodd" clip-rule="evenodd" d="M0.0012207 164.498H166.894V313.635H0.0012207V164.498Z" fill="white"/>
</mask>
<g mask="url(#mask44_1025_6611)">
<path fill-rule="evenodd" clip-rule="evenodd" d="M111.106 288.903L102.013 294.153C98.0185 296.457 93.0579 296.457 89.0647 294.153L79.9704 288.903C75.9772 286.598 73.4961 282.3 73.4961 277.688V267.187C73.4961 262.577 75.9772 258.279 79.9704 255.973L89.0647 250.724C91.022 249.592 93.2616 248.994 95.539 248.994C97.8163 248.994 100.056 249.592 102.013 250.724L111.106 255.973C115.101 258.279 117.582 262.577 117.582 267.187V277.688C117.582 282.3 115.101 286.597 111.106 288.903V288.903ZM79.9704 206.508C75.9772 204.202 73.4961 199.906 73.4961 195.294V184.794C73.4961 180.182 75.9772 175.884 79.9704 173.578L89.0647 168.328C91.022 167.198 93.2616 166.6 95.539 166.6C97.8163 166.6 100.056 167.198 102.013 168.328L111.106 173.578C115.101 175.884 117.582 180.181 117.582 184.794V195.294C117.582 199.906 115.101 204.202 111.106 206.508L102.013 211.759C98.02 214.065 93.0594 214.066 89.0647 211.759L79.9704 206.508ZM150.255 295.318C148.248 296.477 146.596 298.084 145.334 299.951L118.17 284.268C119.156 282.243 119.722 280.006 119.722 277.688V267.187C119.722 261.815 116.83 256.807 112.176 254.121L103.083 248.87C101.111 247.731 98.8758 247.115 96.609 246.96V215.557C98.8547 215.397 101.075 214.769 103.083 213.61L112.176 208.361C116.83 205.674 119.722 200.666 119.722 195.294V184.794C119.722 179.42 116.83 174.413 112.176 171.726L103.083 166.476C98.5196 163.839 92.5599 163.838 87.9947 166.476L78.9005 171.726C74.2477 174.413 71.3561 179.42 71.3561 184.794V195.294C71.3561 200.668 74.2477 205.675 78.9005 208.361L87.9947 213.61C90.0034 214.769 92.2219 215.397 94.469 215.557V246.96C92.2023 247.115 89.9672 247.731 87.9947 248.87L78.9005 254.121C74.2477 256.807 71.3561 261.815 71.3561 267.187V277.688C71.3561 280.006 71.9221 282.243 72.9076 284.269L45.7426 299.951C44.4824 298.084 42.8284 296.477 40.8212 295.318L31.7269 290.068C27.0711 287.38 21.291 287.381 16.6383 290.068L7.54404 295.318C2.89128 298.004 0.0012207 303.012 0.0012207 308.384V313.635H2.13971V308.384C2.13971 303.774 4.62078 299.476 8.61403 297.171L17.7083 291.921C21.7015 289.615 26.6637 289.615 30.6569 291.921L39.7512 297.171C43.7444 299.476 46.2255 303.774 46.2255 308.386V313.635H48.3655V308.386C48.3655 306.066 47.7995 303.83 46.8126 301.804L73.9776 286.121C75.2392 287.988 76.8933 289.595 78.9005 290.756L87.9947 296.006C90.3218 297.349 92.9297 298.021 95.539 298.021C98.1469 298.021 100.756 297.349 103.083 296.006L112.176 290.756C114.185 289.595 115.839 287.988 117.1 286.121L144.264 301.804C143.277 303.83 142.711 306.066 142.711 308.386V313.635H144.851V308.386C144.851 303.774 147.332 299.476 151.325 297.171L160.42 291.921C162.379 290.789 164.618 290.191 166.895 290.191V288.053C164.242 288.053 161.633 288.749 159.35 290.068L150.255 295.318Z" fill="#E1E1E1"/>
</g>
<mask id="mask45_1025_6611" style="mask-type:alpha" maskUnits="userSpaceOnUse" x="0" y="313" width="49" height="26">
<path fill-rule="evenodd" clip-rule="evenodd" d="M0 313.347H48.3643V338.93H0V313.347Z" fill="white"/>
</mask>
<g mask="url(#mask45_1025_6611)">
<path fill-rule="evenodd" clip-rule="evenodd" d="M7.54426 331.665L16.6385 336.915C18.9656 338.259 21.5735 338.93 24.1828 338.93C26.7907 338.929 29.4 338.259 31.7272 336.915L40.8199 331.665C45.4726 328.979 48.3642 323.971 48.3642 318.597V313.347H46.2242V318.597C46.2242 323.209 43.7447 327.507 39.7499 329.812L30.6572 335.062C26.6624 337.37 21.7002 337.368 17.7085 335.062L8.61426 329.812C6.65537 328.681 5.01792 327.041 3.88001 325.068C2.74059 323.097 2.13843 320.861 2.13843 318.597V313.347H-6.10352e-05V318.597C-6.10352e-05 321.235 0.701702 323.843 2.02675 326.138C3.35331 328.435 5.26089 330.346 7.54426 331.665" fill="#E1E1E1"/>
</g>
<mask id="mask46_1025_6611" style="mask-type:alpha" maskUnits="userSpaceOnUse" x="142" y="313" width="25" height="26">
<path fill-rule="evenodd" clip-rule="evenodd" d="M142.712 313.346H166.894V338.928H142.712V313.346Z" fill="white"/>
</mask>
<g mask="url(#mask46_1025_6611)">
<path fill-rule="evenodd" clip-rule="evenodd" d="M160.419 335.061L151.326 329.811C147.331 327.505 144.852 323.208 144.852 318.596V313.346H142.712V318.596C142.712 323.969 145.603 328.976 150.256 331.664L159.349 336.914C161.634 338.232 164.242 338.929 166.895 338.929V336.791C164.617 336.791 162.378 336.193 160.419 335.061" fill="#E1E1E1"/>
</g>
<mask id="mask47_1025_6611" style="mask-type:alpha" maskUnits="userSpaceOnUse" x="142" y="370" width="25" height="52">
<path fill-rule="evenodd" clip-rule="evenodd" d="M142.711 370.157H166.894V421.323H142.711V370.157Z" fill="white"/>
</mask>
<g mask="url(#mask47_1025_6611)">
<path fill-rule="evenodd" clip-rule="evenodd" d="M150.256 377.422C145.603 380.11 142.711 385.118 142.711 390.49V400.99C142.711 406.362 145.603 411.37 150.256 414.057L159.35 419.308C161.633 420.625 164.243 421.323 166.894 421.323V419.184C164.618 419.184 162.379 418.586 160.42 417.455L151.326 412.204C147.332 409.898 144.851 405.6 144.851 400.99V390.49C144.851 385.88 147.332 381.582 151.326 379.276L160.418 374.025C162.377 372.895 164.618 372.296 166.894 372.296V370.157C164.243 370.157 161.633 370.854 159.348 372.172L150.256 377.422Z" fill="#E1E1E1"/>
</g>
<mask id="mask48_1025_6611" style="mask-type:alpha" maskUnits="userSpaceOnUse" x="285" y="313" width="49" height="26">
<path fill-rule="evenodd" clip-rule="evenodd" d="M285.232 313.344H333.596V338.927H285.232V313.344Z" fill="white"/>
</mask>
<g mask="url(#mask48_1025_6611)">
<path fill-rule="evenodd" clip-rule="evenodd" d="M292.777 331.662L301.871 336.912C304.198 338.256 306.806 338.927 309.415 338.927C312.023 338.926 314.632 338.256 316.959 336.912L326.052 331.662C330.705 328.976 333.596 323.968 333.596 318.594V313.344H331.456V318.594C331.456 323.206 328.977 327.504 324.982 329.809L315.889 335.059C311.895 337.367 306.932 337.365 302.941 335.059L293.847 329.809C291.888 328.678 290.25 327.038 289.112 325.065C287.973 323.094 287.371 320.858 287.371 318.594V313.344H285.232V318.594C285.232 321.232 285.934 323.84 287.259 326.135C288.586 328.432 290.493 330.343 292.777 331.662" fill="#E1E1E1"/>
</g>
<mask id="mask49_1025_6611" style="mask-type:alpha" maskUnits="userSpaceOnUse" x="166" y="313" width="168" height="109">
<path fill-rule="evenodd" clip-rule="evenodd" d="M166.704 313.345H333.598V421.321H166.704V313.345Z" fill="white"/>
</mask>
<g mask="url(#mask49_1025_6611)">
<path fill-rule="evenodd" clip-rule="evenodd" d="M216.015 349.289C216.015 344.677 218.497 340.381 222.491 338.075L231.584 332.824C233.543 331.693 235.783 331.095 238.058 331.095C240.337 331.095 242.575 331.693 244.533 332.824L253.627 338.075C257.622 340.381 260.103 344.677 260.103 349.289V359.79C260.103 364.401 257.622 368.697 253.627 371.005L244.533 376.254C240.539 378.561 235.577 378.561 231.584 376.254L222.491 371.005C218.497 368.699 216.015 364.401 216.015 359.79V349.289ZM293.846 379.27L302.941 374.019C304.937 372.866 307.175 372.29 309.415 372.29C311.654 372.29 313.893 372.866 315.889 374.019L324.983 379.27C328.977 381.576 331.458 385.872 331.458 390.484V400.984C331.458 405.597 328.977 409.894 324.983 412.2L315.889 417.45C311.896 419.755 306.934 419.755 302.941 417.45L293.846 412.2C291.887 411.068 290.25 409.427 289.112 407.455C287.974 405.484 287.372 403.247 287.372 400.985V390.484C287.372 385.872 289.853 381.576 293.846 379.27V379.27ZM216.499 368.224C217.76 370.091 219.413 371.7 221.422 372.859L230.514 378.109C232.841 379.452 235.449 380.124 238.059 380.124C240.668 380.124 243.277 379.452 245.603 378.109L254.697 372.859C256.706 371.7 258.358 370.091 259.62 368.224L286.785 383.909C285.8 385.934 285.234 388.171 285.234 390.489V400.99C285.234 403.626 285.934 406.234 287.261 408.529C288.586 410.826 290.493 412.737 292.777 414.056L301.871 419.306C304.198 420.649 306.806 421.321 309.415 421.321C312.024 421.321 314.632 420.649 316.959 419.306L326.054 414.056C330.706 411.37 333.598 406.362 333.598 400.988V390.489C333.598 385.115 330.706 380.107 326.054 377.421L316.959 372.172C312.305 369.484 306.524 369.484 301.871 372.171L292.777 377.421C290.769 378.581 289.115 380.189 287.855 382.056L260.69 366.372C261.676 364.347 262.242 362.11 262.242 359.792V349.292C262.242 343.917 259.35 338.912 254.697 336.224L245.603 330.973C243.63 329.834 241.397 329.218 239.129 329.064V313.345H236.99V329.064C234.723 329.218 232.488 329.834 230.514 330.973L221.422 336.224C216.769 338.912 213.877 343.917 213.877 349.292V359.792C213.877 362.11 214.443 364.347 215.429 366.371L188.265 382.056C187.004 380.189 185.349 378.58 183.342 377.421L174.248 372.172C171.965 370.853 169.355 370.156 166.704 370.156V372.294C168.98 372.294 171.219 372.893 173.178 374.024L182.272 379.274C186.267 381.58 188.748 385.877 188.748 390.489V400.988C188.748 405.6 186.267 409.898 182.272 412.204L173.18 417.455C171.219 418.585 168.98 419.183 166.704 419.183V421.321C169.355 421.321 171.963 420.625 174.248 419.306L183.342 414.056C187.995 411.37 190.887 406.362 190.887 400.988V390.489C190.887 388.171 190.321 385.934 189.334 383.909L216.499 368.224Z" fill="#E1E1E1"/>
</g>
<mask id="mask50_1025_6611" style="mask-type:alpha" maskUnits="userSpaceOnUse" x="166" y="313" width="25" height="26">
<path fill-rule="evenodd" clip-rule="evenodd" d="M166.704 313.346H190.887V338.929H166.704V313.346Z" fill="white"/>
</mask>
<g mask="url(#mask50_1025_6611)">
<path fill-rule="evenodd" clip-rule="evenodd" d="M183.343 331.666C187.995 328.978 190.887 323.971 190.887 318.598V313.348H188.749V318.598C188.749 323.21 186.266 327.507 182.273 329.813L173.178 335.063C171.22 336.193 168.98 336.793 166.704 336.793V338.931C169.356 338.931 171.964 338.234 174.248 336.916L183.343 331.666Z" fill="#E1E1E1"/>
</g>
<mask id="mask51_1025_6611" style="mask-type:alpha" maskUnits="userSpaceOnUse" x="427" y="313" width="26" height="26">
<path fill-rule="evenodd" clip-rule="evenodd" d="M427.944 313.344H452.126V338.927H427.944V313.344Z" fill="white"/>
</mask>
<g mask="url(#mask51_1025_6611)">
<path fill-rule="evenodd" clip-rule="evenodd" d="M445.651 335.059L436.559 329.809C432.564 327.503 430.084 323.206 430.084 318.594V313.344H427.944V318.594C427.944 323.967 430.836 328.974 435.489 331.662L444.581 336.912C446.866 338.23 449.474 338.927 452.127 338.927V336.789C449.85 336.789 447.61 336.191 445.651 335.059" fill="#E1E1E1"/>
</g>
<mask id="mask52_1025_6611" style="mask-type:alpha" maskUnits="userSpaceOnUse" x="427" y="370" width="26" height="52">
<path fill-rule="evenodd" clip-rule="evenodd" d="M427.944 370.157H452.126V421.323H427.944V370.157Z" fill="white"/>
</mask>
<g mask="url(#mask52_1025_6611)">
<path fill-rule="evenodd" clip-rule="evenodd" d="M435.488 377.422C430.835 380.11 427.944 385.118 427.944 390.49V400.99C427.944 406.362 430.835 411.37 435.488 414.057L444.582 419.308C446.866 420.625 449.475 421.323 452.127 421.323V419.184C449.851 419.184 447.611 418.586 445.652 417.455L436.558 412.204C432.565 409.898 430.084 405.6 430.084 400.99V390.49C430.084 385.88 432.565 381.582 436.558 379.276L445.651 374.025C447.61 372.895 449.851 372.296 452.127 372.296V370.157C449.475 370.157 446.866 370.854 444.581 372.172L435.488 377.422Z" fill="#E1E1E1"/>
</g>
<mask id="mask53_1025_6611" style="mask-type:alpha" maskUnits="userSpaceOnUse" x="285" y="328" width="168" height="151">
<path fill-rule="evenodd" clip-rule="evenodd" d="M285.233 328.995H452.126V478.132H285.233V328.995Z" fill="white"/>
</mask>
<g mask="url(#mask53_1025_6611)">
<path fill-rule="evenodd" clip-rule="evenodd" d="M396.338 453.398L387.245 458.649C383.251 460.953 378.29 460.953 374.297 458.649L365.203 453.398C361.209 451.094 358.728 446.796 358.728 442.184V431.683C358.728 427.072 361.209 422.774 365.203 420.468L374.297 415.219C376.254 414.088 378.494 413.49 380.771 413.49C383.048 413.49 385.288 414.088 387.245 415.219L396.338 420.468C400.333 422.774 402.814 427.072 402.814 431.683V442.184C402.814 446.796 400.333 451.092 396.338 453.398V453.398ZM365.203 371.006C361.209 368.7 358.728 364.403 358.728 359.791V349.292C358.728 344.68 361.209 340.382 365.203 338.076L374.297 332.825C376.254 331.695 378.494 331.097 380.771 331.097C383.048 331.097 385.288 331.695 387.245 332.825L396.338 338.076C400.333 340.382 402.814 344.678 402.814 349.292V359.791C402.814 364.403 400.333 368.7 396.338 371.006L387.245 376.256C383.252 378.562 378.292 378.564 374.297 376.256L365.203 371.006ZM435.488 459.815C433.48 460.974 431.828 462.581 430.566 464.448L403.403 448.765C404.388 446.74 404.954 444.503 404.954 442.185V431.684C404.954 426.312 402.063 421.304 397.408 418.618L388.316 413.368C386.343 412.228 384.108 411.612 381.841 411.457V380.054C384.087 379.894 386.307 379.266 388.316 378.107L397.408 372.858C402.063 370.171 404.954 365.163 404.954 359.791V349.291C404.954 343.917 402.063 338.91 397.408 336.223L388.316 330.973C383.752 328.337 377.792 328.335 373.227 330.973L364.133 336.223C359.48 338.91 356.588 343.917 356.588 349.291V359.791C356.588 365.165 359.48 370.172 364.133 372.858L373.227 378.107C375.236 379.266 377.454 379.894 379.701 380.054V411.457C377.434 411.612 375.199 412.228 373.227 413.368L364.133 418.618C359.48 421.304 356.588 426.312 356.588 431.684V442.185C356.588 444.503 357.154 446.74 358.14 448.767L330.975 464.448C329.715 462.581 328.061 460.974 326.053 459.815L316.959 454.565C312.303 451.877 306.523 451.878 301.87 454.565L292.776 459.815C288.123 462.501 285.233 467.509 285.233 472.882V478.132H287.372V472.882C287.372 468.271 289.853 463.973 293.846 461.668L302.94 456.418C306.934 454.112 311.896 454.112 315.889 456.418L324.983 461.668C328.977 463.973 331.458 468.271 331.458 472.883V478.132H333.598V472.883C333.598 470.563 333.032 468.327 332.045 466.302L359.21 450.618C360.471 452.485 362.125 454.092 364.133 455.253L373.227 460.503C375.554 461.846 378.162 462.518 380.771 462.518C383.379 462.518 385.988 461.846 388.316 460.503L397.408 455.253C399.417 454.092 401.071 452.485 402.333 450.618L429.496 466.302C428.509 468.327 427.943 470.563 427.943 472.883V478.132H430.083V472.883C430.083 468.271 432.564 463.973 436.558 461.668L445.652 456.418C447.611 455.286 449.85 454.689 452.128 454.689V452.55C449.475 452.55 446.865 453.246 444.582 454.565L435.488 459.815Z" fill="#E1E1E1"/>
</g>
<mask id="mask54_1025_6611" style="mask-type:alpha" maskUnits="userSpaceOnUse" x="285" y="477" width="49" height="27">
<path fill-rule="evenodd" clip-rule="evenodd" d="M285.233 477.845H333.597V503.428H285.233V477.845Z" fill="white"/>
</mask>
<g mask="url(#mask54_1025_6611)">
<path fill-rule="evenodd" clip-rule="evenodd" d="M292.777 496.163L301.871 501.413C304.198 502.757 306.806 503.428 309.415 503.428C312.023 503.427 314.633 502.757 316.96 501.413L326.052 496.163C330.705 493.477 333.597 488.469 333.597 483.095V477.845H331.457V483.095C331.457 487.707 328.977 492.005 324.982 494.31L315.89 499.56C311.895 501.868 306.933 501.866 302.941 499.56L293.847 494.31C291.888 493.179 290.251 491.539 289.113 489.566C287.973 487.595 287.371 485.359 287.371 483.095V477.845H285.233V483.095C285.233 485.733 285.934 488.341 287.259 490.636C288.586 492.933 290.493 494.844 292.777 496.163" fill="#E1E1E1"/>
</g>
<mask id="mask55_1025_6611" style="mask-type:alpha" maskUnits="userSpaceOnUse" x="427" y="477" width="26" height="27">
<path fill-rule="evenodd" clip-rule="evenodd" d="M427.944 477.845H452.126V503.428H427.944V477.845Z" fill="white"/>
</mask>
<g mask="url(#mask55_1025_6611)">
<path fill-rule="evenodd" clip-rule="evenodd" d="M445.652 499.561L436.559 494.311C432.564 492.005 430.084 487.708 430.084 483.096V477.846H427.944V483.096C427.944 488.469 430.836 493.476 435.489 496.164L444.582 501.414C446.866 502.732 449.474 503.429 452.127 503.429V501.291C449.85 501.291 447.61 500.693 445.652 499.561" fill="#E1E1E1"/>
</g>
</svg>
